<svg xmlns="http://www.w3.org/2000/svg" width="297" height="223" viewBox="0 0 297 223"><defs><filter id="a" width="149.8%" height="182.4%" x="-24.9%" y="-41.2%" filterUnits="objectBoundingBox"><feGaussianBlur in="SourceGraphic" stdDeviation="18"/></filter><rect id="b" width="168" height="22.8" rx="2.4"/><linearGradient id="c" x1="84.088%" x2="27.848%" y1="44.368%" y2="54.976%"><stop offset="0%" stop-color="#FFB706"/><stop offset="100%" stop-color="#EC4B6D"/></linearGradient></defs><g fill="none" fill-rule="evenodd" transform="translate(28)"><path fill="#52499C" fill-opacity=".219" fill-rule="nonzero" d="M12 52h217v131H12z" filter="url(#a)"/><path fill="#FFF" fill-rule="nonzero" d="M0 0h260.4v175.8H0z"/><g fill-rule="nonzero"><path fill="#2C0549" d="M23.05 14.865a4.863 4.863 0 0 0-1.061-.49 3.203 3.203 0 0 0-.955-.173c-.308 0-.55.058-.73.173a.542.542 0 0 0-.269.48c0 .186.063.34.187.466.125.124.282.227.47.307.19.08.447.168.774.264.454.134.827.269 1.118.403.291.134.54.333.744.595.205.263.307.608.307 1.037 0 .41-.11.766-.331 1.07-.22.304-.525.536-.912.696-.387.16-.83.24-1.33.24a4.183 4.183 0 0 1-1.536-.292 4.362 4.362 0 0 1-1.305-.783l.537-1.094c.34.313.72.56 1.143.739.422.18.816.269 1.18.269.359 0 .64-.07.845-.207a.643.643 0 0 0 .308-.561.644.644 0 0 0-.188-.475 1.393 1.393 0 0 0-.475-.303 8.738 8.738 0 0 0-.787-.26 9.323 9.323 0 0 1-1.114-.393 1.935 1.935 0 0 1-.739-.58c-.205-.26-.307-.6-.307-1.023 0-.39.104-.731.312-1.022.208-.291.502-.517.883-.677.381-.16.821-.24 1.32-.24.435 0 .866.064 1.291.192.426.128.805.3 1.138.518l-.518 1.124zm4.76-.192c.588 0 1.052.177 1.392.532.339.356.508.837.508 1.445v3.207h-1.257v-2.842c0-.358-.103-.642-.307-.85-.205-.208-.484-.312-.836-.312-.416.007-.745.148-.988.423-.244.275-.365.627-.365 1.056v2.525h-1.248v-7.124h1.248V15.7c.352-.672.97-1.015 1.853-1.027zM34 19.857v-.624c-.18.224-.41.393-.691.508a2.544 2.544 0 0 1-.97.173c-.358 0-.673-.069-.945-.206a1.514 1.514 0 0 1-.63-.571 1.545 1.545 0 0 1-.22-.816c0-.48.17-.856.509-1.128.339-.272.819-.412 1.44-.418h1.497v-.134c0-.301-.099-.535-.297-.701-.199-.167-.487-.25-.864-.25-.487 0-.995.16-1.527.48l-.45-.864a5.68 5.68 0 0 1 1.098-.485c.33-.099.716-.148 1.157-.148.666 0 1.183.16 1.55.48.369.32.556.768.562 1.344l.01 3.36H34zm-1.363-.903c.358 0 .665-.085.921-.254.256-.17.4-.38.432-.63v-.46h-1.296c-.332 0-.577.05-.734.149-.157.1-.235.26-.235.485 0 .217.081.39.245.518.163.128.385.192.667.192zm5.096-3.245c.173-.332.408-.587.705-.763a2.076 2.076 0 0 1 1.042-.273v1.21c-.531-.033-.955.09-1.272.369-.317.278-.475.654-.475 1.128v2.477h-1.248V14.72h1.248v.988zm4.616-1.027c.819 0 1.435.234 1.848.7.413.468.619 1.124.619 1.969 0 .166-.003.291-.01.374h-3.792c.084.365.255.652.514.86.26.208.578.312.955.312a1.94 1.94 0 0 0 1.383-.576l.672.7c-.256.282-.568.5-.936.653a3.14 3.14 0 0 1-1.224.23c-.525 0-.988-.108-1.388-.326a2.282 2.282 0 0 1-.926-.917c-.218-.393-.326-.846-.326-1.358 0-.512.11-.966.33-1.363.222-.397.53-.706.927-.927.397-.22.848-.33 1.354-.33zm1.325 2.208c-.013-.377-.138-.678-.375-.902-.237-.224-.55-.336-.94-.336-.365 0-.671.11-.917.33-.247.222-.399.524-.456.908h2.688zm7.081-3.753c.845 0 1.5.201 1.963.604.464.404.696.973.696 1.71 0 .767-.232 1.364-.696 1.79-.464.425-1.118.638-1.963.638h-1.469v1.978H48v-6.72h2.755zm-.067 3.61c.486 0 .86-.106 1.118-.318.26-.21.39-.524.39-.94 0-.41-.13-.717-.39-.922-.259-.205-.632-.307-1.118-.307h-1.402v2.486h1.402zm4.846-1.038c.173-.332.408-.587.706-.763a2.076 2.076 0 0 1 1.042-.273v1.21c-.532-.033-.956.09-1.272.369-.317.278-.476.654-.476 1.128v2.477h-1.248V14.72h1.248v.988zm4.616-1.027c.82 0 1.436.234 1.848.7.413.468.62 1.124.62 1.969 0 .166-.004.291-.01.374h-3.792c.083.365.254.652.514.86.259.208.577.312.955.312a1.939 1.939 0 0 0 1.383-.576l.671.7c-.256.282-.568.5-.936.653a3.14 3.14 0 0 1-1.224.23c-.525 0-.987-.108-1.387-.326a2.282 2.282 0 0 1-.926-.917c-.218-.393-.327-.846-.327-1.358 0-.512.11-.966.331-1.363.221-.397.53-.706.927-.927.397-.22.848-.33 1.353-.33zm1.325 2.208c-.013-.377-.137-.678-.374-.902-.237-.224-.55-.336-.941-.336-.365 0-.67.11-.917.33-.246.222-.398.524-.456.908h2.688zm5.115-.777a3.69 3.69 0 0 0-.772-.346 2.471 2.471 0 0 0-.735-.125c-.211 0-.379.037-.504.11a.368.368 0 0 0-.187.341c0 .16.078.284.235.37.157.086.405.178.744.274.359.108.653.216.883.321.23.106.43.263.6.47.17.209.255.482.255.821 0 .5-.192.884-.576 1.152-.384.27-.867.404-1.45.404-.397 0-.784-.063-1.161-.188a2.735 2.735 0 0 1-.96-.532l.432-.874c.23.198.505.354.825.466.32.112.624.168.912.168.23 0 .415-.04.552-.12a.39.39 0 0 0 .207-.36c0-.18-.08-.314-.24-.404-.16-.09-.42-.188-.778-.297a6.627 6.627 0 0 1-.845-.303 1.543 1.543 0 0 1-.566-.45c-.16-.202-.24-.466-.24-.793 0-.505.184-.891.552-1.157.368-.265.83-.398 1.387-.398.34 0 .674.048 1.003.144.33.096.623.23.879.403l-.452.903zm3.58-1.43c.819 0 1.435.233 1.848.7.412.467.619 1.123.619 1.968 0 .166-.003.291-.01.374h-3.792c.083.365.255.652.514.86.259.208.577.312.955.312.262 0 .514-.05.754-.15.24-.098.45-.24.628-.426l.672.7c-.256.282-.568.5-.936.653a3.14 3.14 0 0 1-1.224.23c-.524 0-.987-.108-1.387-.326a2.282 2.282 0 0 1-.926-.917c-.218-.393-.327-.846-.327-1.358 0-.512.11-.966.332-1.363.22-.397.53-.706.926-.927.397-.22.848-.33 1.354-.33zm1.324 2.207c-.012-.377-.137-.678-.374-.902-.237-.224-.55-.336-.94-.336-.366 0-.671.11-.918.33-.246.222-.398.524-.456.908h2.688zm5.164-2.217c.588 0 1.052.177 1.392.532.339.356.508.837.508 1.445v3.207h-1.257v-2.842c0-.358-.103-.642-.307-.85-.205-.208-.484-.312-.836-.312-.416.007-.744.148-.984.423s-.36.627-.36 1.056v2.525h-1.248V14.72h1.248v.96c.352-.66.967-.996 1.844-1.008zm6.161 4.867c-.41.25-.838.374-1.286.374-.442 0-.803-.13-1.085-.389-.282-.259-.422-.641-.422-1.147v-2.534h-.72l-.01-.912h.73V13.52h1.238v1.41h1.469v.913h-1.469v2.313c0 .237.045.405.134.504.09.1.224.15.404.15.192 0 .435-.071.73-.212l.287.94zm3.867.317v-.624c-.179.224-.41.393-.69.508a2.544 2.544 0 0 1-.97.173c-.359 0-.674-.069-.946-.206a1.514 1.514 0 0 1-.629-.571 1.545 1.545 0 0 1-.22-.816c0-.48.169-.856.508-1.128.34-.272.82-.412 1.44-.418h1.498v-.134c0-.301-.1-.535-.298-.701-.198-.167-.486-.25-.864-.25-.486 0-.995.16-1.526.48l-.451-.864a5.68 5.68 0 0 1 1.099-.485 4.04 4.04 0 0 1 1.157-.148c.665 0 1.182.16 1.55.48.368.32.555.768.562 1.344l.01 3.36h-1.23zm-1.363-.903c.359 0 .666-.085.922-.254.256-.17.4-.38.432-.63v-.46H85.38c-.333 0-.578.05-.735.149-.156.1-.235.26-.235.485 0 .217.082.39.245.518.163.128.386.192.667.192zm6.853.586c-.41.25-.838.374-1.286.374-.442 0-.804-.13-1.085-.389-.282-.259-.423-.641-.423-1.147v-2.534h-.72l-.01-.912h.73V13.52h1.239v1.41h1.469v.913h-1.47v2.313c0 .237.046.405.135.504.09.1.224.15.403.15.192 0 .436-.071.73-.212l.288.94zm.834-4.82h1.248v5.137H93.01V14.72zm.614-2.207c.205 0 .374.07.509.21a.75.75 0 0 1 .201.538.735.735 0 0 1-.201.528.674.674 0 0 1-.509.212.674.674 0 0 1-.509-.212.735.735 0 0 1-.201-.528c0-.217.067-.396.201-.537a.674.674 0 0 1 .509-.211zm4.28 2.17c.531 0 1 .108 1.406.326.407.217.724.523.95.916.228.394.342.847.342 1.359 0 .518-.114.976-.341 1.373a2.353 2.353 0 0 1-.95.921c-.407.218-.876.327-1.407.327-.538 0-1.011-.11-1.42-.327a2.345 2.345 0 0 1-.956-.921c-.227-.397-.34-.855-.34-1.373 0-.512.113-.965.34-1.359.227-.393.546-.699.955-.916.41-.218.883-.327 1.421-.327zm0 1.065c-.435 0-.787.144-1.056.432-.269.288-.403.662-.403 1.123 0 .46.134.835.403 1.123.269.288.62.432 1.056.432.422 0 .768-.144 1.037-.432.269-.288.403-.662.403-1.123 0-.46-.134-.835-.403-1.123-.269-.288-.615-.432-1.037-.432zm6.728-1.075c.589 0 1.053.177 1.392.532.34.356.509.837.509 1.445v3.207h-1.258v-2.842c0-.358-.102-.642-.307-.85-.205-.208-.483-.312-.835-.312-.416.007-.744.148-.984.423s-.36.627-.36 1.056v2.525h-1.248V14.72h1.248v.96c.352-.66.966-.996 1.843-1.008z"/><path stroke="#EBECF4" stroke-width=".6" d="M.3 31.005h259.8v1H.3z"/></g><path fill="#2C0549" fill-rule="nonzero" d="M23.099 46.131a2.427 2.427 0 0 0-.781-.55 2.237 2.237 0 0 0-.916-.197c-.414 0-.795.1-1.142.302a2.242 2.242 0 0 0-1.126 1.957c0 .409.1.787.302 1.134.202.347.476.622.824.823a2.285 2.285 0 0 0 2.049.113c.297-.125.56-.297.79-.516l.487.53c-.297.29-.641.519-1.033.684-.392.165-.79.248-1.193.248a3.04 3.04 0 0 1-1.537-.4 2.952 2.952 0 0 1-1.1-1.087 2.955 2.955 0 0 1-.404-1.52 2.944 2.944 0 0 1 1.52-2.587 3.124 3.124 0 0 1 1.555-.395c.408 0 .805.077 1.188.23.384.155.716.372.996.652l-.48.58zm3.123 0c.443 0 .836.095 1.18.286.345.19.614.455.807.794.193.338.29.726.29 1.163 0 .437-.097.826-.29 1.168a2.047 2.047 0 0 1-.807.798c-.344.19-.737.285-1.18.285-.448 0-.844-.095-1.188-.285a2.055 2.055 0 0 1-.807-.794 2.324 2.324 0 0 1-.29-1.172c0-.437.097-.825.29-1.163a2.04 2.04 0 0 1 .807-.794c.344-.19.74-.286 1.188-.286zm0 .68a1.5 1.5 0 0 0-.777.202 1.39 1.39 0 0 0-.529.559 1.706 1.706 0 0 0-.189.81c0 .308.063.583.189.824.126.24.302.427.53.558.226.132.485.198.776.198a1.5 1.5 0 0 0 .769-.198c.227-.131.403-.318.529-.558a1.75 1.75 0 0 0 .189-.824c0-.302-.063-.572-.189-.81a1.394 1.394 0 0 0-.53-.559 1.479 1.479 0 0 0-.768-.201zm5.71-.68c.415 0 .785.095 1.11.286.324.19.576.456.756.798.179.341.268.733.268 1.176 0 .437-.088.824-.264 1.163a1.919 1.919 0 0 1-.748.79c-.322.187-.69.281-1.104.281-.376 0-.706-.078-.992-.235a1.687 1.687 0 0 1-.672-.672v2.512h-.78v-6.074h.78v.882c.163-.29.385-.515.668-.672.283-.156.61-.235.979-.235zm-.15 3.814c.285 0 .541-.067.768-.202a1.39 1.39 0 0 0 .53-.563 1.73 1.73 0 0 0 .188-.814c0-.297-.064-.566-.193-.807a1.425 1.425 0 0 0-.529-.563 1.457 1.457 0 0 0-.764-.201c-.286 0-.542.067-.769.201a1.416 1.416 0 0 0-.533.563c-.13.241-.194.51-.194.807 0 .308.065.58.194.819.128.238.306.424.533.558.227.135.483.202.769.202zm4.652 1.285c-.14.342-.326.6-.559.773a1.33 1.33 0 0 1-.819.26 1.54 1.54 0 0 1-.52-.084 1.555 1.555 0 0 1-.454-.26l.336-.613c.196.14.395.21.596.21.336 0 .588-.19.756-.572l.168-.394-1.84-4.394h.824l1.411 3.562 1.336-3.562h.798l-2.033 5.074zm5.465-3.032c0 .543.15.967.45 1.272.3.305.712.458 1.239.458.52 0 .93-.153 1.226-.458.297-.305.445-.73.445-1.272V44.72h.807v3.478c0 .767-.22 1.369-.66 1.806-.44.436-1.045.655-1.818.655-.779 0-1.389-.219-1.831-.655-.443-.437-.664-1.04-.664-1.806V44.72h.806v3.478zm9.39 2.402l-1.167-1.848a4.114 4.114 0 0 1-.328.017h-1.495V50.6h-.807v-5.88h2.302c.745 0 1.32.172 1.726.517.406.344.61.833.61 1.465 0 .476-.111.877-.333 1.202-.22.324-.539.56-.953.705l1.37 1.991h-.925zm-1.495-2.562c.504 0 .89-.11 1.16-.332.268-.221.402-.547.402-.978 0-.42-.134-.738-.403-.954-.269-.215-.655-.323-1.159-.323h-1.495v2.587h1.495zm3.644-3.318h.807v5.15h2.57v.73h-3.377v-5.88zm8.658 5.586c-.342.218-.689.328-1.042.328-.353 0-.638-.105-.857-.315-.218-.21-.327-.528-.327-.954v-2.461h-.63v-.596h.63v-1.193h.79v1.193h1.36v.596h-1.36v2.318c0 .247.044.423.134.53.09.106.224.16.403.16.213 0 .442-.07.689-.21l.21.604zm2.61-4.175c.443 0 .837.095 1.181.286.344.19.613.455.806.794.194.338.29.726.29 1.163 0 .437-.096.826-.29 1.168a2.047 2.047 0 0 1-.806.798c-.344.19-.738.285-1.18.285-.448 0-.844-.095-1.189-.285a2.055 2.055 0 0 1-.806-.794 2.324 2.324 0 0 1-.29-1.172c0-.437.097-.825.29-1.163.193-.34.462-.604.806-.794.345-.19.74-.286 1.189-.286zm0 .68c-.29 0-.55.068-.776.202a1.4 1.4 0 0 0-.53.559 1.706 1.706 0 0 0-.188.81c0 .308.063.583.189.824.126.24.302.427.529.558.227.132.486.198.777.198.285 0 .542-.066.768-.198.227-.131.404-.318.53-.558a1.75 1.75 0 0 0 .189-.824c0-.302-.063-.572-.19-.81a1.394 1.394 0 0 0-.529-.559 1.479 1.479 0 0 0-.768-.201zm7.743.328a2.662 2.662 0 0 0-.61-.269 2.181 2.181 0 0 0-.633-.1c-.236 0-.425.043-.567.13a.435.435 0 0 0-.215.399c0 .179.08.315.24.407.16.093.402.186.726.282.308.09.56.179.756.268.196.09.363.222.5.395.137.174.206.403.206.689 0 .42-.158.74-.475.958-.316.218-.71.327-1.18.327a2.95 2.95 0 0 1-.962-.16 2.187 2.187 0 0 1-.785-.453l.294-.571c.185.168.413.302.685.403.271.1.536.151.793.151.258 0 .465-.047.622-.143a.476.476 0 0 0 .235-.436.497.497 0 0 0-.248-.454c-.165-.1-.415-.202-.751-.302a5.037 5.037 0 0 1-.727-.257 1.29 1.29 0 0 1-.479-.382c-.131-.168-.197-.386-.197-.655 0-.414.151-.725.453-.932.303-.208.68-.311 1.134-.311.27 0 .534.038.794.113.26.076.486.178.676.307l-.285.596zm3.829-1.008c.52 0 .93.153 1.226.458.297.305.445.727.445 1.264V50.6h-.78v-2.537c0-.375-.106-.668-.316-.878-.21-.21-.5-.315-.87-.315-.43.006-.772.152-1.024.437-.252.286-.378.655-.378 1.109V50.6H73.8v-6.233h.781v2.747c.297-.644.862-.972 1.697-.983zM81.93 50.6v-.622c-.33.437-.849.656-1.554.656a1.78 1.78 0 0 1-.811-.177 1.298 1.298 0 0 1-.538-.487 1.315 1.315 0 0 1-.189-.697c0-.398.147-.713.441-.945.294-.233.705-.352 1.231-.357h1.411v-.21c0-.314-.096-.556-.29-.727-.193-.17-.474-.256-.844-.256-.448 0-.904.16-1.369.479l-.328-.538c.32-.207.615-.357.887-.45.271-.092.595-.138.97-.138.554 0 .983.136 1.285.408.302.271.456.65.462 1.138l.008 2.923h-.772zm-1.395-.613c.364 0 .674-.088.928-.265a1.04 1.04 0 0 0 .458-.701v-.445H80.62c-.353 0-.614.053-.785.16-.171.106-.256.274-.256.503 0 .23.086.412.26.546.174.135.406.202.697.202zm4.216-2.873c.145-.32.352-.561.621-.727.269-.165.588-.25.958-.256v.756c-.454-.017-.82.101-1.1.353-.28.252-.44.59-.48 1.016V50.6h-.78v-4.444h.78v.958zm4.08-.983c.69 0 1.21.203 1.563.61.353.405.53.97.53 1.692 0 .112-.004.196-.01.252h-3.51c.061.397.228.714.5.949.271.235.606.353 1.003.353.263 0 .508-.048.735-.143.227-.095.424-.23.592-.403l.429.445a2.244 2.244 0 0 1-.79.546 2.63 2.63 0 0 1-1.025.193c-.436 0-.824-.094-1.163-.281a1.977 1.977 0 0 1-.79-.794 2.385 2.385 0 0 1-.281-1.168c0-.436.094-.824.281-1.163a2.05 2.05 0 0 1 .786-.798 2.27 2.27 0 0 1 1.15-.29zm1.387 1.949c-.023-.403-.157-.721-.404-.953-.246-.233-.57-.349-.974-.349-.392 0-.718.118-.979.353-.26.235-.415.551-.466.949h2.823zM21.41 103.47c.566 0 1.085.131 1.559.394.473.264.847.623 1.121 1.08.274.456.412.959.412 1.508a2.978 2.978 0 0 1-1.533 2.608 3.126 3.126 0 0 1-1.559.399 3.126 3.126 0 0 1-1.558-.4 2.978 2.978 0 0 1-1.533-2.607c0-.55.137-1.052.412-1.508a2.975 2.975 0 0 1 1.117-1.08c.47-.263.991-.394 1.562-.394zm.009.722a2.298 2.298 0 0 0-1.974 1.122 2.165 2.165 0 0 0-.311 1.138c0 .414.104.795.31 1.142.208.347.487.623.837.827.35.205.729.307 1.138.307a2.17 2.17 0 0 0 1.13-.307c.344-.204.618-.48.823-.827.204-.347.306-.728.306-1.142 0-.415-.102-.794-.306-1.139a2.285 2.285 0 0 0-.823-.819 2.196 2.196 0 0 0-1.13-.302zm4.82 1.722c.146-.32.353-.561.622-.727a1.85 1.85 0 0 1 .957-.256v.756c-.453-.017-.82.101-1.1.353-.28.252-.44.59-.479 1.016v2.344h-.781v-4.444h.781v.958zm4.45-2.394h4.082v.73h-3.276v1.815h2.931v.731h-2.931v1.873h3.376v.731h-4.183v-5.88zm11.019 1.411c.51 0 .91.154 1.2.462.292.308.438.728.438 1.26v2.747h-.79v-2.537c0-.375-.102-.669-.307-.882-.204-.213-.485-.319-.844-.319-.42.011-.75.16-.991.445-.24.286-.361.653-.361 1.1v2.193h-.79v-2.537c0-.375-.1-.669-.302-.882-.202-.213-.485-.319-.849-.319-.42.011-.751.16-.995.445-.244.286-.365.653-.365 1.1v2.193h-.782v-4.444h.782v.933c.29-.627.842-.947 1.654-.958.41 0 .75.098 1.021.294.272.196.455.47.55.823.275-.733.851-1.106 1.73-1.117zm5.618 4.469v-.622c-.33.437-.849.656-1.554.656-.308 0-.578-.06-.81-.177a1.298 1.298 0 0 1-.538-.487 1.315 1.315 0 0 1-.19-.697c0-.398.148-.713.442-.945.294-.233.704-.352 1.23-.357h1.411v-.21c0-.314-.096-.556-.29-.727-.193-.17-.474-.256-.844-.256-.448 0-.904.16-1.369.479l-.327-.538c.319-.207.614-.357.886-.45.271-.092.595-.138.97-.138.554 0 .983.136 1.285.408.303.271.457.65.462 1.138l.009 2.923h-.773zm-1.395-.613c.364 0 .674-.088.929-.265.254-.176.407-.41.457-.701v-.445h-1.302c-.352 0-.614.053-.785.16-.17.106-.256.274-.256.503 0 .23.087.412.26.546.174.135.406.202.697.202zm3.435-3.83h.78v4.443h-.78v-4.444zm.386-1.773c.14 0 .256.048.349.143a.497.497 0 0 1 .138.361.497.497 0 0 1-.138.361.465.465 0 0 1-.349.143.465.465 0 0 1-.349-.143.497.497 0 0 1-.138-.361c0-.146.046-.266.138-.361a.465.465 0 0 1 .349-.143zm1.83-.017h.781v6.233h-.781v-6.233zm6.683 5.939c-.341.218-.688.328-1.041.328s-.639-.105-.857-.315c-.218-.21-.328-.528-.328-.954v-2.461h-.63v-.596h.63v-1.193h.79v1.193h1.36v.596h-1.36v2.318c0 .247.045.423.134.53.09.106.224.16.404.16.212 0 .442-.07.688-.21l.21.604zm3.342-4.175c.521 0 .93.153 1.227.458.296.305.445.727.445 1.264v2.747h-.781v-2.537c0-.375-.105-.668-.315-.878-.21-.21-.5-.315-.87-.315-.431.006-.773.152-1.025.437-.252.286-.378.655-.378 1.109v2.184h-.78v-6.233h.78v2.747c.297-.644.863-.972 1.697-.983zm2.939.025h.781v4.444h-.781v-4.444zm.386-1.772c.14 0 .256.048.349.143a.497.497 0 0 1 .138.361.497.497 0 0 1-.138.361.465.465 0 0 1-.349.143.465.465 0 0 1-.348-.143.497.497 0 0 1-.139-.361c0-.146.046-.266.139-.361a.465.465 0 0 1 .348-.143zm4.216 2.755a2.662 2.662 0 0 0-.61-.269 2.181 2.181 0 0 0-.634-.1c-.235 0-.424.043-.567.13a.435.435 0 0 0-.214.399c0 .179.08.315.24.407.16.093.401.186.726.282.308.09.56.179.756.268.196.09.363.222.5.395.137.174.206.403.206.689 0 .42-.158.74-.475.958-.316.218-.71.327-1.18.327a2.95 2.95 0 0 1-.962-.16 2.187 2.187 0 0 1-.785-.453l.294-.571c.185.168.413.302.684.403.272.1.537.151.794.151.258 0 .465-.047.622-.143a.476.476 0 0 0 .235-.436.497.497 0 0 0-.248-.454c-.165-.1-.416-.202-.752-.302a5.037 5.037 0 0 1-.726-.257 1.29 1.29 0 0 1-.479-.382c-.132-.168-.197-.386-.197-.655 0-.414.15-.725.453-.932.303-.208.68-.311 1.134-.311.269 0 .534.038.794.113.26.076.486.178.676.307l-.285.596zm4.138 1.059c0 .543.15.967.45 1.272.299.305.712.458 1.238.458.521 0 .93-.153 1.227-.458.297-.305.445-.73.445-1.272v-3.478h.806v3.478c0 .767-.22 1.369-.659 1.806-.44.436-1.046.655-1.819.655-.778 0-1.388-.219-1.83-.655-.443-.437-.664-1.04-.664-1.806v-3.478h.806v3.478zm9.39 2.402l-1.168-1.848a4.114 4.114 0 0 1-.327.017h-1.496v1.831h-.806v-5.88h2.302c.744 0 1.32.172 1.726.517.406.344.609.833.609 1.465 0 .476-.11.877-.332 1.202-.221.324-.539.56-.953.705L83.6 109.4h-.924zm-1.495-2.562c.504 0 .89-.11 1.159-.332.269-.221.403-.547.403-.978 0-.42-.134-.738-.403-.954-.269-.215-.655-.323-1.16-.323h-1.495v2.587h1.496zm3.644-3.318h.806v5.15h2.57v.73h-3.376v-5.88zm8.657 5.586c-.341.218-.688.328-1.041.328s-.639-.105-.857-.315c-.218-.21-.328-.528-.328-.954v-2.461h-.63v-.596h.63v-1.193h.79v1.193h1.36v.596h-1.36v2.318c0 .247.045.423.134.53.09.106.224.16.404.16.212 0 .442-.07.688-.21l.21.604zm2.611-4.175c.443 0 .836.095 1.18.286.345.19.614.455.807.794.193.338.29.726.29 1.163 0 .437-.097.826-.29 1.168a2.047 2.047 0 0 1-.806.798c-.345.19-.738.285-1.18.285-.449 0-.845-.095-1.19-.285a2.055 2.055 0 0 1-.806-.794 2.324 2.324 0 0 1-.29-1.172c0-.437.097-.825.29-1.163.194-.34.462-.604.807-.794.344-.19.74-.286 1.188-.286zm0 .68c-.29 0-.55.068-.777.202-.226.135-.403.32-.529.559a1.706 1.706 0 0 0-.189.81c0 .308.063.583.19.824.125.24.302.427.528.558.227.132.486.198.777.198a1.5 1.5 0 0 0 .769-.198c.227-.131.403-.318.53-.558a1.75 1.75 0 0 0 .188-.824c0-.302-.063-.572-.189-.81a1.394 1.394 0 0 0-.529-.559 1.479 1.479 0 0 0-.769-.201zm7.742.328a2.662 2.662 0 0 0-.609-.269 2.181 2.181 0 0 0-.634-.1c-.235 0-.424.043-.567.13a.435.435 0 0 0-.214.399c0 .179.08.315.24.407.159.093.401.186.726.282.308.09.56.179.756.268.196.09.363.222.5.395.137.174.206.403.206.689 0 .42-.159.74-.475.958-.316.218-.71.327-1.18.327a2.95 2.95 0 0 1-.962-.16 2.187 2.187 0 0 1-.785-.453l.294-.571c.184.168.413.302.684.403.272.1.536.151.794.151s.465-.047.622-.143a.476.476 0 0 0 .235-.436.497.497 0 0 0-.248-.454c-.165-.1-.416-.202-.752-.302a5.037 5.037 0 0 1-.726-.257 1.29 1.29 0 0 1-.48-.382c-.13-.168-.197-.386-.197-.655 0-.414.152-.725.454-.932.302-.208.68-.311 1.134-.311.269 0 .533.038.794.113.26.076.486.178.676.307l-.286.596zm3.83-1.008c.52 0 .929.153 1.226.458.297.305.445.727.445 1.264v2.747h-.781v-2.537c0-.375-.105-.668-.315-.878-.21-.21-.5-.315-.87-.315-.43.006-.772.152-1.024.437-.252.286-.378.655-.378 1.109v2.184h-.782v-6.233h.782v2.747c.296-.644.862-.972 1.696-.983zm5.651 4.469v-.622c-.33.437-.848.656-1.554.656-.308 0-.578-.06-.81-.177a1.298 1.298 0 0 1-.538-.487 1.315 1.315 0 0 1-.189-.697c0-.398.147-.713.441-.945.294-.233.704-.352 1.23-.357h1.412v-.21c0-.314-.097-.556-.29-.727-.193-.17-.475-.256-.844-.256-.448 0-.905.16-1.37.479l-.327-.538c.32-.207.615-.357.886-.45.272-.092.595-.138.97-.138.555 0 .983.136 1.286.408.302.271.456.65.462 1.138l.008 2.923h-.773zm-1.394-.613c.364 0 .673-.088.928-.265.255-.176.407-.41.458-.701v-.445h-1.302c-.353 0-.615.053-.786.16-.17.106-.256.274-.256.503 0 .23.087.412.26.546.174.135.407.202.698.202zm4.215-2.873c.146-.32.353-.561.622-.727.269-.165.588-.25.957-.256v.756c-.453-.017-.82.101-1.1.353-.28.252-.44.59-.479 1.016v2.344h-.781v-4.444h.781v.958zm4.081-.983c.689 0 1.21.203 1.563.61.352.405.529.97.529 1.692 0 .112-.003.196-.009.252h-3.51c.06.397.227.714.499.949s.606.353 1.004.353c.263 0 .508-.048.735-.143.227-.095.424-.23.592-.403l.428.445a2.244 2.244 0 0 1-.79.546 2.62 2.62 0 0 1-1.024.193c-.437 0-.825-.094-1.163-.281a1.977 1.977 0 0 1-.79-.794 2.385 2.385 0 0 1-.281-1.168c0-.436.093-.824.281-1.163.188-.339.45-.605.785-.798a2.27 2.27 0 0 1 1.151-.29zm1.386 1.949c-.022-.403-.157-.721-.403-.953-.246-.233-.571-.349-.974-.349-.392 0-.719.118-.979.353s-.416.551-.466.949h2.822z"/><g fill-rule="nonzero" transform="translate(18 61)"><path fill="#7A7591" d="M7.64 9.615c.533 0 .949.153 1.248.458.3.305.45.724.45 1.256V14h-.353v-2.604c0-.448-.126-.798-.378-1.05s-.602-.378-1.05-.378c-.538.011-.958.185-1.26.52-.303.337-.454.793-.454 1.37V14H5.49V7.767h.353v2.999c.146-.37.371-.651.676-.844.306-.193.68-.296 1.122-.307zm5.233 4.083c-.308.207-.62.31-.933.31-.313 0-.554-.102-.722-.306-.168-.205-.252-.508-.252-.912v-2.755h-.639v-.302h.639V8.649h.336v1.084h1.487v.302h-1.487v2.713c0 .61.227.916.68.916.258 0 .51-.084.756-.252l.135.286zm2.997 0c-.308.207-.619.31-.932.31-.314 0-.555-.102-.723-.306-.168-.205-.252-.508-.252-.912v-2.755h-.638v-.302h.638V8.649h.336v1.084h1.487v.302h-1.487v2.713c0 .61.227.916.68.916.258 0 .51-.084.757-.252l.134.286zm3.19-4.083c.404 0 .766.094 1.088.282.322.187.573.448.752.78.18.334.269.713.269 1.139 0 .42-.09.797-.269 1.13a1.97 1.97 0 0 1-.747.781c-.32.188-.684.281-1.092.281-.426 0-.8-.102-1.122-.306a1.963 1.963 0 0 1-.735-.844v2.772h-.353V9.624h.353v1.15a1.95 1.95 0 0 1 .735-.852 2.047 2.047 0 0 1 1.122-.307zm-.05 4.066c.347 0 .66-.08.937-.24.277-.16.493-.38.647-.663.154-.283.23-.604.23-.962s-.076-.679-.23-.962a1.705 1.705 0 0 0-.647-.668 1.818 1.818 0 0 0-.937-.243c-.347 0-.658.081-.932.243a1.714 1.714 0 0 0-.643.668 1.978 1.978 0 0 0-.23.962c0 .358.076.679.23.962.154.283.368.504.643.663.274.16.585.24.932.24zm5.442-3.436a2.017 2.017 0 0 0-1.109-.31c-.325 0-.588.062-.79.188a.625.625 0 0 0-.302.567c0 .168.05.308.151.42.101.112.227.2.378.26.152.062.356.132.614.21.308.096.554.186.739.27.185.084.343.204.474.36.132.158.198.365.198.622 0 .387-.146.68-.437.878-.291.199-.652.298-1.084.298a2.45 2.45 0 0 1-.882-.16 2.151 2.151 0 0 1-.722-.444l.16-.27c.19.18.413.317.667.412.255.096.52.143.794.143.336 0 .615-.07.836-.21a.681.681 0 0 0 .332-.613.633.633 0 0 0-.156-.441 1.102 1.102 0 0 0-.39-.273 6.027 6.027 0 0 0-.63-.218 6.663 6.663 0 0 1-.723-.265 1.29 1.29 0 0 1-.462-.353c-.128-.154-.193-.354-.193-.6 0-.364.136-.639.408-.824.271-.184.614-.277 1.029-.277.459 0 .876.115 1.251.345l-.151.285zm1.292.723c.079 0 .147.028.206.084a.278.278 0 0 1 .088.21c0 .09-.03.163-.088.222a.282.282 0 0 1-.206.088.269.269 0 0 1-.201-.088.31.31 0 0 1-.084-.222c0-.084.028-.154.084-.21a.275.275 0 0 1 .201-.084zm0 2.494c.079 0 .147.028.206.084a.278.278 0 0 1 .088.21c0 .09-.03.164-.088.223a.282.282 0 0 1-.206.088.269.269 0 0 1-.201-.088.31.31 0 0 1-.084-.223c0-.084.028-.154.084-.21a.275.275 0 0 1 .201-.084zm3.216-6.384h.32l-2.588 7.989h-.328l2.596-7.989zm2.41 0h.319L29.1 15.067h-.327l2.595-7.989zm6.214 2.537c.52 0 .928.151 1.222.454.294.302.441.722.441 1.26V14h-.344v-2.604c0-.448-.123-.798-.37-1.05-.246-.252-.59-.378-1.033-.378-.52.011-.928.185-1.222.52-.294.337-.441.793-.441 1.37V14h-.345v-2.604c0-.448-.124-.798-.373-1.05-.25-.252-.593-.378-1.03-.378-.52.011-.929.186-1.226.525-.297.339-.445.794-.445 1.365V14h-.344V9.624h.344v1.15c.14-.375.36-.659.66-.852.299-.193.667-.296 1.104-.307.437 0 .795.11 1.075.332.28.221.46.533.538.937.134-.41.354-.72.66-.933.304-.213.681-.325 1.129-.336zm6.769.009V14h-.344v-1.168c-.14.381-.36.671-.66.87-.3.199-.665.3-1.096.306-.526 0-.937-.15-1.23-.453-.295-.303-.442-.723-.442-1.26V9.624h.345v2.604c0 .448.123.798.37 1.05.246.252.59.378 1.033.378.526-.012.938-.185 1.234-.521.297-.336.446-.793.446-1.37v-2.14h.344zm3.762.621a2.017 2.017 0 0 0-1.109-.31c-.325 0-.588.062-.79.188a.625.625 0 0 0-.302.567c0 .168.05.308.151.42.101.112.227.2.378.26.151.062.356.132.613.21.308.096.555.186.74.27.184.084.343.204.474.36.132.158.198.365.198.622 0 .387-.146.68-.437.878-.291.199-.653.298-1.084.298a2.45 2.45 0 0 1-.882-.16 2.151 2.151 0 0 1-.722-.444l.16-.27c.19.18.412.317.667.412.255.096.52.143.794.143.336 0 .615-.07.836-.21a.681.681 0 0 0 .332-.613.633.633 0 0 0-.156-.441 1.102 1.102 0 0 0-.39-.273 6.027 6.027 0 0 0-.63-.218 6.663 6.663 0 0 1-.723-.265 1.29 1.29 0 0 1-.462-.353c-.129-.154-.193-.354-.193-.6 0-.364.136-.639.407-.824.272-.184.615-.277 1.03-.277.459 0 .876.115 1.251.345l-.151.285zm3.468 3.453c-.308.207-.62.31-.933.31-.313 0-.554-.102-.722-.306-.168-.205-.252-.508-.252-.912v-2.755h-.639v-.302h.639V8.649h.336v1.084h1.487v.302h-1.487v2.713c0 .61.227.916.68.916.258 0 .51-.084.756-.252l.135.286zm.981-5.93h.353V14h-.353V7.767zm3.09 6.862c-.135.325-.305.574-.513.748a1.06 1.06 0 0 1-.697.26c-.33 0-.607-.084-.831-.252l.15-.302c.197.134.418.201.664.201a.824.824 0 0 0 .538-.201c.162-.135.297-.33.403-.588L55.57 14l-1.806-4.376h.37l1.612 3.964 1.571-3.964h.37l-2.033 5.006zm2.527-1.168a.29.29 0 0 1 .206.084.278.278 0 0 1 .088.21c0 .09-.03.164-.088.223a.282.282 0 0 1-.206.088.269.269 0 0 1-.202-.088.31.31 0 0 1-.084-.223c0-.084.028-.154.084-.21a.275.275 0 0 1 .202-.084zm1.51-3.838h.345V14h-.345V9.624zm.177-1.563c.078 0 .147.03.206.088.058.06.088.13.088.215 0 .09-.03.163-.088.222a.282.282 0 0 1-.412 0 .302.302 0 0 1-.088-.222c0-.084.03-.156.088-.215a.282.282 0 0 1 .206-.088zm3.484 1.554a2.2 2.2 0 0 1 1.113.282c.328.187.584.448.769.78.185.334.277.71.277 1.13 0 .426-.092.806-.277 1.139a2.002 2.002 0 0 1-.769.781 2.2 2.2 0 0 1-1.113.281c-.408 0-.777-.093-1.104-.281a2.031 2.031 0 0 1-.773-.781 2.28 2.28 0 0 1-.281-1.138c0-.42.093-.797.281-1.13.188-.333.445-.594.773-.781a2.183 2.183 0 0 1 1.104-.282zm0 .336c-.347 0-.658.079-.932.235a1.69 1.69 0 0 0-.647.66 1.95 1.95 0 0 0-.235.962c0 .364.078.688.235.974.157.286.373.507.647.664.274.156.585.235.932.235.348 0 .66-.079.937-.235a1.64 1.64 0 0 0 .647-.664 2.02 2.02 0 0 0 .23-.974c0-.359-.076-.68-.23-.962a1.647 1.647 0 0 0-.647-.66 1.869 1.869 0 0 0-.937-.235zm5.014-2.873h.319l-2.587 7.989h-.328l2.596-7.989zm.838 1.05h3.537v.345h-3.184v2.537h2.823v.352h-2.823V14h-.353V8.128zm4.72 3.495c0 .655.178 1.163.533 1.524.356.362.853.542 1.491.542.633 0 1.127-.18 1.483-.542.355-.36.533-.869.533-1.524V8.128h.353v3.495c0 .761-.207 1.354-.622 1.776-.414.423-.996.635-1.747.635-.75 0-1.334-.212-1.751-.635-.417-.422-.626-1.015-.626-1.776V8.128h.353v3.495zm8.205-3.495c.723 0 1.28.168 1.672.504.392.336.588.812.588 1.428 0 .633-.196 1.122-.588 1.466-.392.345-.95.517-1.672.517h-1.713V14h-.353V8.128h2.066zm-.008 3.57c.616 0 1.092-.141 1.428-.424.336-.283.504-.684.504-1.205 0-.515-.168-.91-.504-1.185-.336-.274-.812-.411-1.428-.411h-1.705v3.225h1.705zm2.451-3.57h.395l2.226 5.452 2.234-5.452h.387L87.378 14h-.37l-2.436-5.872zm10.322 1.025a2.733 2.733 0 0 0-1.848-.73 2.67 2.67 0 0 0-1.348.352 2.654 2.654 0 0 0-.978.958c-.241.403-.362.843-.362 1.319s.12.915.362 1.318c.24.404.567.724.978.962.412.238.861.357 1.348.357.348 0 .68-.063.996-.189.316-.126.6-.304.852-.533l.219.243c-.275.258-.592.46-.954.605a2.973 2.973 0 0 1-1.121.219 3.008 3.008 0 0 1-1.52-.4 2.994 2.994 0 0 1-1.105-1.083 2.863 2.863 0 0 1-.407-1.491c0-.538.135-1.035.407-1.491a3 3 0 0 1 1.105-1.084 3.008 3.008 0 0 1 1.52-.399c.386 0 .757.07 1.113.21.356.14.673.336.953.588l-.21.27zm1.511-1.025h.487l2.445 4.629 2.427-4.629h.479V14h-.328l-.008-5.384-2.503 4.746h-.151L96.74 8.616V14h-.336V8.128zm9.793 0c.722 0 1.28.168 1.672.504.392.336.588.812.588 1.428 0 .633-.196 1.122-.588 1.466-.392.345-.95.517-1.672.517h-1.714V14h-.352V8.128h2.066zm-.008 3.57c.616 0 1.092-.141 1.428-.424.336-.283.504-.684.504-1.205 0-.515-.168-.91-.504-1.185-.336-.274-.812-.411-1.428-.411h-1.706v3.225h1.706zm2.451-3.57h.395l2.226 5.452 2.234-5.452h.387L111.447 14h-.37l-2.436-5.872zm13.161 0h.378L120.19 14h-.362l-1.789-5.401L116.242 14h-.362l-1.99-5.872h.394l1.79 5.469 1.789-5.469h.361l1.798 5.469 1.78-5.469zm3.737 0c.577 0 1.026.128 1.348.383.322.254.483.611.483 1.07 0 .365-.1.664-.298.9-.199.235-.477.386-.836.453.454.056.805.214 1.054.475.25.26.374.597.374 1.012 0 .498-.185.886-.554 1.163-.37.277-.888.416-1.554.416h-2.42V8.128h2.403zm-.008 2.663c.47 0 .835-.1 1.096-.302.26-.202.39-.49.39-.865 0-.364-.13-.647-.39-.849-.26-.201-.626-.302-1.096-.302h-2.042v2.318h2.042zm0 2.856c.565.006 1.003-.102 1.314-.323.311-.221.466-.536.466-.945 0-.398-.155-.704-.466-.92-.31-.216-.749-.323-1.314-.323h-2.042v2.511h2.042zm3.568-5.519h3.789v.345h-3.436v2.343h3.058v.353h-3.058v2.487h3.545V14h-3.898V8.128z"/><rect width="167.4" height="22.2" x=".3" y=".3" stroke="#D9DAE8" stroke-width=".6" rx="2.4"/></g><rect width="167.4" height="22.2" x=".3" y=".3" stroke="#7A7591" stroke-width=".6" rx="2.4" transform="translate(18 119)"/><path fill="#2C0549" fill-rule="nonzero" d="M26.262 133l-.008-.865c-.18.297-.419.516-.718.66a2.38 2.38 0 0 1-1.03.213 1.63 1.63 0 0 1-.755-.168 1.262 1.262 0 0 1-.508-.457 1.22 1.22 0 0 1-.181-.66c0-.364.146-.65.437-.86.291-.21.689-.316 1.193-.316h1.554v-.428c-.006-.375-.118-.667-.336-.874-.219-.207-.544-.31-.975-.31a1.92 1.92 0 0 0-.747.146c-.236.098-.476.24-.723.425l-.168-.27c.286-.206.56-.362.823-.465a2.34 2.34 0 0 1 .866-.156c.51 0 .903.132 1.18.395.277.263.418.624.424 1.084l.017 2.906h-.345zm-1.705-.31c.42 0 .776-.093 1.067-.278.291-.185.501-.465.63-.84v-.714h-1.529c-.431 0-.76.073-.987.218a.712.712 0 0 0-.34.639c0 .291.105.526.315.705.21.18.491.27.844.27zm7.408-5.923V133h-.353v-1.142c-.168.364-.415.65-.74.856-.324.208-.7.311-1.125.311-.409 0-.776-.095-1.1-.285a2.01 2.01 0 0 1-.76-.786 2.335 2.335 0 0 1-.274-1.138c0-.426.091-.806.273-1.142.182-.336.434-.6.756-.79.322-.19.688-.286 1.097-.286.43 0 .809.104 1.134.311.324.207.57.493.739.857v-2.999h.353zm-2.176 5.93c.347 0 .66-.08.937-.243.277-.162.494-.386.65-.672.157-.286.236-.608.236-.966s-.079-.68-.235-.966a1.727 1.727 0 0 0-.651-.672 1.818 1.818 0 0 0-.937-.244c-.347 0-.66.082-.937.244a1.757 1.757 0 0 0-.655.672c-.16.286-.24.608-.24.966s.08.68.236.966c.157.286.374.51.651.672.277.162.592.244.945.244zm6.651.303l-.008-.865c-.18.297-.419.516-.718.66a2.38 2.38 0 0 1-1.03.213 1.63 1.63 0 0 1-.755-.168 1.262 1.262 0 0 1-.508-.457 1.22 1.22 0 0 1-.181-.66c0-.364.146-.65.437-.86.291-.21.689-.316 1.193-.316h1.554v-.428c-.006-.375-.118-.667-.336-.874-.219-.207-.544-.31-.975-.31a1.92 1.92 0 0 0-.747.146c-.236.098-.476.24-.723.425l-.168-.27c.286-.206.56-.362.823-.465a2.34 2.34 0 0 1 .866-.156c.51 0 .903.132 1.18.395.277.263.418.624.424 1.084l.017 2.906h-.345zm-1.705-.31c.42 0 .776-.093 1.067-.278.291-.185.501-.465.63-.84v-.714h-1.529c-.431 0-.76.073-.987.218a.712.712 0 0 0-.34.639c0 .291.105.526.315.705.21.18.491.27.844.27zm9.037-4.075c.521 0 .928.151 1.222.454.294.302.441.722.441 1.26V133h-.344v-2.604c0-.448-.123-.798-.37-1.05-.246-.252-.59-.378-1.033-.378-.52.011-.928.185-1.222.52-.294.337-.441.793-.441 1.37V133h-.344v-2.604c0-.448-.125-.798-.374-1.05-.25-.252-.592-.378-1.03-.378-.52.011-.929.186-1.226.525-.296.339-.445.794-.445 1.365V133h-.344v-4.376h.344v1.15c.14-.375.36-.659.66-.852.3-.193.667-.296 1.104-.307.437 0 .795.11 1.075.332.28.221.46.533.538.937.134-.41.354-.72.66-.933.305-.213.681-.325 1.13-.336zm8.382 3.461c0 .213.055.38.164.504a.532.532 0 0 0 .416.185.707.707 0 0 0 .525-.244c.154-.162.274-.392.36-.689.088-.296.131-.64.131-1.033a3.65 3.65 0 0 0-.445-1.802 3.218 3.218 0 0 0-1.24-1.255c-.528-.303-1.126-.454-1.793-.454a3.66 3.66 0 0 0-1.818.454c-.54.302-.965.72-1.273 1.255a3.528 3.528 0 0 0-.462 1.794c0 .633.149 1.204.445 1.713.297.51.707.909 1.231 1.197a3.603 3.603 0 0 0 1.768.433c.241 0 .506-.038.794-.113.288-.076.533-.173.735-.29l.126.269a3.202 3.202 0 0 1-.798.319c-.314.084-.6.126-.857.126a3.885 3.885 0 0 1-1.915-.475 3.453 3.453 0 0 1-1.34-1.306 3.66 3.66 0 0 1-.483-1.873c0-.723.167-1.374.5-1.953a3.574 3.574 0 0 1 1.378-1.361c.585-.328 1.241-.491 1.97-.491.716 0 1.36.163 1.931.491a3.52 3.52 0 0 1 1.344 1.36c.325.58.488 1.234.488 1.962 0 .454-.055.85-.164 1.189-.11.339-.265.6-.466.785a1.011 1.011 0 0 1-.706.277.788.788 0 0 1-.58-.235c-.156-.157-.24-.37-.252-.638v-.437a1.936 1.936 0 0 1-.73.84c-.325.207-.695.31-1.11.31-.391 0-.747-.09-1.066-.272a1.962 1.962 0 0 1-.752-.76 2.212 2.212 0 0 1-.273-1.1c0-.404.088-.77.265-1.097.176-.328.423-.584.739-.769.316-.184.67-.277 1.063-.277.42 0 .793.105 1.121.315.328.21.559.478.693.802v-1.083h.336v3.427zm-2.108-3.116a1.77 1.77 0 0 0-.903.23 1.644 1.644 0 0 0-.626.643 1.87 1.87 0 0 0-.227.916c0 .341.076.648.227.92.151.271.36.485.626.642.266.157.567.235.903.235.341 0 .645-.077.911-.23.266-.155.475-.369.626-.643.151-.275.227-.583.227-.924a1.87 1.87 0 0 0-.227-.916 1.636 1.636 0 0 0-.63-.642 1.792 1.792 0 0 0-.907-.231zm10.641-.345c.52 0 .928.151 1.222.454.294.302.441.722.441 1.26V133h-.344v-2.604c0-.448-.123-.798-.37-1.05-.246-.252-.59-.378-1.033-.378-.52.011-.928.185-1.222.52-.294.337-.441.793-.441 1.37V133h-.345v-2.604c0-.448-.124-.798-.373-1.05-.25-.252-.593-.378-1.03-.378-.52.011-.929.186-1.226.525-.297.339-.445.794-.445 1.365V133h-.344v-4.376h.344v1.15c.14-.375.36-.659.66-.852.299-.193.667-.296 1.104-.307.437 0 .795.11 1.075.332.28.221.46.533.538.937.134-.41.354-.72.66-.933.304-.213.681-.325 1.129-.336zm6.769.009V133h-.344v-1.168c-.14.381-.36.671-.66.87-.3.199-.665.3-1.096.306-.526 0-.937-.15-1.23-.453-.295-.303-.442-.723-.442-1.26v-2.671h.345v2.604c0 .448.123.798.37 1.05.246.252.59.378 1.033.378.526-.012.938-.185 1.234-.521.297-.336.446-.793.446-1.37v-2.141h.344zm3.762.621a2.017 2.017 0 0 0-1.109-.31c-.325 0-.588.062-.79.188a.625.625 0 0 0-.302.567c0 .168.05.308.151.42.101.112.227.2.378.26.151.062.356.132.613.21.308.096.555.186.74.27.184.084.343.204.474.36.132.158.198.365.198.622 0 .387-.146.68-.437.878-.291.199-.653.298-1.084.298a2.45 2.45 0 0 1-.882-.16 2.151 2.151 0 0 1-.722-.444l.16-.27c.19.18.412.317.667.412.255.096.52.143.794.143.336 0 .615-.07.836-.21a.681.681 0 0 0 .332-.613.633.633 0 0 0-.156-.441 1.102 1.102 0 0 0-.39-.273 6.027 6.027 0 0 0-.63-.218 6.663 6.663 0 0 1-.723-.265 1.29 1.29 0 0 1-.462-.353c-.129-.154-.193-.354-.193-.6 0-.364.136-.639.407-.824.272-.184.615-.277 1.03-.277.459 0 .876.115 1.251.345l-.151.285zm3.468 3.453c-.308.207-.62.31-.933.31-.313 0-.554-.102-.722-.306-.168-.205-.252-.508-.252-.912v-2.755h-.639v-.302h.639v-1.084h.336v1.084h1.487v.302h-1.487v2.713c0 .61.227.916.68.916.258 0 .51-.084.756-.252l.135.286zm.981-5.93h.353V133h-.353v-6.233zm3.09 6.862c-.135.325-.305.574-.513.748a1.06 1.06 0 0 1-.697.26c-.33 0-.607-.084-.831-.252l.15-.302c.197.134.418.201.664.201a.824.824 0 0 0 .538-.201c.162-.135.297-.33.403-.588l.202-.496-1.806-4.376h.37l1.612 3.964 1.571-3.964h.37l-2.033 5.006zm2.527-1.168a.29.29 0 0 1 .206.084.278.278 0 0 1 .088.21c0 .09-.03.164-.088.223a.282.282 0 0 1-.206.088.269.269 0 0 1-.202-.088.31.31 0 0 1-.084-.223c0-.084.028-.154.084-.21a.275.275 0 0 1 .202-.084zm4.543-2.982a1.923 1.923 0 0 0-1.353-.529c-.347 0-.658.079-.932.235a1.655 1.655 0 0 0-.643.66 1.978 1.978 0 0 0-.23.962c0 .364.076.688.23.974.154.286.369.507.643.664.274.156.585.235.932.235.292 0 .56-.053.807-.16.246-.106.453-.257.621-.453l.21.226a1.96 1.96 0 0 1-.718.53 2.299 2.299 0 0 1-.928.184 2.16 2.16 0 0 1-1.1-.281 2.01 2.01 0 0 1-.765-.781 2.29 2.29 0 0 1-.277-1.13c0-.42.092-.798.277-1.134.185-.336.44-.598.765-.785a2.16 2.16 0 0 1 1.1-.282c.314 0 .603.053.87.16.265.106.496.257.692.453l-.201.252zm2.989-.865a2.2 2.2 0 0 1 1.113.282 2 2 0 0 1 .768.78c.185.334.278.71.278 1.13 0 .426-.093.806-.278 1.139a2.002 2.002 0 0 1-.768.781 2.2 2.2 0 0 1-1.113.281 2.18 2.18 0 0 1-1.105-.281 2.031 2.031 0 0 1-.773-.781 2.28 2.28 0 0 1-.281-1.138c0-.42.094-.797.281-1.13.188-.333.446-.594.773-.781a2.183 2.183 0 0 1 1.105-.282zm0 .336c-.347 0-.658.079-.933.235a1.68 1.68 0 0 0-.646.66 1.95 1.95 0 0 0-.236.962c0 .364.079.688.236.974.156.286.372.507.646.664.275.156.586.235.933.235.347 0 .66-.079.936-.235a1.64 1.64 0 0 0 .647-.664 2.02 2.02 0 0 0 .231-.974c0-.359-.077-.68-.23-.962a1.647 1.647 0 0 0-.648-.66 1.869 1.869 0 0 0-.936-.235zm8.818-.336c.521 0 .929.151 1.223.454.294.302.44.722.44 1.26V133h-.344v-2.604c0-.448-.123-.798-.37-1.05-.246-.252-.59-.378-1.033-.378-.52.011-.928.185-1.222.52-.294.337-.44.793-.44 1.37V133h-.345v-2.604c0-.448-.125-.798-.374-1.05-.25-.252-.592-.378-1.029-.378-.52.011-.93.186-1.226.525-.297.339-.446.794-.446 1.365V133h-.344v-4.376h.344v1.15c.14-.375.36-.659.66-.852.3-.193.668-.296 1.104-.307.437 0 .796.11 1.076.332.28.221.459.533.537.937.135-.41.354-.72.66-.933.305-.213.681-.325 1.13-.336z"/><rect width="60" height="22.8" x="182.4" y="60.6" fill="#FFF" fill-rule="nonzero" rx="2.4"/><g fill-rule="nonzero" transform="translate(182 119)"><rect width="60" height="22.8" fill="url(#c)" rx="2.4"/><path fill="#FFF" d="M23.738 9.856a3.648 3.648 0 0 0-.795-.367 2.402 2.402 0 0 0-.717-.13c-.23 0-.412.043-.547.13a.406.406 0 0 0-.201.36c0 .139.046.255.14.349.094.094.211.17.353.23.141.06.335.126.58.198.34.101.62.202.838.303.219.1.405.25.558.446.154.197.23.456.23.778 0 .307-.082.575-.248.803a1.556 1.556 0 0 1-.684.522c-.29.12-.623.18-.997.18-.394 0-.778-.074-1.152-.22a3.271 3.271 0 0 1-.98-.587l.404-.82c.254.235.54.42.857.554.317.134.612.201.885.201.27 0 .48-.051.634-.154a.483.483 0 0 0 .23-.422.483.483 0 0 0-.14-.356 1.045 1.045 0 0 0-.356-.227 6.553 6.553 0 0 0-.59-.194c-.342-.101-.62-.2-.836-.295a1.45 1.45 0 0 1-.554-.436c-.154-.194-.23-.45-.23-.767 0-.293.077-.548.233-.767.156-.218.377-.387.663-.507.285-.12.615-.18.99-.18.326 0 .649.048.968.144.32.096.604.225.853.389l-.389.842zm1.245-1.296h3.693v.842h-2.728v1.246h2.448v.842h-2.448v1.268h2.815v.842h-3.78V8.56zm8.163 0h.936v5.04h-.914l-2.592-3.47v3.47h-.943V8.56h.914l2.6 3.478V8.56zm4.16 0c.505 0 .956.107 1.354.32.399.214.71.513.936.897.226.384.339.818.339 1.303s-.114.918-.342 1.3a2.4 2.4 0 0 1-.947.896 2.866 2.866 0 0 1-1.375.324h-2.06V8.56h2.096zm.022 4.19c.308 0 .585-.07.832-.212s.44-.338.58-.59a1.75 1.75 0 0 0 .208-.86c0-.322-.072-.612-.216-.868a1.53 1.53 0 0 0-.594-.598 1.697 1.697 0 0 0-.846-.212h-1.116v3.34h1.152z"/></g><g opacity=".5" transform="translate(182 61)"><rect width="60" height="22.8" fill="url(#c)" fill-rule="nonzero" rx="2.4"/><text fill="#FFF" font-family="Montserrat-Medium, Montserrat" font-size="7.2" font-weight="400" letter-spacing="-.109"><tspan x="20.084" y="13.6">COPY</tspan></text></g><g transform="translate(18 148.2)"><rect width="9" height="9" x=".3" y=".3" fill-rule="nonzero" stroke="#7A7591" stroke-width=".6" rx="1.2"/><path fill="#2C0549" d="M7.288 1.806L3.695 5.513l-1.397-1.44L1.2 5.205 3.695 7.78l4.692-4.84z"/></g><path fill="#000" fill-rule="nonzero" d="M33.726 150.187h.455v4.613h-.455v-4.613zm3.537 1.141c.413 0 .738.12.973.36s.353.569.353.987v2.125h-.449v-2.02c0-.325-.09-.58-.27-.765-.18-.185-.431-.277-.753-.277-.356.004-.641.114-.854.33-.214.215-.336.506-.367.87v1.862h-.442v-3.458h.442v.805c.12-.269.294-.471.525-.607.231-.137.511-.207.842-.212zm4.816.799a1.432 1.432 0 0 0-1.036-.41c-.246 0-.468.058-.666.172a1.194 1.194 0 0 0-.462.479c-.11.205-.165.439-.165.703 0 .264.055.5.165.706.11.207.264.367.462.482.198.114.42.171.666.171.225 0 .43-.04.617-.118.187-.08.345-.194.472-.344l.251.264a1.542 1.542 0 0 1-.58.43 1.936 1.936 0 0 1-.78.151 1.76 1.76 0 0 1-.884-.22 1.577 1.577 0 0 1-.61-.621 1.828 1.828 0 0 1-.222-.901c0-.335.074-.635.221-.901.148-.266.351-.473.611-.62a1.76 1.76 0 0 1 .884-.222c.269 0 .514.044.736.132.223.088.413.212.571.37l-.25.297zm1.227-2.224h.442v4.897h-.442v-4.897zm4.639 1.439v3.458h-.45v-.825c-.114.273-.284.48-.51.62a1.566 1.566 0 0 1-.822.218c-.41 0-.73-.12-.96-.36-.232-.24-.347-.568-.347-.986v-2.125h.449v2.02c0 .325.089.579.267.762.178.182.423.273.736.273.37-.004.66-.13.871-.38.211-.248.317-.574.317-.98v-1.695h.449zm4.335-1.44v4.898h-.442v-.792a1.46 1.46 0 0 1-.555.604 1.581 1.581 0 0 1-.831.214 1.69 1.69 0 0 1-.872-.224 1.54 1.54 0 0 1-.594-.627 1.93 1.93 0 0 1-.21-.91c0-.34.07-.641.214-.905a1.58 1.58 0 0 1 .594-.62c.253-.15.54-.225.86-.225.318 0 .596.073.836.218.24.145.425.348.558.607v-2.237h.442zm-1.75 4.542c.252 0 .476-.059.674-.175a1.24 1.24 0 0 0 .465-.485c.112-.207.169-.443.169-.707 0-.264-.057-.5-.169-.71a1.252 1.252 0 0 0-1.138-.669c-.251 0-.475.06-.673.178a1.276 1.276 0 0 0-.47.492 1.453 1.453 0 0 0-.17.71c0 .263.055.499.168.706.112.206.268.368.468.485.2.116.426.175.677.175zm4.323-3.116c.536 0 .946.17 1.227.512.282.34.412.8.39 1.376h-2.885c.031.37.168.668.41.894.242.227.54.34.897.34.22 0 .425-.04.614-.119.19-.079.352-.191.488-.336l.251.25c-.167.181-.368.32-.604.42a1.98 1.98 0 0 1-.775.148c-.335 0-.632-.073-.891-.22a1.583 1.583 0 0 1-.61-.618 1.823 1.823 0 0 1-.222-.904c0-.335.074-.635.221-.901.148-.266.351-.473.61-.62.26-.148.553-.222.879-.222zm1.22 1.545c-.021-.361-.141-.648-.36-.861-.217-.214-.502-.32-.854-.32-.347 0-.638.107-.871.323-.233.215-.367.501-.403.858h2.489zm4.321-1.545c.335 0 .634.074.898.221.264.148.47.354.62.618.15.264.225.563.225.897 0 .339-.075.641-.225.908-.15.266-.356.473-.62.62a1.81 1.81 0 0 1-.898.221 1.81 1.81 0 0 1-.897-.22 1.587 1.587 0 0 1-.62-.621 1.82 1.82 0 0 1-.225-.908c0-.334.075-.633.224-.897.15-.264.357-.47.62-.618a1.81 1.81 0 0 1 .898-.22zm0 .383c-.25 0-.475.057-.673.172a1.189 1.189 0 0 0-.462.482 1.48 1.48 0 0 0-.165.706c0 .268.055.506.165.713.11.206.264.367.462.481.198.115.423.172.673.172.251 0 .476-.057.674-.172a1.19 1.19 0 0 0 .462-.481c.11-.207.165-.445.165-.713 0-.264-.055-.5-.165-.706a1.189 1.189 0 0 0-.462-.482 1.321 1.321 0 0 0-.674-.172zm3.022.436c.115-.264.278-.465.492-.604.213-.139.47-.21.769-.215v.416c-.366-.004-.66.102-.881.32-.223.218-.35.514-.38.888v1.848h-.442v-3.458h.442v.805zm1.873-.805h.443v3.458h-.443v-3.458zm.225-1.307c.088 0 .16.03.218.089.057.06.085.133.085.221s-.03.163-.089.224a.287.287 0 0 1-.214.093.311.311 0 0 1-.31-.317.3.3 0 0 1 .089-.221.3.3 0 0 1 .22-.09zm4.394 1.307v3.095c0 .334-.07.627-.21.878-.142.25-.343.443-.605.577a1.962 1.962 0 0 1-.907.202c-.51 0-.984-.176-1.42-.528l.212-.317c.176.154.36.27.554.35.194.079.405.118.634.118.396 0 .712-.115.947-.346.235-.231.353-.54.353-.927v-.561a1.37 1.37 0 0 1-.528.567 1.517 1.517 0 0 1-.792.205c-.308 0-.582-.072-.822-.215a1.49 1.49 0 0 1-.56-.594 1.81 1.81 0 0 1-.202-.861c0-.321.067-.607.201-.858.135-.25.323-.447.565-.587a1.61 1.61 0 0 1 .825-.212c.299 0 .56.067.785.202.225.134.4.324.528.57v-.758h.442zm-1.683 2.956c.238 0 .451-.056.64-.168a1.17 1.17 0 0 0 .443-.465 1.4 1.4 0 0 0 .158-.667c0-.25-.053-.475-.158-.673a1.17 1.17 0 0 0-.442-.465 1.231 1.231 0 0 0-.64-.169 1.22 1.22 0 0 0-.64.169c-.19.112-.339.267-.446.465a1.385 1.385 0 0 0-.162.673c0 .251.054.474.162.67a1.198 1.198 0 0 0 1.085.63zm2.784-2.956h.443v3.458h-.443v-3.458zm.225-1.307c.088 0 .16.03.218.089.057.06.085.133.085.221s-.03.163-.089.224a.287.287 0 0 1-.214.093.311.311 0 0 1-.31-.317.3.3 0 0 1 .089-.221.3.3 0 0 1 .22-.09zm3.213 1.293c.414 0 .738.12.973.36.236.24.354.569.354.987v2.125h-.45v-2.02c0-.325-.09-.58-.27-.765-.18-.185-.431-.277-.752-.277-.357.004-.642.114-.855.33-.213.215-.335.506-.366.87v1.862h-.442v-3.458h.442v.805a1.28 1.28 0 0 1 .524-.607c.231-.137.512-.207.842-.212zm4.58 3.472l-.007-.58a1.254 1.254 0 0 1-.535.451c-.22.1-.473.149-.759.149a1.35 1.35 0 0 1-.617-.135 1 1 0 0 1-.413-.373 1.005 1.005 0 0 1-.145-.535c0-.3.116-.535.347-.706.23-.172.549-.258.953-.258h1.162v-.264c0-.272-.081-.484-.244-.633-.163-.15-.4-.225-.713-.225-.37 0-.741.139-1.115.416l-.198-.303c.233-.163.455-.283.666-.36a2.11 2.11 0 0 1 .726-.116c.418 0 .742.105.97.314.23.209.346.498.35.868l.007 2.29h-.436zm-1.222-.35c.308 0 .569-.071.782-.214.214-.143.358-.345.433-.604v-.475h-1.116c-.303 0-.534.05-.693.151a.505.505 0 0 0-.237.456c0 .207.075.373.227.498.152.126.353.188.604.188zm2.771-4.547h.442v4.897h-.442v-4.897zm3.377 4.35c.084 0 .154.028.211.085a.287.287 0 0 1 .086.211.298.298 0 0 1-.086.215.282.282 0 0 1-.21.089.276.276 0 0 1-.209-.086.301.301 0 0 1-.082-.218c0-.083.027-.154.082-.211a.276.276 0 0 1 .208-.086zm.784-2.911h.515l.964 1.372.97-1.372h.495l-1.175 1.676 1.26 1.782h-.52l-1.037-1.478-1.062 1.478h-.502l1.274-1.782-1.182-1.676zm3.781-1.44h.442v4.898h-.442v-4.897zm3.457 2.053a1.676 1.676 0 0 0-.442-.194 1.759 1.759 0 0 0-.482-.07c-.22 0-.397.043-.53.13a.428.428 0 0 0-.202.385.4.4 0 0 0 .109.29.824.824 0 0 0 .27.182c.108.046.259.098.452.155.238.07.432.14.581.208.15.068.277.167.383.297.106.13.158.3.158.512 0 .312-.118.55-.356.716-.238.165-.535.247-.891.247-.25 0-.493-.042-.726-.125a1.607 1.607 0 0 1-.587-.357l.178-.316c.15.136.326.244.531.323.205.08.413.119.624.119.233 0 .423-.049.57-.145a.474.474 0 0 0 .222-.423.445.445 0 0 0-.112-.313.775.775 0 0 0-.28-.192 5.84 5.84 0 0 0-.466-.161 4.674 4.674 0 0 1-.568-.205 1.002 1.002 0 0 1-.37-.287.759.759 0 0 1-.151-.492c0-.303.113-.532.34-.686.226-.154.509-.231.848-.231.198 0 .39.026.574.079.185.053.35.125.495.218l-.172.336zm5.76-.613v3.458h-.449v-.825a1.29 1.29 0 0 1-.511.62c-.227.141-.5.214-.822.218-.41 0-.73-.12-.96-.36-.231-.24-.347-.568-.347-.986v-2.125h.449v2.02c0 .325.09.579.267.762.179.182.424.273.736.273.37-.004.66-.13.871-.38.212-.248.317-.574.317-.98v-1.695h.449zm3.042-.014c.32 0 .608.074.86.221.254.148.45.355.592.62.14.267.21.57.21.908 0 .335-.07.634-.21.898a1.54 1.54 0 0 1-.588.617c-.25.148-.537.221-.858.221-.317 0-.594-.071-.831-.214a1.469 1.469 0 0 1-.555-.598v2.08h-.442v-4.74h.442v.8c.128-.256.311-.455.551-.598.24-.143.516-.215.829-.215zm-.08 3.102c.247 0 .469-.058.667-.174.198-.117.352-.279.462-.486a1.48 1.48 0 0 0 .165-.706c0-.26-.055-.493-.165-.7a1.211 1.211 0 0 0-.462-.484 1.289 1.289 0 0 0-.667-.175c-.25 0-.474.058-.67.174a1.25 1.25 0 0 0-.462.486c-.112.206-.168.44-.168.7 0 .263.055.499.165.705.11.207.264.369.462.486.198.116.422.174.673.174zm2.613-4.527h.442v4.897h-.442v-4.897zm3.055 1.425c.334 0 .633.074.897.221.264.148.47.354.62.618.15.264.225.563.225.897 0 .339-.075.641-.224.908-.15.266-.357.473-.62.62a1.81 1.81 0 0 1-.898.221 1.81 1.81 0 0 1-.898-.22 1.587 1.587 0 0 1-.62-.621 1.82 1.82 0 0 1-.225-.908c0-.334.075-.633.225-.897.15-.264.356-.47.62-.618a1.81 1.81 0 0 1 .898-.22zm0 .383c-.251 0-.476.057-.674.172a1.189 1.189 0 0 0-.462.482 1.48 1.48 0 0 0-.165.706c0 .268.055.506.165.713.11.206.264.367.462.481.198.115.423.172.674.172.25 0 .475-.057.673-.172a1.19 1.19 0 0 0 .462-.481c.11-.207.165-.445.165-.713 0-.264-.055-.5-.165-.706a1.189 1.189 0 0 0-.462-.482 1.321 1.321 0 0 0-.673-.172zm4.75 3.089l-.006-.58a1.254 1.254 0 0 1-.535.451c-.22.1-.473.149-.759.149a1.35 1.35 0 0 1-.617-.135 1 1 0 0 1-.412-.373 1.005 1.005 0 0 1-.146-.535c0-.3.116-.535.347-.706.23-.172.549-.258.954-.258h1.161v-.264c0-.272-.081-.484-.244-.633-.163-.15-.4-.225-.713-.225-.37 0-.741.139-1.115.416l-.198-.303c.233-.163.455-.283.666-.36.212-.077.454-.116.726-.116.418 0 .742.105.97.314.23.209.346.498.35.868l.007 2.29h-.436zm-1.22-.35c.307 0 .568-.071.782-.214.213-.143.357-.345.432-.604v-.475h-1.116c-.303 0-.534.05-.693.151a.505.505 0 0 0-.237.456c0 .207.076.373.228.498.151.126.353.188.603.188zm5.886-4.547v4.897h-.443v-.792a1.46 1.46 0 0 1-.554.604 1.581 1.581 0 0 1-.832.214 1.69 1.69 0 0 1-.87-.224 1.54 1.54 0 0 1-.595-.627 1.93 1.93 0 0 1-.211-.91c0-.34.071-.641.214-.905a1.58 1.58 0 0 1 .594-.62c.253-.15.54-.225.862-.225.317 0 .595.073.835.218.24.145.425.348.557.607v-2.237h.443zm-1.75 4.54c.251 0 .476-.058.674-.174a1.24 1.24 0 0 0 .465-.485c.112-.207.168-.443.168-.707 0-.264-.056-.5-.168-.71a1.252 1.252 0 0 0-1.138-.669c-.251 0-.476.06-.674.178a1.276 1.276 0 0 0-.468.492 1.453 1.453 0 0 0-.172.71c0 .263.056.499.168.706.113.206.269.368.469.485.2.116.426.175.677.175zm4.322-3.115c.537 0 .946.17 1.228.512.282.34.411.8.39 1.376h-2.885c.031.37.167.668.41.894.241.227.54.34.897.34.22 0 .425-.04.614-.119.189-.079.352-.191.488-.336l.251.25c-.167.181-.368.32-.604.42a1.98 1.98 0 0 1-.775.148c-.335 0-.632-.073-.891-.22a1.583 1.583 0 0 1-.61-.618 1.823 1.823 0 0 1-.222-.904c0-.335.074-.635.221-.901.148-.266.351-.473.61-.62.26-.148.553-.222.878-.222zm1.221 1.545c-.022-.361-.141-.648-.36-.861-.217-.214-.502-.32-.854-.32a1.23 1.23 0 0 0-.871.323c-.233.215-.368.501-.403.858h2.488zm4.369-2.97v4.897h-.443v-.792a1.46 1.46 0 0 1-.554.604 1.581 1.581 0 0 1-.832.214 1.69 1.69 0 0 1-.87-.224 1.54 1.54 0 0 1-.595-.627 1.93 1.93 0 0 1-.211-.91c0-.34.071-.641.214-.905a1.58 1.58 0 0 1 .594-.62c.253-.15.54-.225.862-.225.317 0 .595.073.835.218.24.145.425.348.557.607v-2.237h.443zm-1.75 4.54c.251 0 .476-.058.674-.174a1.24 1.24 0 0 0 .465-.485c.112-.207.168-.443.168-.707 0-.264-.056-.5-.168-.71a1.252 1.252 0 0 0-1.138-.669c-.251 0-.476.06-.674.178a1.276 1.276 0 0 0-.468.492 1.453 1.453 0 0 0-.172.71c0 .263.056.499.168.706.113.206.269.368.469.485.2.116.426.175.677.175zm5.879-4.197a.626.626 0 0 0-.465.191.694.694 0 0 0-.188.509v.488h1.016v.35h-1.016v3.016h-.443v-3.016h-.442v-.35h.442v-.436c0-.228.049-.43.146-.603.096-.174.226-.307.389-.4.163-.092.339-.138.528-.138.216 0 .418.052.607.158l-.112.356a.987.987 0 0 0-.462-.125zm.957 1.096h.442v3.458h-.442v-3.458zm.224-1.307c.088 0 .16.03.218.089.057.06.086.133.086.221s-.03.163-.09.224a.287.287 0 0 1-.214.093.311.311 0 0 1-.31-.317.3.3 0 0 1 .09-.221.3.3 0 0 1 .22-.09zm1.438-.132h.442v4.897h-.442v-4.897zm3.015 1.425c.537 0 .946.17 1.228.512.281.34.411.8.39 1.376h-2.885c.03.37.167.668.41.894.241.227.54.34.897.34.22 0 .424-.04.614-.119.189-.079.351-.191.488-.336l.25.25c-.167.181-.368.32-.603.42a1.98 1.98 0 0 1-.776.148c-.334 0-.631-.073-.89-.22a1.583 1.583 0 0 1-.611-.618 1.823 1.823 0 0 1-.221-.904c0-.335.073-.635.22-.901.148-.266.352-.473.611-.62.26-.148.552-.222.878-.222zm1.221 1.545c-.022-.361-.142-.648-.36-.861-.217-.214-.502-.32-.854-.32a1.23 1.23 0 0 0-.871.323c-.234.215-.368.501-.403.858h2.488zm5.106 1.927l-.006-.58a1.254 1.254 0 0 1-.535.451c-.22.1-.473.149-.759.149a1.35 1.35 0 0 1-.617-.135 1 1 0 0 1-.412-.373 1.005 1.005 0 0 1-.146-.535c0-.3.116-.535.347-.706.23-.172.549-.258.954-.258h1.161v-.264c0-.272-.081-.484-.244-.633-.163-.15-.4-.225-.713-.225-.37 0-.741.139-1.115.416l-.198-.303c.233-.163.455-.283.666-.36.212-.077.453-.116.726-.116.418 0 .742.105.97.314.23.209.346.498.35.868l.007 2.29h-.436zm-1.22-.35c.307 0 .568-.071.781-.214.214-.143.358-.345.433-.604v-.475h-1.116c-.303 0-.534.05-.693.151a.505.505 0 0 0-.237.456c0 .207.076.373.227.498.152.126.353.188.604.188zm4.526-2.495a1.676 1.676 0 0 0-.442-.194 1.759 1.759 0 0 0-.482-.07c-.22 0-.397.043-.531.13a.428.428 0 0 0-.202.385.4.4 0 0 0 .11.29.824.824 0 0 0 .27.182c.108.046.258.098.452.155.237.07.431.14.58.208.15.068.278.167.383.297.106.13.159.3.159.512 0 .312-.119.55-.357.716-.237.165-.534.247-.89.247-.251 0-.493-.042-.727-.125a1.607 1.607 0 0 1-.587-.357l.178-.316c.15.136.327.244.532.323.204.08.412.119.623.119.233 0 .424-.049.571-.145a.474.474 0 0 0 .221-.423.445.445 0 0 0-.112-.313.775.775 0 0 0-.28-.192 5.84 5.84 0 0 0-.466-.161 4.674 4.674 0 0 1-.567-.205 1.002 1.002 0 0 1-.37-.287.759.759 0 0 1-.152-.492c0-.303.114-.532.34-.686.227-.154.51-.231.848-.231.198 0 .39.026.574.079.185.053.35.125.495.218l-.171.336zm4.96 2.845l-.006-.58a1.254 1.254 0 0 1-.534.451c-.22.1-.473.149-.76.149-.233 0-.438-.045-.616-.135a1 1 0 0 1-.413-.373 1.005 1.005 0 0 1-.145-.535c0-.3.115-.535.346-.706.231-.172.55-.258.954-.258h1.162v-.264c0-.272-.082-.484-.245-.633-.162-.15-.4-.225-.712-.225-.37 0-.742.139-1.116.416l-.198-.303c.233-.163.456-.283.667-.36a2.11 2.11 0 0 1 .726-.116c.418 0 .741.105.97.314.229.209.345.498.35.868l.006 2.29h-.435zm-1.22-.35c.308 0 .569-.071.782-.214.213-.143.357-.345.432-.604v-.475h-1.115c-.304 0-.535.05-.693.151a.505.505 0 0 0-.238.456c0 .207.076.373.228.498.152.126.353.188.604.188zm4.48.112a1.413 1.413 0 0 1-.765.258c-.264 0-.473-.082-.627-.244-.155-.163-.231-.407-.231-.733v-2.06h-.495l-.007-.342h.502v-.891h.442v.89l1.122-.006v.35h-1.122v1.986c0 .427.158.64.475.64.176 0 .367-.061.574-.184l.132.336zm2.441 0a1.413 1.413 0 0 1-.766.258c-.264 0-.473-.082-.627-.244-.154-.163-.23-.407-.23-.733v-2.06h-.496l-.006-.342h.501v-.891h.443v.89l1.122-.006v.35h-1.122v1.986c0 .427.158.64.475.64.176 0 .367-.061.574-.184l.132.336zm2.87.238l-.007-.58a1.254 1.254 0 0 1-.534.451c-.22.1-.473.149-.76.149a1.35 1.35 0 0 1-.616-.135 1 1 0 0 1-.413-.373 1.005 1.005 0 0 1-.145-.535c0-.3.115-.535.346-.706.231-.172.55-.258.954-.258h1.162v-.264c0-.272-.082-.484-.244-.633-.163-.15-.4-.225-.713-.225-.37 0-.742.139-1.116.416l-.198-.303c.234-.163.456-.283.667-.36a2.11 2.11 0 0 1 .726-.116c.418 0 .741.105.97.314.229.209.346.498.35.868l.007 2.29h-.436zm-1.221-.35c.308 0 .569-.071.782-.214.213-.143.358-.345.432-.604v-.475h-1.115c-.304 0-.535.05-.693.151a.505.505 0 0 0-.238.456c0 .207.076.373.228.498.152.126.353.188.604.188zm5.147-2.323a1.432 1.432 0 0 0-1.036-.41c-.247 0-.469.058-.667.172a1.194 1.194 0 0 0-.462.479c-.11.205-.165.439-.165.703 0 .264.055.5.165.706.11.207.264.367.462.482.198.114.42.171.667.171.224 0 .43-.04.617-.118.187-.08.344-.194.472-.344l.25.264a1.542 1.542 0 0 1-.58.43 1.936 1.936 0 0 1-.78.151 1.76 1.76 0 0 1-.884-.22 1.577 1.577 0 0 1-.61-.621 1.828 1.828 0 0 1-.221-.901c0-.335.073-.635.22-.901.148-.266.352-.473.611-.62a1.76 1.76 0 0 1 .885-.222c.268 0 .513.044.736.132.222.088.412.212.57.37l-.25.297zm3.041-.799c.414 0 .738.12.974.36.235.24.353.569.353.987v2.125h-.449v-2.02c0-.325-.09-.58-.27-.765-.18-.185-.432-.277-.753-.277-.383.004-.683.13-.9.38-.219.248-.327.577-.327.986v1.696h-.443v-4.897h.443v2.257c.233-.546.69-.823 1.372-.832zm6.824 0c.409 0 .728.12.957.357.228.237.343.567.343.99v2.125h-.449v-2.02c0-.33-.09-.586-.267-.768-.179-.183-.424-.274-.736-.274-.37.008-.66.136-.868.382-.21.247-.314.572-.314.977v1.703h-.448v-2.02c0-.33-.09-.586-.268-.768-.178-.183-.423-.274-.736-.274-.37.008-.66.136-.87.382-.212.247-.318.572-.318.977v1.703h-.442v-3.458h.442v.811a1.26 1.26 0 0 1 .512-.613c.227-.137.503-.207.828-.212.33 0 .604.082.822.245.218.162.362.391.432.686.106-.308.276-.539.512-.693.235-.154.524-.233.868-.238zm3.728 0c.536 0 .945.17 1.227.512.282.34.412.8.39 1.376h-2.885c.031.37.167.668.41.894.242.227.54.34.897.34.22 0 .425-.04.614-.119.19-.079.352-.191.488-.336l.251.25c-.167.181-.368.32-.604.42a1.98 1.98 0 0 1-.775.148c-.335 0-.632-.073-.891-.22a1.583 1.583 0 0 1-.61-.618 1.823 1.823 0 0 1-.222-.904c0-.335.074-.635.221-.901.148-.266.351-.473.61-.62.26-.148.553-.222.879-.222zm1.22 1.545c-.021-.361-.141-.648-.36-.861-.217-.214-.502-.32-.854-.32a1.23 1.23 0 0 0-.871.323c-.233.215-.367.501-.403.858h2.489zm3.029-1.545c.413 0 .738.12.973.36.236.24.353.569.353.987v2.125h-.448v-2.02c0-.325-.09-.58-.271-.765-.18-.185-.431-.277-.752-.277-.357.004-.642.114-.855.33-.214.215-.336.506-.366.87v1.862h-.443v-3.458h.443v.805c.118-.269.293-.471.524-.607.231-.137.512-.207.842-.212zm4.15 3.234a1.413 1.413 0 0 1-.765.258c-.264 0-.473-.082-.627-.244-.154-.163-.231-.407-.231-.733v-2.06h-.495l-.007-.342h.502v-.891h.442v.89l1.122-.006v.35h-1.122v1.986c0 .427.158.64.475.64.176 0 .367-.061.574-.184l.132.336z"/></g></svg>