<svg width="142" height="114" viewBox="0 0 142 114" xmlns="http://www.w3.org/2000/svg"><g id="Landing-UI" stroke="none" stroke-width="1" fill="none" fill-rule="evenodd"><g id="Landing-Page-Final" transform="translate(-971 -2165)" fill="#2C0548" fill-rule="nonzero"><g id="Create" transform="translate(592 2150)"><path d="M529.853 48.081l.24.029-.095-.228-.145.199zm-.457.624l-4.295 5.866-.806-.59 5.422-7.407.525-.717.34.82 3.514 8.48-.924.383-2.783-6.716-.158 1.317-.993-.12.158-1.316zM379.081 19.083l.986-.166c.11.659.225 1.314.343 1.967l-.984.178a136.06 136.06 0 0 1-.345-1.98zm.715 3.954l.982-.19c.126.653.257 1.304.391 1.952l-.979.203c-.135-.652-.267-1.307-.394-1.965zm.815 3.929l.976-.216c.144.65.291 1.298.443 1.943l-.974.229c-.152-.65-.3-1.301-.445-1.956zm.917 3.904l.97-.241c.16.645.326 1.287.494 1.927l-.967.255c-.17-.644-.335-1.29-.497-1.94zm1.025 3.887l.963-.269c.179.642.361 1.28.548 1.915l-.96.282c-.187-.64-.371-1.282-.551-1.928zm1.135 3.862l.955-.296c.197.635.397 1.267.602 1.895l-.951.31a138.18 138.18 0 0 1-.606-1.91zm1.237 3.8l.946-.323c.216.63.435 1.256.658 1.878l-.942.337a150.01 150.01 0 0 1-.662-1.891zm1.358 3.788l.936-.352c.235.624.474 1.244.716 1.86l-.93.367c-.245-.622-.485-1.247-.722-1.875zm1.475 3.745l.925-.38c.253.615.51 1.226.772 1.834l-.918.396a126.46 126.46 0 0 1-.779-1.85zm1.588 3.689l.912-.41c.273.606.55 1.21.832 1.808l-.906.425c-.283-.604-.562-1.212-.838-1.823zm1.712 3.644l.898-.44c.293.597.59 1.19.891 1.78l-.89.455c-.304-.594-.604-1.193-.9-1.795zm1.818 3.557l.882-.47c.313.588.63 1.171.952 1.75l-.874.486c-.325-.585-.645-1.173-.96-1.766zm1.952 3.517l.866-.5c.333.577.67 1.149 1.012 1.716l-.856.516c-.345-.573-.686-1.15-1.022-1.732zm2.074 3.444l.847-.53c.353.563.711 1.123 1.073 1.677l-.837.547a97.565 97.565 0 0 1-1.083-1.694zm2.2 3.372l.827-.562c.374.55.751 1.095 1.132 1.634l-.816.577c-.385-.544-.766-1.094-1.143-1.649zm2.327 3.292l.806-.593c.395.536.793 1.068 1.196 1.594l-.794.608a104.81 104.81 0 0 1-1.208-1.61zm2.449 3.196l.781-.624c.414.52.833 1.034 1.255 1.542l-.77.639c-.426-.514-.848-1.033-1.266-1.557zm2.573 3.1l.757-.654a99.74 99.74 0 0 0 1.318 1.495l-.744.669c-.447-.498-.891-1-1.33-1.51zm2.698 2.997l.73-.684c.454.485.913.964 1.375 1.437l-.715.7c-.467-.479-.93-.963-1.39-1.453zm2.82 2.885l.7-.714c.475.465.953.924 1.434 1.377l-.685.728c-.486-.457-.97-.92-1.449-1.39zm2.928 2.753l.67-.743c.493.445.99.883 1.491 1.315l-.653.757a92.967 92.967 0 0 1-1.508-1.329zm3.025 2.61l.637-.772c.513.424 1.029.84 1.548 1.25l-.62.785a90.817 90.817 0 0 1-1.565-1.264zm3.144 2.48l.602-.799c.53.4 1.064.793 1.6 1.178l-.583.812a88.687 88.687 0 0 1-1.62-1.191zm3.273 2.351l.564-.825c.548.375 1.1.742 1.653 1.103l-.545.838a86.555 86.555 0 0 1-1.672-1.116zm3.377 2.197l.525-.851c.565.349 1.133.69 1.704 1.024l-.505.863a84.416 84.416 0 0 1-1.724-1.036zm3.476 2.033l.484-.875c.582.322 1.165.635 1.751.94l-.462.888a82.252 82.252 0 0 1-1.773-.953zm3.576 1.864l.44-.897a81.53 81.53 0 0 0 1.797.852l-.418.91a80.058 80.058 0 0 1-1.819-.865zm3.669 1.685l.394-.919c.61.262 1.223.515 1.837.76l-.37.929a77.81 77.81 0 0 1-1.861-.77zm3.747 1.492l.345-.938c.624.23 1.248.45 1.874.662l-.32.947a75.504 75.504 0 0 1-1.9-.67zm3.823 1.293l.294-.956c.635.196 1.27.382 1.906.559l-.268.963a73.135 73.135 0 0 1-1.932-.566zm3.896 1.083l.241-.97c.645.16 1.29.31 1.934.45l-.213.977a70.695 70.695 0 0 1-1.962-.457zm3.946.86l.185-.983c.652.122 1.305.235 1.957.337l-.156.988a68.203 68.203 0 0 1-1.986-.342zm3.997.627l.126-.992a64.66 64.66 0 0 0 1.973.218l-.095.996a65.663 65.663 0 0 1-2.004-.222zm4.029.383l.063-.998a62.1 62.1 0 0 0 1.982.094l-.032 1a63.1 63.1 0 0 1-2.013-.096zm4.039.126l-.001-1a59.418 59.418 0 0 0 1.983-.036l.034 1c-.67.023-1.341.035-2.016.036zm4.028-.14l-.069-.998c.662-.046 1.32-.103 1.975-.17l.104.994c-.667.07-1.337.127-2.01.173zm4.033-.42l-.136-.99c.662-.091 1.318-.19 1.968-.296l.162.986a77.22 77.22 0 0 1-1.994.3zm3.968-.65l-.188-.982a71.557 71.557 0 0 0 1.943-.4l.215.976c-.65.144-1.307.279-1.97.406zm3.938-.869l-.243-.97a67.546 67.546 0 0 0 1.916-.51l.271.962c-.642.181-1.29.354-1.944.518zm3.89-1.098l-.3-.954c.634-.2 1.261-.409 1.883-.626l.33.944a65.22 65.22 0 0 1-1.913.636zm3.798-1.328l-.36-.934c.62-.238 1.234-.486 1.84-.742l.39.92c-.617.261-1.24.513-1.87.756zm3.721-1.574l-.419-.908a59.65 59.65 0 0 0 1.785-.861l.45.893c-.598.301-1.203.593-1.816.876zm3.62-1.822l-.48-.878a58.394 58.394 0 0 0 1.724-.98l.509.861c-.577.341-1.162.674-1.753.997zm3.47-2.052l-.538-.843c.558-.357 1.11-.722 1.654-1.096l.567.823c-.554.381-1.115.753-1.683 1.116zm3.315-2.28l-.595-.804a57.922 57.922 0 0 0 1.574-1.206l.622.783a58.92 58.92 0 0 1-1.601 1.227zm3.166-2.513l-.648-.762c.504-.428 1-.865 1.489-1.31l.673.739c-.497.453-1.001.897-1.514 1.333zm2.988-2.722l-.698-.716c.474-.462.94-.931 1.398-1.409l.722.693c-.466.485-.94.963-1.422 1.432zm2.805-2.92l-.744-.67c.443-.49.877-.99 1.304-1.496l.764.644a62.861 62.861 0 0 1-1.324 1.521zm2.61-3.097l-.785-.62a64.21 64.21 0 0 0 1.205-1.575l.803.595c-.4.54-.808 1.074-1.224 1.6zm2.398-3.237l-.82-.571a71.72 71.72 0 0 0 1.108-1.647l.837.546a67.92 67.92 0 0 1-1.125 1.672zm2.195-3.366l-.853-.521c.345-.565.682-1.135 1.012-1.71l.867.497a70.857 70.857 0 0 1-1.026 1.734zm2.008-3.504l-.881-.473c.313-.583.618-1.17.915-1.762l.893.448c-.3.6-.61 1.196-.927 1.787zm1.8-3.584l-.906-.425c.282-.6.555-1.203.82-1.81l.916.4a76.632 76.632 0 0 1-.83 1.835zm1.616-3.696l-.926-.377c.25-.615.492-1.232.725-1.85l.936.352a78.838 78.838 0 0 1-.735 1.875zm1.425-3.777l-.944-.33c.219-.627.429-1.256.63-1.884l.953.305a79.878 79.878 0 0 1-.639 1.909zm1.227-3.828l-.96-.28c.188-.641.366-1.28.535-1.915l.966.256c-.17.644-.351 1.29-.541 1.94zm1.035-3.9l-.973-.232c.155-.653.3-1.3.433-1.939l.978.205a74.057 74.057 0 0 1-.438 1.965zm.786-3.993l-.993-.12.238-1.985.993.12-.238 1.985z" id="Path-3-Copy" transform="rotate(-165 456.588 64.7)"/></g></g></g></svg>