<svg xmlns="http://www.w3.org/2000/svg" xmlns:xlink="http://www.w3.org/1999/xlink" width="433" height="506" viewBox="0 0 433 506"><defs><path id="b" d="M10.233 65.766C7.712 58.159 0 55.132 0 44.08c0-11.634 8.26-16.046 10.233-24.525v-6.96C10.233 5.638 15.872 0 22.827 0c6.956 0 12.595 5.639 12.595 12.594v61.398c0 6.956-5.639 12.594-12.595 12.594-6.955 0-12.594-5.638-12.594-12.594v-8.226z"/><filter id="a" width="258.1%" height="164.7%" x="-79%" y="-26.6%" filterUnits="objectBoundingBox"><feOffset dy="5" in="SourceAlpha" result="shadowOffsetOuter1"/><feGaussianBlur in="shadowOffsetOuter1" result="shadowBlurOuter1" stdDeviation="8.5"/><feColorMatrix in="shadowBlurOuter1" values="0 0 0 0 0.0352941176 0 0 0 0 0 0 0 0 0 0.37254902 0 0 0 0.11 0"/></filter><path id="d" d="M10.233 65.766C7.712 58.159 0 55.132 0 44.08c0-11.634 8.26-16.046 10.233-24.525v-6.96C10.233 5.638 15.872 0 22.827 0c6.956 0 12.595 5.639 12.595 12.594v61.398c0 6.956-5.639 12.594-12.595 12.594-6.955 0-12.594-5.638-12.594-12.594v-8.226z"/><filter id="c" width="258.1%" height="164.7%" x="-79%" y="-26.6%" filterUnits="objectBoundingBox"><feOffset dy="5" in="SourceAlpha" result="shadowOffsetOuter1"/><feGaussianBlur in="shadowOffsetOuter1" result="shadowBlurOuter1" stdDeviation="8.5"/><feColorMatrix in="shadowBlurOuter1" values="0 0 0 0 0.0352941176 0 0 0 0 0 0 0 0 0 0.37254902 0 0 0 0.11 0"/></filter><path id="e" d="M23 .404V0h301v393H23V78.596c-6.4-1.54-11.156-7.301-11.156-14.174v-2.736C8.926 54.55 0 51.712 0 41.346c0-10.913 9.562-15.051 11.844-23.004v-3.764C11.844 7.705 16.6 1.944 23 .404z"/><filter id="f" width="163%" height="151.9%" x="-28.4%" y="-17.6%" filterUnits="objectBoundingBox"><feOffset dx="10" dy="33" in="SourceAlpha" result="shadowOffsetOuter1"/><feGaussianBlur in="shadowOffsetOuter1" result="shadowBlurOuter1" stdDeviation="28.5"/><feColorMatrix in="shadowBlurOuter1" values="0 0 0 0 0.0341434022 0 0 0 0 0 0 0 0 0 0.372289541 0 0 0 0.0823143116 0"/></filter><path id="h" d="M0 0h242.442v31.265H0z"/><filter id="g" width="116.9%" height="231.1%" x="-8.5%" y="-49.6%" filterUnits="objectBoundingBox"><feOffset dy="5" in="SourceAlpha" result="shadowOffsetOuter1"/><feGaussianBlur in="shadowOffsetOuter1" result="shadowBlurOuter1" stdDeviation="6"/><feColorMatrix in="shadowBlurOuter1" values="0 0 0 0 0.0248134718 0 0 0 0 0 0 0 0 0 0.324670493 0 0 0 0.137284873 0"/></filter></defs><g fill="none" fill-rule="evenodd"><g fill-rule="nonzero"><path fill="#FFF" d="M53.233 218.627C50.712 211.021 43 207.993 43 196.942c0-11.635 8.26-16.047 10.233-24.525v-6.961c0-6.956 5.639-12.595 12.594-12.595 6.956 0 12.595 5.639 12.595 12.595v71.63c0 6.956-5.639 12.595-12.595 12.595-6.955 0-12.594-5.64-12.594-12.595v-18.459z"/><path fill="#A7A1C3" d="M53.565 196.058h2.22v1.605h-2.22v2.51h-1.691v-2.51h-2.226v-1.605h2.226v-2.404h1.691z"/></g><g fill-rule="nonzero"><g transform="translate(43 108.861)"><use fill="#000" filter="url(#a)" xlink:href="#b"/><use fill="#FFF" xlink:href="#b"/></g><path fill="#A7A1C3" d="M51.412 152.038h.829c.394 0 .687-.098.877-.296.19-.197.285-.459.285-.785 0-.316-.094-.562-.283-.737-.188-.176-.447-.264-.777-.264-.298 0-.547.082-.748.245a.783.783 0 0 0-.301.637h-1.556c0-.409.11-.775.331-1.1.221-.325.53-.578.926-.761a3.089 3.089 0 0 1 1.31-.275c.829 0 1.478.198 1.948.595.47.396.705.942.705 1.638 0 .359-.11.689-.328.99a2.132 2.132 0 0 1-.861.694c.441.158.77.395.987.71.217.316.326.69.326 1.12 0 .696-.254 1.254-.762 1.673-.507.42-1.18.63-2.015.63-.782 0-1.421-.206-1.918-.619-.497-.412-.745-.958-.745-1.636h1.555a.9.9 0 0 0 .33.721c.221.187.493.28.816.28.37 0 .659-.097.869-.293.21-.196.315-.455.315-.778 0-.782-.43-1.173-1.292-1.173h-.823v-1.216z"/></g><g fill-rule="nonzero"><g transform="translate(43 62.861)"><use fill="#000" filter="url(#c)" xlink:href="#d"/><use fill="#FFF" xlink:href="#d"/></g><path fill="#A7A1C3" d="M55.2 110.644h-5.37v-1.065l2.534-2.701c.348-.38.606-.712.772-.996.167-.283.25-.552.25-.807 0-.348-.087-.621-.263-.82-.176-.2-.427-.3-.753-.3-.352 0-.629.122-.832.364-.202.242-.304.56-.304.955h-1.56c0-.477.114-.913.342-1.307.227-.395.55-.704.965-.929a2.936 2.936 0 0 1 1.416-.336c.807 0 1.434.194 1.88.581.447.388.67.935.67 1.641 0 .388-.1.783-.301 1.184-.201.402-.545.87-1.033 1.405l-1.781 1.878H55.2v1.253z"/></g><g fill-rule="nonzero" transform="translate(43 23.861)"><use fill="#000" filter="url(#f)" xlink:href="#e"/><use fill="#FFF" xlink:href="#e"/></g><path fill="#2C0549" fill-rule="nonzero" d="M53.607 69.283h-1.555v-5.994l-1.856.575V62.6l3.244-1.162h.167z"/><g fill-rule="nonzero"><path fill="#2C0549" d="M99.647 109a5.071 5.071 0 0 0-1.278-.585 4.32 4.32 0 0 0-1.215-.195c-.512 0-.922.098-1.228.296-.307.197-.46.468-.46.812 0 .31.093.565.277.762.185.197.412.352.68.466.269.113.643.245 1.121.397a12.65 12.65 0 0 1 1.449.529c.369.167.684.417.944.749.26.332.39.77.39 1.316 0 .504-.136.945-.409 1.322-.273.378-.655.67-1.146.876-.491.205-1.056.308-1.694.308a4.926 4.926 0 0 1-1.889-.378 5.123 5.123 0 0 1-1.587-1.007l.542-1.045c.42.411.892.728 1.417.95a3.907 3.907 0 0 0 1.53.334c.588 0 1.051-.115 1.392-.346.34-.231.51-.544.51-.938 0-.311-.093-.567-.277-.769a1.953 1.953 0 0 0-.7-.478 11.893 11.893 0 0 0-1.14-.39 11.65 11.65 0 0 1-1.435-.517 2.48 2.48 0 0 1-.938-.743c-.256-.328-.384-.76-.384-1.297 0-.47.13-.886.39-1.247.26-.361.625-.638 1.096-.831.47-.194 1.016-.29 1.637-.29a5.29 5.29 0 0 1 1.555.233c.508.155.96.363 1.354.623L99.647 109zm2.303.315h1.171v6.663h-1.17v-6.663zm.58-2.657c.21 0 .384.071.522.214a.746.746 0 0 1 .208.542c0 .218-.07.398-.208.541a.698.698 0 0 1-.523.214.698.698 0 0 1-.522-.214.746.746 0 0 1-.208-.541c0-.219.07-.4.208-.542a.698.698 0 0 1 .522-.214zm11.282 2.62c.764 0 1.364.23 1.801.692.437.462.655 1.092.655 1.89v4.118h-1.184v-3.804c0-.562-.153-1.003-.46-1.322-.306-.32-.728-.479-1.265-.479-.63.017-1.126.24-1.487.668-.36.428-.541.978-.541 1.65v3.287h-1.184v-3.804c0-.562-.151-1.003-.453-1.322-.303-.32-.727-.479-1.272-.479-.63.017-1.128.24-1.493.668-.365.428-.548.978-.548 1.65v3.287h-1.171v-6.663h1.171v1.398c.437-.94 1.264-1.419 2.481-1.435.613 0 1.123.146 1.53.44.408.294.683.706.826 1.235.41-1.1 1.276-1.659 2.594-1.675zm10.25.037v6.663h-1.184v-1.41c-.437.948-1.26 1.43-2.469 1.448-.772 0-1.377-.23-1.813-.687-.437-.457-.655-1.09-.655-1.895v-4.119h1.184v3.804c0 .562.153 1.001.46 1.316.306.315.728.472 1.265.472.621-.008 1.115-.229 1.48-.661.365-.432.548-.984.548-1.656v-3.275h1.184zm2.151-2.682h1.172v9.345h-1.172v-9.345zm7.404 9.345v-.932c-.496.655-1.272.982-2.33.982-.462 0-.867-.088-1.216-.264a1.947 1.947 0 0 1-.806-.73 1.972 1.972 0 0 1-.283-1.046c0-.596.22-1.069.661-1.417.44-.349 1.056-.527 1.845-.535h2.116v-.315c0-.47-.145-.834-.434-1.09-.29-.256-.712-.384-1.266-.384-.672 0-1.356.24-2.053.718l-.491-.806c.478-.31.921-.535 1.328-.674.408-.138.893-.207 1.455-.207.831 0 1.474.203 1.927.61.453.408.684.976.693 1.707l.012 4.383h-1.158zm-2.091-.92c.546 0 1.01-.132 1.392-.396.382-.265.61-.615.686-1.052v-.668h-1.952c-.53 0-.922.08-1.178.24-.256.16-.384.411-.384.755 0 .345.13.618.39.82.26.2.61.301 1.046.301zm8.726.479c-.512.327-1.033.491-1.562.491-.529 0-.957-.157-1.285-.472-.327-.315-.49-.792-.49-1.43v-3.69h-.945v-.894h.944v-1.788h1.184v1.788h2.04v.894h-2.04v3.476c0 .37.067.634.202.794.134.16.335.239.604.239.32 0 .663-.105 1.033-.315l.315.907zm1.232-6.222h1.171v6.663h-1.171v-6.663zm.58-2.657c.21 0 .383.071.522.214a.746.746 0 0 1 .208.542c0 .218-.07.398-.208.541a.698.698 0 0 1-.523.214.698.698 0 0 1-.522-.214.746.746 0 0 1-.208-.541c0-.219.069-.4.208-.542a.698.698 0 0 1 .522-.214zm5.45 2.62c.664 0 1.254.142 1.77.428.516.285.92.682 1.21 1.19.289.508.434 1.09.434 1.744 0 .655-.145 1.239-.435 1.75-.29.513-.693.912-1.209 1.197-.516.286-1.106.429-1.77.429-.671 0-1.265-.143-1.782-.429a3.08 3.08 0 0 1-1.209-1.19c-.29-.508-.434-1.093-.434-1.757 0-.655.145-1.236.434-1.744a3.08 3.08 0 0 1 1.21-1.19c.516-.286 1.11-.428 1.782-.428zm0 1.02c-.436 0-.824.1-1.164.302a2.09 2.09 0 0 0-.794.837 2.557 2.557 0 0 0-.283 1.216c0 .462.094.873.283 1.234.189.361.453.64.794.838.34.197.728.296 1.165.296.428 0 .812-.1 1.152-.296.34-.198.604-.477.793-.838.19-.361.284-.772.284-1.234 0-.454-.095-.859-.284-1.216a2.09 2.09 0 0 0-.793-.837 2.217 2.217 0 0 0-1.152-.302zm8.563-1.02c.78 0 1.393.228 1.838.686.445.457.668 1.09.668 1.895v4.119h-1.171v-3.804c0-.562-.158-1.001-.473-1.316-.315-.315-.75-.472-1.303-.472-.596.008-1.081.2-1.455.573-.373.373-.585.858-.636 1.455v3.564h-1.171v-6.663h1.171v1.41c.445-.948 1.289-1.43 2.532-1.447zm10.285 0c.663 0 1.253.142 1.77.428.516.285.919.682 1.209 1.19.29.508.434 1.09.434 1.744 0 .655-.145 1.239-.434 1.75-.29.513-.693.912-1.21 1.197-.516.286-1.106.429-1.769.429-.672 0-1.266-.143-1.782-.429a3.08 3.08 0 0 1-1.21-1.19c-.289-.508-.434-1.093-.434-1.757 0-.655.145-1.236.435-1.744a3.08 3.08 0 0 1 1.209-1.19c.516-.286 1.11-.428 1.782-.428zm0 1.02c-.437 0-.825.1-1.165.302a2.09 2.09 0 0 0-.793.837 2.557 2.557 0 0 0-.284 1.216c0 .462.095.873.284 1.234.188.361.453.64.793.838.34.197.728.296 1.165.296.428 0 .812-.1 1.152-.296.34-.198.605-.477.794-.838a2.62 2.62 0 0 0 .283-1.234c0-.454-.094-.859-.283-1.216a2.09 2.09 0 0 0-.794-.837 2.217 2.217 0 0 0-1.152-.302zm7.265-2.696c-.302 0-.554.093-.756.278-.201.184-.302.449-.302.793v.869h1.839v.894h-1.84v5.542h-1.17v-5.542h-.87v-.894h.87v-.718c0-.487.103-.9.308-1.24a2.01 2.01 0 0 1 .813-.769 2.34 2.34 0 0 1 1.083-.258c.37 0 .755.1 1.158.302l-.277.958a2.011 2.011 0 0 0-.856-.215zm8.547 1.676c.781 0 1.394.228 1.839.686.445.457.668 1.09.668 1.895v4.119h-1.172v-3.804c0-.562-.157-1.001-.472-1.316-.315-.315-.75-.472-1.304-.472-.646.008-1.158.227-1.536.655-.378.428-.567.982-.567 1.662v3.275h-1.171v-9.345h1.171v4.118c.445-.966 1.293-1.457 2.544-1.473zm10.3.037v6.663h-1.184v-1.41c-.436.948-1.259 1.43-2.468 1.448-.772 0-1.377-.23-1.814-.687-.436-.457-.655-1.09-.655-1.895v-4.119h1.184v3.804c0 .562.154 1.001.46 1.316.307.315.728.472 1.266.472.621-.008 1.114-.229 1.48-.661.365-.432.547-.984.547-1.656v-3.275h1.184zm10.69-.037c.765 0 1.365.23 1.802.692.436.462.655 1.092.655 1.89v4.118h-1.184v-3.804c0-.562-.153-1.003-.46-1.322-.306-.32-.728-.479-1.266-.479-.63.017-1.125.24-1.486.668-.36.428-.541.978-.541 1.65v3.287H199.5v-3.804c0-.562-.151-1.003-.453-1.322-.303-.32-.727-.479-1.273-.479-.63.017-1.127.24-1.492.668-.365.428-.548.978-.548 1.65v3.287h-1.171v-6.663h1.171v1.398c.437-.94 1.264-1.419 2.481-1.435.613 0 1.123.146 1.53.44.408.294.683.706.825 1.235.412-1.1 1.277-1.659 2.595-1.675zm8.424 6.7v-.932c-.495.655-1.272.982-2.33.982-.461 0-.866-.088-1.215-.264a1.947 1.947 0 0 1-.806-.73 1.972 1.972 0 0 1-.283-1.046c0-.596.22-1.069.66-1.417.442-.349 1.057-.527 1.846-.535h2.116v-.315c0-.47-.145-.834-.435-1.09-.29-.256-.711-.384-1.265-.384-.672 0-1.356.24-2.053.718l-.491-.806c.478-.31.921-.535 1.328-.674.407-.138.892-.207 1.455-.207.831 0 1.473.203 1.927.61.453.408.684.976.692 1.707l.013 4.383h-1.159zm-2.09-.92c.546 0 1.01-.132 1.391-.396.382-.265.611-.615.687-1.052v-.668h-1.952c-.53 0-.922.08-1.178.24-.256.16-.384.411-.384.755 0 .345.13.618.39.82.26.2.61.301 1.046.301zm8.851-5.78c.781 0 1.394.228 1.84.686.444.457.667 1.09.667 1.895v4.119h-1.172v-3.804c0-.562-.157-1.001-.472-1.316-.315-.315-.75-.472-1.303-.472-.596.008-1.081.2-1.455.573-.374.373-.586.858-.636 1.455v3.564h-1.171v-6.663h1.171v1.41c.445-.948 1.289-1.43 2.531-1.447z" opacity=".698"/><path fill="#000" d="M98.782 137.857l-.831-1.863h-3.888l-.822 1.863H92.5l3.156-7.004h.722l3.156 7.004h-.752zm-4.448-2.485h3.346l-1.683-3.787-1.663 3.787zm6.751-1.543c.174-.4.423-.706.747-.917.324-.21.713-.319 1.167-.325v.631c-.554-.007-1 .155-1.337.486-.338.33-.53.78-.577 1.348v2.805h-.671v-5.25h.671v1.222zm5.49 3.668a2.143 2.143 0 0 1-1.163.39c-.4 0-.718-.123-.952-.37-.233-.248-.35-.618-.35-1.113v-3.126h-.752l-.01-.52h.762v-1.354h.671v1.353l1.703-.01v.531h-1.703v3.016c0 .648.24.972.722.972.267 0 .557-.093.871-.28l.2.51zm1.06-4.89h.671v5.25h-.67v-5.25zm.34-1.984a.44.44 0 0 1 .331.135c.087.09.13.202.13.336a.473.473 0 0 1-.135.34.436.436 0 0 1-.325.14.473.473 0 0 1-.47-.481.45.45 0 0 1 .134-.335.456.456 0 0 1 .336-.135zm3.937.32a.951.951 0 0 0-.706.291c-.19.194-.286.45-.286.772v.741h1.543v.531h-1.543v4.58h-.671v-4.58h-.672v-.531h.672v-.661c0-.348.073-.653.22-.917a1.54 1.54 0 0 1 .591-.606c.247-.14.515-.21.802-.21.327 0 .634.08.922.24l-.17.54a1.499 1.499 0 0 0-.702-.19zm1.453 1.664h.671v5.25h-.671v-5.25zm.34-1.984a.44.44 0 0 1 .331.135c.087.09.13.202.13.336a.473.473 0 0 1-.135.34.436.436 0 0 1-.325.14.473.473 0 0 1-.47-.481.45.45 0 0 1 .134-.335.456.456 0 0 1 .336-.135zm5.79 3.176c-.427-.414-.951-.621-1.573-.621-.374 0-.711.087-1.012.26-.3.174-.534.416-.701.727-.167.31-.25.666-.25 1.067 0 .4.083.758.25 1.072.167.314.4.558.701.732.3.173.638.26 1.012.26.341 0 .653-.06.937-.18.284-.12.523-.294.717-.521l.38.4a2.34 2.34 0 0 1-.881.652 2.94 2.94 0 0 1-1.183.23c-.5 0-.948-.112-1.342-.335a2.394 2.394 0 0 1-.927-.942 2.775 2.775 0 0 1-.336-1.368c0-.508.112-.964.336-1.368.224-.404.532-.718.927-.942a2.671 2.671 0 0 1 1.342-.335c.408 0 .78.067 1.117.2.338.134.627.32.867.561l-.38.451zm1.812-1.192h.672v5.25h-.672v-5.25zm.341-1.984a.44.44 0 0 1 .33.135.46.46 0 0 1 .131.336.473.473 0 0 1-.135.34.436.436 0 0 1-.326.14.473.473 0 0 1-.47-.481c0-.133.044-.245.134-.335a.456.456 0 0 1 .336-.135zm5.43 7.234l-.01-.882a1.904 1.904 0 0 1-.812.687c-.334.15-.718.225-1.153.225-.354 0-.666-.068-.937-.205a1.517 1.517 0 0 1-.626-.566 1.525 1.525 0 0 1-.22-.812c0-.454.175-.811.526-1.072.35-.26.833-.39 1.448-.39h1.763v-.402c0-.414-.123-.734-.37-.962-.248-.227-.608-.34-1.083-.34-.56 0-1.125.21-1.693.631l-.3-.46c.353-.248.69-.43 1.011-.547a3.208 3.208 0 0 1 1.103-.175c.634 0 1.125.158 1.472.476.348.317.525.756.532 1.317l.01 3.477h-.662zm-1.854-.53c.467 0 .863-.11 1.187-.326.324-.218.543-.523.656-.917v-.722h-1.693c-.461 0-.812.077-1.052.23-.24.154-.361.385-.361.692 0 .314.115.566.346.757.23.19.536.285.917.285zm4.206-6.905h.672v7.435h-.672v-7.435zm5.137 2.185h.672v5.25h-.672v-5.25zm.34-1.984a.44.44 0 0 1 .332.135c.086.09.13.202.13.336a.473.473 0 0 1-.135.34.436.436 0 0 1-.326.14.473.473 0 0 1-.47-.481.45.45 0 0 1 .134-.335.456.456 0 0 1 .336-.135zm4.879 1.964c.628 0 1.12.182 1.478.546.357.364.536.863.536 1.498v3.226h-.681v-3.066c0-.494-.137-.882-.411-1.162-.274-.28-.655-.421-1.142-.421-.542.007-.974.174-1.298.501-.324.327-.51.768-.556 1.323v2.825h-.672v-5.25h.672v1.222c.18-.407.446-.715.796-.922.351-.207.777-.314 1.278-.32zm6.3 4.91c-.36.247-.747.377-1.161.39-.401 0-.719-.123-.952-.37-.234-.248-.351-.618-.351-1.113v-3.126h-.752l-.01-.52h.762v-1.354h.671v1.353l1.704-.01v.531h-1.704v3.016c0 .648.24.972.722.972.267 0 .557-.093.871-.28l.2.51zm3.025-4.91c.815 0 1.436.259 1.864.776.427.518.625 1.214.591 2.09h-4.379c.047.56.254 1.013.622 1.357.367.344.821.516 1.362.516.334 0 .645-.06.932-.18.287-.12.535-.29.742-.511l.38.38a2.604 2.604 0 0 1-.916.637c-.358.15-.75.225-1.178.225-.507 0-.958-.112-1.352-.335a2.403 2.403 0 0 1-.927-.937 2.768 2.768 0 0 1-.336-1.373c0-.508.112-.964.336-1.368.224-.404.532-.718.927-.942a2.651 2.651 0 0 1 1.332-.335zm1.854 2.344c-.033-.547-.215-.983-.546-1.307-.33-.324-.763-.486-1.298-.486-.527 0-.968.163-1.322.49-.354.328-.558.762-.612 1.303h3.778zm1.902-4.509h.671v7.435h-.67v-7.435zm2.584 0h.67v7.435h-.67v-7.435zm2.533 2.185h.671v5.25h-.671v-5.25zm.34-1.984a.44.44 0 0 1 .331.135c.087.09.13.202.13.336a.473.473 0 0 1-.135.34.436.436 0 0 1-.325.14.473.473 0 0 1-.47-.481.45.45 0 0 1 .134-.335.456.456 0 0 1 .336-.135zm6.672 1.984v4.7c0 .507-.107.951-.32 1.332-.214.38-.52.673-.917.877-.398.203-.857.305-1.378.305-.775 0-1.493-.267-2.154-.801l.32-.481c.268.233.548.41.842.53.294.12.615.181.962.181.601 0 1.08-.175 1.438-.526.357-.35.536-.82.536-1.408v-.852a2.08 2.08 0 0 1-.802.862c-.347.207-.748.31-1.202.31-.468 0-.883-.108-1.248-.325a2.261 2.261 0 0 1-.851-.902 2.747 2.747 0 0 1-.306-1.307c0-.488.102-.922.306-1.303.203-.38.489-.678.856-.892.368-.213.785-.32 1.253-.32.454 0 .852.102 1.192.305.341.204.608.493.802.867v-1.152h.671zm-2.555 4.489c.36 0 .685-.085.972-.256.287-.17.511-.406.671-.706.16-.3.24-.638.24-1.012 0-.381-.08-.722-.24-1.022-.16-.3-.384-.536-.67-.707a1.869 1.869 0 0 0-.973-.255c-.36 0-.685.085-.972.255-.287.17-.512.406-.676.707-.164.3-.246.641-.246 1.022 0 .38.082.72.246 1.017.164.297.387.53.671.701.284.17.61.256.977.256zm6.271-4.51c.815 0 1.436.26 1.864.777.427.518.624 1.214.59 2.09h-4.378c.047.56.254 1.013.621 1.357.368.344.822.516 1.363.516.334 0 .645-.06.932-.18.287-.12.534-.29.741-.511l.381.38c-.254.274-.56.487-.917.637a3.01 3.01 0 0 1-1.177.225c-.508 0-.959-.112-1.353-.335a2.403 2.403 0 0 1-.926-.937 2.768 2.768 0 0 1-.336-1.373c0-.508.112-.964.336-1.368a2.39 2.39 0 0 1 .926-.942 2.651 2.651 0 0 1 1.333-.335zm1.854 2.345c-.034-.547-.216-.983-.546-1.307-.331-.324-.764-.486-1.298-.486-.528 0-.969.163-1.323.49-.354.328-.557.762-.61 1.303h3.777zm4.597-2.344c.628 0 1.12.182 1.478.546.358.364.536.863.536 1.498v3.226h-.681v-3.066c0-.494-.137-.882-.41-1.162-.275-.28-.656-.421-1.143-.421-.541.007-.974.174-1.298.501-.324.327-.51.768-.556 1.323v2.825h-.671v-5.25h.671v1.222a1.95 1.95 0 0 1 .797-.922c.35-.207.776-.314 1.277-.32zm7.313 1.212c-.427-.414-.952-.621-1.573-.621-.374 0-.711.087-1.012.26-.3.174-.534.416-.701.727-.167.31-.25.666-.25 1.067 0 .4.083.758.25 1.072.167.314.4.558.701.732.3.173.638.26 1.012.26.34 0 .653-.06.937-.18.284-.12.523-.294.716-.521l.381.4a2.34 2.34 0 0 1-.882.652 2.94 2.94 0 0 1-1.182.23 2.68 2.68 0 0 1-1.343-.335 2.394 2.394 0 0 1-.927-.942 2.775 2.775 0 0 1-.335-1.368c0-.508.112-.964.335-1.368a2.4 2.4 0 0 1 .927-.942 2.671 2.671 0 0 1 1.343-.335c.407 0 .78.067 1.117.2.338.134.626.32.867.561l-.38.451zm3.596-1.212c.815 0 1.436.259 1.863.776.428.518.625 1.214.592 2.09h-4.38c.048.56.255 1.013.622 1.357.367.344.822.516 1.363.516.334 0 .644-.06.932-.18.287-.12.534-.29.741-.511l.38.38a2.604 2.604 0 0 1-.916.637 3.01 3.01 0 0 1-1.177.225c-.508 0-.959-.112-1.353-.335a2.403 2.403 0 0 1-.927-.937 2.768 2.768 0 0 1-.336-1.373c0-.508.112-.964.336-1.368a2.4 2.4 0 0 1 .927-.942 2.651 2.651 0 0 1 1.333-.335zm1.853 2.344c-.033-.547-.215-.983-.546-1.307-.33-.324-.763-.486-1.297-.486-.528 0-.969.163-1.323.49-.354.328-.558.762-.611 1.303h3.777zm6.14-4.509a6.896 6.896 0 0 0-.852 1.97 9.095 9.095 0 0 0-.301 2.37c0 .834.1 1.624.3 2.369.201.745.485 1.4.852 1.969h-.621a6.437 6.437 0 0 1-.872-1.96c-.2-.744-.3-1.537-.3-2.379 0-.842.1-1.635.3-2.38a6.43 6.43 0 0 1 .872-1.959h.621zm6.46 7.435l-.831-1.863h-3.888l-.822 1.863h-.741l3.156-7.004h.722l3.156 7.004h-.751zm-4.448-2.485h3.346l-1.683-3.787-1.663 3.787zm6.2-4.519h.692v7.004h-.692v-7.004zm2.544-.43c.38.56.671 1.213.871 1.958.2.745.301 1.538.301 2.38 0 .842-.1 1.635-.3 2.38a6.437 6.437 0 0 1-.872 1.959h-.621a6.896 6.896 0 0 0 .851-1.97c.2-.744.3-1.534.3-2.369 0-.835-.1-1.625-.3-2.37a6.896 6.896 0 0 0-.851-1.969h.62zm5.477 2.184h.672v5.25h-.672v-5.25zm.341-1.984a.44.44 0 0 1 .33.135.46.46 0 0 1 .131.336.473.473 0 0 1-.135.34.436.436 0 0 1-.326.14.473.473 0 0 1-.47-.481c0-.133.044-.245.134-.335a.456.456 0 0 1 .336-.135zm4.848 2.916a2.545 2.545 0 0 0-.671-.296 2.67 2.67 0 0 0-.732-.105c-.334 0-.603.065-.806.195-.204.13-.306.326-.306.586 0 .18.055.328.165.441.11.114.248.206.411.276.164.07.393.148.687.235.36.107.654.212.881.316.227.103.421.254.581.45.16.198.24.457.24.777 0 .475-.18.837-.54 1.088-.36.25-.812.375-1.353.375-.38 0-.748-.063-1.102-.19a2.44 2.44 0 0 1-.892-.541l.27-.481c.228.207.497.37.807.49.311.121.627.181.947.181.354 0 .643-.073.867-.22a.72.72 0 0 0 .336-.642.676.676 0 0 0-.17-.475 1.177 1.177 0 0 0-.427-.291 8.866 8.866 0 0 0-.706-.246 7.096 7.096 0 0 1-.862-.31 1.52 1.52 0 0 1-.56-.436c-.154-.19-.231-.44-.231-.747 0-.46.172-.808.516-1.042.344-.233.773-.35 1.287-.35.3 0 .592.04.872.12.28.08.531.19.752.33l-.261.512zm6.88 3.958a2.14 2.14 0 0 1-1.162.39c-.4 0-.718-.123-.952-.37-.234-.248-.35-.618-.35-1.113v-3.126h-.752l-.01-.52h.762v-1.354h.67v1.353l1.704-.01v.531h-1.703v3.016c0 .648.24.972.721.972.268 0 .558-.093.872-.28l.2.51zm3.866-4.91c.628 0 1.121.182 1.478.546.358.364.537.863.537 1.498v3.226h-.682v-3.066c0-.494-.137-.882-.41-1.162-.275-.28-.655-.421-1.143-.421-.581.007-1.037.199-1.368.576-.33.378-.496.877-.496 1.498v2.575h-.671v-7.435h.671v3.427c.354-.828 1.05-1.249 2.084-1.262zm5.7 0c.815 0 1.436.259 1.864.776.427.518.625 1.214.591 2.09h-4.379c.047.56.254 1.013.622 1.357.367.344.821.516 1.362.516.334 0 .645-.06.932-.18.287-.12.535-.29.742-.511l.38.38a2.604 2.604 0 0 1-.916.637c-.358.15-.75.225-1.178.225-.507 0-.958-.112-1.352-.335a2.403 2.403 0 0 1-.927-.937 2.768 2.768 0 0 1-.336-1.373c0-.508.112-.964.336-1.368.223-.404.532-.718.927-.942a2.651 2.651 0 0 1 1.332-.335zm1.854 2.344c-.033-.547-.216-.983-.546-1.307-.33-.324-.763-.486-1.298-.486-.527 0-.968.163-1.322.49-.354.328-.558.762-.612 1.303h3.778zm7.17-1.392a2.545 2.545 0 0 0-.67-.296 2.67 2.67 0 0 0-.732-.105c-.334 0-.603.065-.807.195-.203.13-.305.326-.305.586 0 .18.055.328.165.441.11.114.247.206.411.276.164.07.392.148.686.235.361.107.655.212.882.316.227.103.421.254.581.45.16.198.24.457.24.777 0 .475-.18.837-.54 1.088-.361.25-.812.375-1.353.375-.38 0-.748-.063-1.102-.19a2.44 2.44 0 0 1-.892-.541l.27-.481c.228.207.497.37.807.49.31.121.626.181.947.181.354 0 .643-.073.867-.22a.72.72 0 0 0 .335-.642.676.676 0 0 0-.17-.475 1.177 1.177 0 0 0-.426-.291 8.866 8.866 0 0 0-.706-.246 7.096 7.096 0 0 1-.862-.31 1.52 1.52 0 0 1-.561-.436c-.154-.19-.23-.44-.23-.747 0-.46.172-.808.516-1.042.344-.233.773-.35 1.287-.35.3 0 .591.04.872.12.28.08.531.19.751.33l-.26.512zm1.632-.932h.672v5.25h-.672v-5.25zm.341-1.984a.44.44 0 0 1 .33.135.46.46 0 0 1 .131.336.473.473 0 0 1-.135.34.436.436 0 0 1-.326.14.473.473 0 0 1-.47-.481c0-.133.044-.245.134-.335a.456.456 0 0 1 .336-.135zm8.836 1.964c.621 0 1.106.18 1.453.54.347.362.521.863.521 1.504v3.226h-.681v-3.066c0-.5-.136-.89-.406-1.167s-.643-.416-1.117-.416c-.561.013-1 .207-1.318.581-.317.374-.476.869-.476 1.483v2.585h-.681v-3.066c0-.5-.136-.89-.406-1.167s-.643-.416-1.117-.416c-.561.013-1.002.207-1.323.581-.32.374-.48.869-.48 1.483v2.585h-.672v-5.25h.671v1.232c.174-.414.433-.725.777-.932.344-.207.763-.314 1.257-.32.501 0 .917.123 1.248.37.33.248.55.595.656 1.043.16-.468.42-.819.776-1.053.358-.233.797-.354 1.318-.36zm8.125.02v5.25h-.682v-1.252a1.966 1.966 0 0 1-.776.942c-.344.213-.76.324-1.248.33-.621 0-1.107-.182-1.458-.546-.35-.364-.526-.863-.526-1.498v-3.226h.682v3.066c0 .494.135.88.405 1.157.271.277.643.416 1.118.416.56-.007 1.002-.199 1.322-.576.321-.378.481-.874.481-1.488v-2.575h.682zm1.852-2.185h.671v7.435h-.671v-7.435zm5.83 7.435l-.01-.882a1.904 1.904 0 0 1-.812.687c-.334.15-.718.225-1.152.225-.354 0-.667-.068-.937-.205a1.517 1.517 0 0 1-.626-.566 1.525 1.525 0 0 1-.22-.812c0-.454.175-.811.525-1.072.35-.26.834-.39 1.448-.39h1.764v-.402c0-.414-.124-.734-.371-.962-.247-.227-.608-.34-1.082-.34-.561 0-1.126.21-1.694.631l-.3-.46c.354-.248.691-.43 1.012-.547.32-.117.688-.175 1.102-.175.635 0 1.126.158 1.473.476.347.317.524.756.531 1.317l.01 3.477h-.661zm-1.854-.53c.468 0 .863-.11 1.187-.326.324-.218.543-.523.657-.917v-.722h-1.694c-.46 0-.811.077-1.052.23-.24.154-.36.385-.36.692 0 .314.115.566.345.757.23.19.536.285.917.285zm6.802.17a2.14 2.14 0 0 1-1.162.39c-.401 0-.719-.123-.952-.37-.234-.248-.351-.618-.351-1.113v-3.126h-.752l-.01-.52h.762v-1.354h.671v1.353l1.704-.01v.531h-1.704v3.016c0 .648.24.972.722.972.267 0 .558-.093.871-.28l.2.51zm1.06-4.89h.672v5.25h-.672v-5.25zm.341-1.984a.44.44 0 0 1 .33.135.46.46 0 0 1 .13.336.473.473 0 0 1-.134.34.436.436 0 0 1-.326.14.473.473 0 0 1-.47-.481c0-.133.044-.245.134-.335a.456.456 0 0 1 .336-.135zm4.237 1.964c.507 0 .962.112 1.363.335.4.224.714.536.941.937.228.401.341.855.341 1.363 0 .514-.113.974-.34 1.378a2.41 2.41 0 0 1-.942.942 2.759 2.759 0 0 1-1.363.335c-.508 0-.962-.112-1.363-.335a2.41 2.41 0 0 1-.942-.942 2.763 2.763 0 0 1-.34-1.378c0-.508.113-.962.34-1.363.227-.4.541-.713.942-.937.4-.223.855-.335 1.363-.335zm0 .58a2.01 2.01 0 0 0-1.022.261c-.3.174-.535.418-.702.732-.167.314-.25.671-.25 1.072 0 .407.083.768.25 1.082.167.314.401.558.702.732.3.173.641.26 1.022.26.38 0 .721-.087 1.022-.26.3-.174.534-.418.701-.732a2.27 2.27 0 0 0 .25-1.082c0-.4-.083-.758-.25-1.072a1.805 1.805 0 0 0-.701-.732 2.01 2.01 0 0 0-1.022-.26zm6.661-.58c.628 0 1.121.182 1.478.546.358.364.536.863.536 1.498v3.226h-.68v-3.066c0-.494-.138-.882-.412-1.162-.274-.28-.654-.421-1.142-.421-.541.007-.974.174-1.298.501-.324.327-.509.768-.556 1.323v2.825h-.671v-5.25h.671v1.222a1.95 1.95 0 0 1 .797-.922c.35-.207.776-.314 1.277-.32zm8.364 0c.507 0 .962.112 1.363.335.4.224.714.536.941.937.228.401.341.855.341 1.363 0 .514-.113.974-.34 1.378a2.41 2.41 0 0 1-.942.942 2.759 2.759 0 0 1-1.363.335c-.508 0-.962-.112-1.363-.335a2.41 2.41 0 0 1-.942-.942 2.763 2.763 0 0 1-.34-1.378c0-.508.113-.962.34-1.363.227-.4.541-.713.942-.937.4-.223.855-.335 1.363-.335zm0 .58a2.01 2.01 0 0 0-1.022.261c-.3.174-.535.418-.702.732-.167.314-.25.671-.25 1.072 0 .407.083.768.25 1.082.167.314.401.558.702.732.3.173.641.26 1.022.26.38 0 .721-.087 1.022-.26.3-.174.534-.418.701-.732a2.27 2.27 0 0 0 .25-1.082c0-.4-.083-.758-.25-1.072a1.805 1.805 0 0 0-.701-.732 2.01 2.01 0 0 0-1.022-.26zm5.69-2.224a.951.951 0 0 0-.707.291c-.19.194-.285.45-.285.772v.741h1.543v.531h-1.543v4.58h-.672v-4.58h-.671v-.531h.671v-.661c0-.348.074-.653.22-.917.148-.264.345-.466.592-.606.247-.14.514-.21.801-.21.328 0 .635.08.922.24l-.17.54a1.499 1.499 0 0 0-.702-.19zM96.236 146.077c.628 0 1.12.182 1.478.546.358.364.536.863.536 1.498v3.226h-.681v-3.066c0-.494-.137-.882-.41-1.162-.275-.28-.655-.421-1.143-.421-.581.007-1.037.199-1.368.576-.33.378-.496.877-.496 1.498v2.575h-.671v-7.435h.671v3.427c.354-.828 1.049-1.249 2.084-1.262zm8.165.02v5.25h-.681v-1.252a1.966 1.966 0 0 1-.777.942c-.344.213-.76.324-1.247.33-.622 0-1.108-.182-1.458-.546-.351-.364-.526-.863-.526-1.498v-3.226h.681v3.066c0 .494.135.88.406 1.157.27.277.643.416 1.117.416.561-.007 1.002-.199 1.323-.576.32-.378.48-.874.48-1.488v-2.575h.682zm8.505-.02c.622 0 1.106.18 1.453.54.348.362.521.863.521 1.504v3.226h-.681v-3.066c0-.5-.135-.89-.406-1.167-.27-.277-.643-.416-1.117-.416-.561.013-1 .207-1.318.581-.317.374-.476.869-.476 1.483v2.585h-.681v-3.066c0-.5-.135-.89-.406-1.167-.27-.277-.643-.416-1.117-.416-.561.013-1.002.207-1.323.581-.32.374-.48.869-.48 1.483v2.585h-.672v-5.25h.671v1.232c.174-.414.433-.725.777-.932.344-.207.763-.314 1.257-.32.501 0 .917.123 1.248.37.33.248.55.595.656 1.043.16-.468.42-.819.777-1.053.357-.233.796-.354 1.317-.36zm6.912 5.27l-.01-.882a1.904 1.904 0 0 1-.811.687c-.334.15-.718.225-1.153.225-.354 0-.666-.068-.936-.205a1.517 1.517 0 0 1-.627-.566 1.525 1.525 0 0 1-.22-.812c0-.454.175-.811.526-1.072.35-.26.833-.39 1.448-.39h1.763v-.402c0-.414-.123-.734-.37-.962-.248-.227-.608-.34-1.083-.34-.56 0-1.125.21-1.693.631l-.3-.46c.354-.248.69-.43 1.012-.547.32-.117.688-.175 1.102-.175.634 0 1.125.158 1.473.476.347.317.524.756.53 1.317l.01 3.477h-.66zm-1.853-.53c.467 0 .863-.11 1.187-.326.324-.218.543-.523.656-.917v-.722h-1.693c-.46 0-.812.077-1.052.23-.24.154-.36.385-.36.692 0 .314.114.566.345.757.23.19.536.285.917.285zm6.902-4.74c.628 0 1.12.182 1.478.546.357.364.536.863.536 1.498v3.226h-.682v-3.066c0-.494-.136-.882-.41-1.162-.274-.28-.655-.421-1.143-.421-.54.007-.973.174-1.297.501-.324.327-.51.768-.556 1.323v2.825h-.672v-5.25h.672v1.222c.18-.407.446-.715.796-.922.351-.207.777-.314 1.278-.32zm6.259.02h.671v5.25h-.671v-5.25zm.34-1.984a.44.44 0 0 1 .331.135c.087.09.13.202.13.336a.473.473 0 0 1-.135.34.436.436 0 0 1-.325.14.473.473 0 0 1-.47-.481.45.45 0 0 1 .134-.335.456.456 0 0 1 .336-.135zm4.879 1.964c.628 0 1.12.182 1.478.546.357.364.536.863.536 1.498v3.226h-.682v-3.066c0-.494-.137-.882-.41-1.162-.274-.28-.655-.421-1.143-.421-.54.007-.973.174-1.297.501-.324.327-.51.768-.556 1.323v2.825h-.672v-5.25h.672v1.222c.18-.407.445-.715.796-.922.35-.207.777-.314 1.278-.32zm6.3 4.91c-.36.247-.747.377-1.162.39-.4 0-.718-.123-.952-.37-.233-.248-.35-.618-.35-1.113v-3.126h-.752l-.01-.52h.762v-1.354h.671v1.353l1.703-.01v.531h-1.703v3.016c0 .648.24.972.722.972.267 0 .557-.093.871-.28l.2.51zm3.025-4.91c.815 0 1.436.259 1.864.776.427.518.624 1.214.59 2.09h-4.378c.047.56.254 1.013.621 1.357.368.344.822.516 1.363.516.334 0 .645-.06.932-.18.287-.12.534-.29.741-.511l.381.38c-.254.274-.56.487-.917.637a3.01 3.01 0 0 1-1.177.225c-.508 0-.959-.112-1.353-.335a2.403 2.403 0 0 1-.926-.937 2.768 2.768 0 0 1-.336-1.373c0-.508.112-.964.336-1.368a2.39 2.39 0 0 1 .926-.942 2.651 2.651 0 0 1 1.333-.335zm1.854 2.344c-.034-.547-.216-.983-.546-1.307-.331-.324-.764-.486-1.298-.486-.528 0-.969.163-1.323.49-.354.328-.557.762-.61 1.303h3.777zm1.902-4.509h.671v7.435h-.671v-7.435zm2.583 0h.672v7.435h-.672v-7.435zm2.534 2.185h.671v5.25h-.671v-5.25zm.34-1.984a.44.44 0 0 1 .331.135c.087.09.13.202.13.336a.473.473 0 0 1-.135.34.436.436 0 0 1-.326.14.473.473 0 0 1-.47-.481c0-.133.045-.245.135-.335a.456.456 0 0 1 .335-.135zm6.672 1.984v4.7c0 .507-.107.951-.32 1.332-.214.38-.52.673-.917.877-.398.203-.857.305-1.378.305-.775 0-1.493-.267-2.154-.801l.32-.481c.267.233.548.41.842.53.294.12.614.181.962.181.601 0 1.08-.175 1.438-.526.357-.35.536-.82.536-1.408v-.852a2.08 2.08 0 0 1-.802.862c-.347.207-.748.31-1.202.31a2.39 2.39 0 0 1-1.248-.325 2.261 2.261 0 0 1-.851-.902 2.747 2.747 0 0 1-.306-1.307c0-.488.102-.922.306-1.303.203-.38.489-.678.856-.892.368-.213.785-.32 1.253-.32.454 0 .851.102 1.192.305.34.204.608.493.802.867v-1.152h.671zM159 150.586c.36 0 .685-.085.972-.256.287-.17.51-.406.671-.706.16-.3.24-.638.24-1.012 0-.381-.08-.722-.24-1.022-.16-.3-.384-.536-.671-.707a1.869 1.869 0 0 0-.972-.255c-.36 0-.685.085-.972.255-.287.17-.513.406-.676.707-.164.3-.246.641-.246 1.022 0 .38.082.72.246 1.017.163.297.387.53.671.701.284.17.61.256.977.256zm6.27-4.51c.816 0 1.437.26 1.865.777.427.518.624 1.214.59 2.09h-4.378c.047.56.254 1.013.621 1.357.368.344.822.516 1.363.516.334 0 .645-.06.932-.18.287-.12.534-.29.741-.511l.381.38c-.254.274-.56.487-.917.637a3.01 3.01 0 0 1-1.177.225c-.508 0-.959-.112-1.353-.335a2.403 2.403 0 0 1-.927-.937 2.768 2.768 0 0 1-.335-1.373c0-.508.112-.964.335-1.368a2.4 2.4 0 0 1 .927-.942 2.651 2.651 0 0 1 1.333-.335zm1.855 2.345c-.034-.547-.216-.983-.547-1.307-.33-.324-.763-.486-1.297-.486-.528 0-.969.163-1.323.49-.354.328-.558.762-.611 1.303h3.778zm4.597-2.344c.628 0 1.12.182 1.478.546.357.364.536.863.536 1.498v3.226h-.681v-3.066c0-.494-.137-.882-.411-1.162-.274-.28-.655-.421-1.142-.421-.541.007-.974.174-1.298.501-.324.327-.51.768-.556 1.323v2.825h-.671v-5.25h.67v1.222c.181-.407.447-.715.797-.922.351-.207.777-.314 1.278-.32zm7.313 1.212c-.428-.414-.952-.621-1.573-.621a1.99 1.99 0 0 0-1.012.26 1.82 1.82 0 0 0-.702.727c-.167.31-.25.666-.25 1.067 0 .4.083.758.25 1.072.167.314.401.558.702.732.3.173.638.26 1.012.26.34 0 .653-.06.937-.18a1.9 1.9 0 0 0 .716-.521l.38.4a2.34 2.34 0 0 1-.88.652 2.94 2.94 0 0 1-1.183.23 2.68 2.68 0 0 1-1.343-.335 2.394 2.394 0 0 1-.927-.942 2.775 2.775 0 0 1-.335-1.368c0-.508.111-.964.335-1.368a2.4 2.4 0 0 1 .927-.942 2.671 2.671 0 0 1 1.343-.335c.407 0 .78.067 1.117.2.337.134.626.32.867.561l-.381.451zm3.595-1.212c.815 0 1.437.259 1.864.776.428.518.625 1.214.591 2.09h-4.378c.046.56.253 1.013.62 1.357.368.344.823.516 1.364.516.334 0 .644-.06.931-.18.288-.12.535-.29.742-.511l.38.38a2.604 2.604 0 0 1-.916.637c-.358.15-.75.225-1.177.225-.508 0-.96-.112-1.353-.335a2.403 2.403 0 0 1-.927-.937 2.768 2.768 0 0 1-.336-1.373c0-.508.112-.964.336-1.368a2.4 2.4 0 0 1 .927-.942 2.651 2.651 0 0 1 1.332-.335zm1.854 2.344c-.033-.547-.215-.983-.546-1.307-.33-.324-.763-.486-1.298-.486-.527 0-.968.163-1.322.49-.354.328-.558.762-.611 1.303h3.777zm7.271-2.344c.488 0 .924.112 1.308.335.384.224.683.538.897.942a2.9 2.9 0 0 1 .32 1.378c0 .508-.106.962-.32 1.363a2.34 2.34 0 0 1-.892.937c-.38.223-.815.335-1.303.335-.48 0-.901-.108-1.262-.325a2.23 2.23 0 0 1-.842-.907v3.156h-.671v-7.194h.671v1.212c.194-.387.473-.69.837-.907a2.408 2.408 0 0 1 1.257-.325zm-.12 4.71c.374 0 .712-.09 1.012-.266.3-.177.535-.423.702-.737.167-.314.25-.671.25-1.072 0-.394-.083-.748-.25-1.062a1.84 1.84 0 0 0-.702-.737 1.957 1.957 0 0 0-1.012-.265c-.38 0-.72.088-1.017.265a1.885 1.885 0 0 0-.701.737 2.19 2.19 0 0 0-.256 1.062c0 .4.084.758.25 1.072.168.314.401.56.702.737.3.177.641.265 1.022.265zm4.588-3.468c.173-.4.422-.706.746-.917.324-.21.713-.319 1.167-.325v.631c-.554-.007-1 .155-1.337.486-.338.33-.53.78-.576 1.348v2.805h-.672v-5.25h.672v1.222zm4.948-1.242c.507 0 .962.112 1.363.335.4.224.714.536.941.937.228.401.341.855.341 1.363 0 .514-.113.974-.34 1.378a2.41 2.41 0 0 1-.942.942 2.759 2.759 0 0 1-1.363.335c-.508 0-.962-.112-1.363-.335a2.41 2.41 0 0 1-.942-.942 2.763 2.763 0 0 1-.34-1.378c0-.508.113-.962.34-1.363.227-.4.541-.713.942-.937.4-.223.855-.335 1.363-.335zm0 .58a2.01 2.01 0 0 0-1.022.261c-.3.174-.535.418-.702.732-.167.314-.25.671-.25 1.072 0 .407.083.768.25 1.082.167.314.401.558.702.732.3.173.641.26 1.022.26.38 0 .721-.087 1.022-.26.3-.174.534-.418.701-.732a2.27 2.27 0 0 0 .25-1.082c0-.4-.083-.758-.25-1.072a1.805 1.805 0 0 0-.701-.732 2.01 2.01 0 0 0-1.022-.26zm7.573.632c-.427-.414-.952-.621-1.573-.621-.374 0-.711.087-1.012.26-.3.174-.534.416-.701.727-.167.31-.25.666-.25 1.067 0 .4.083.758.25 1.072.167.314.4.558.701.732.3.173.638.26 1.012.26.34 0 .653-.06.937-.18.284-.12.523-.294.716-.521l.381.4a2.34 2.34 0 0 1-.882.652 2.94 2.94 0 0 1-1.182.23c-.5 0-.948-.112-1.343-.335a2.394 2.394 0 0 1-.926-.942 2.775 2.775 0 0 1-.336-1.368c0-.508.112-.964.336-1.368a2.39 2.39 0 0 1 .926-.942 2.671 2.671 0 0 1 1.343-.335c.408 0 .78.067 1.117.2.338.134.627.32.867.561l-.38.451zm3.596-1.212c.815 0 1.436.259 1.863.776.428.518.625 1.214.592 2.09h-4.38c.048.56.255 1.013.622 1.357.368.344.822.516 1.363.516.334 0 .645-.06.932-.18.287-.12.534-.29.741-.511l.381.38c-.254.274-.56.487-.917.637a3.01 3.01 0 0 1-1.177.225c-.508 0-.959-.112-1.353-.335a2.403 2.403 0 0 1-.927-.937 2.768 2.768 0 0 1-.335-1.373c0-.508.111-.964.335-1.368a2.4 2.4 0 0 1 .927-.942 2.651 2.651 0 0 1 1.333-.335zm1.853 2.344c-.033-.547-.215-.983-.546-1.307-.33-.324-.763-.486-1.297-.486-.528 0-.969.163-1.323.49-.354.328-.558.762-.611 1.303h3.777zm4.568-1.392a2.545 2.545 0 0 0-.671-.296 2.67 2.67 0 0 0-.732-.105c-.334 0-.603.065-.806.195-.204.13-.306.326-.306.586 0 .18.055.328.165.441.11.114.247.206.411.276.164.07.392.148.686.235.361.107.655.212.882.316.227.103.421.254.581.45.16.198.24.457.24.777 0 .475-.18.837-.54 1.088-.361.25-.812.375-1.353.375-.38 0-.748-.063-1.102-.19a2.44 2.44 0 0 1-.892-.541l.27-.481c.228.207.497.37.807.49.31.121.626.181.947.181.354 0 .643-.073.867-.22a.72.72 0 0 0 .335-.642.676.676 0 0 0-.17-.475 1.177 1.177 0 0 0-.426-.291 8.866 8.866 0 0 0-.706-.246 7.096 7.096 0 0 1-.862-.31 1.52 1.52 0 0 1-.56-.436c-.155-.19-.231-.44-.231-.747 0-.46.172-.808.516-1.042.344-.233.773-.35 1.287-.35.3 0 .591.04.872.12.28.08.531.19.751.33l-.26.512zm4.347 0a2.545 2.545 0 0 0-.671-.296 2.67 2.67 0 0 0-.732-.105c-.334 0-.603.065-.806.195-.204.13-.306.326-.306.586 0 .18.055.328.165.441.11.114.247.206.411.276a6.7 6.7 0 0 0 .686.235c.361.107.655.212.882.316.227.103.421.254.581.45.16.198.24.457.24.777 0 .475-.18.837-.54 1.088-.361.25-.812.375-1.353.375-.38 0-.748-.063-1.102-.19a2.44 2.44 0 0 1-.892-.541l.27-.481c.228.207.497.37.807.49.31.121.626.181.947.181.354 0 .643-.073.867-.22a.72.72 0 0 0 .336-.642.676.676 0 0 0-.17-.475 1.177 1.177 0 0 0-.427-.291 8.866 8.866 0 0 0-.706-.246 7.096 7.096 0 0 1-.862-.31 1.52 1.52 0 0 1-.56-.436c-.155-.19-.231-.44-.231-.747 0-.46.172-.808.516-1.042.344-.233.773-.35 1.287-.35.3 0 .591.04.872.12.28.08.531.19.751.33l-.26.512zm3.676-.952c.815 0 1.436.259 1.863.776.428.518.625 1.214.591 2.09h-4.378c.047.56.254 1.013.621 1.357.367.344.822.516 1.363.516.334 0 .644-.06.932-.18.287-.12.534-.29.741-.511l.38.38a2.604 2.604 0 0 1-.916.637 3.01 3.01 0 0 1-1.177.225c-.508 0-.959-.112-1.353-.335a2.403 2.403 0 0 1-.927-.937 2.768 2.768 0 0 1-.336-1.373c0-.508.112-.964.336-1.368a2.4 2.4 0 0 1 .927-.942 2.651 2.651 0 0 1 1.333-.335zm1.853 2.344c-.033-.547-.215-.983-.546-1.307-.33-.324-.763-.486-1.297-.486-.528 0-.969.163-1.323.49-.354.328-.558.762-.611 1.303h3.777zm4.568-1.392a2.545 2.545 0 0 0-.672-.296 2.67 2.67 0 0 0-.731-.105c-.334 0-.603.065-.807.195-.203.13-.305.326-.305.586 0 .18.055.328.165.441.11.114.247.206.41.276.165.07.393.148.687.235.361.107.655.212.882.316.227.103.42.254.581.45.16.198.24.457.24.777 0 .475-.18.837-.54 1.088-.361.25-.812.375-1.353.375-.38 0-.748-.063-1.102-.19a2.44 2.44 0 0 1-.892-.541l.27-.481c.228.207.496.37.807.49.31.121.626.181.947.181.354 0 .643-.073.867-.22a.72.72 0 0 0 .335-.642.676.676 0 0 0-.17-.475 1.177 1.177 0 0 0-.426-.291 8.866 8.866 0 0 0-.706-.246 7.096 7.096 0 0 1-.862-.31 1.52 1.52 0 0 1-.561-.436c-.154-.19-.23-.44-.23-.747 0-.46.171-.808.515-1.042.344-.233.774-.35 1.288-.35.3 0 .591.04.872.12.28.08.53.19.751.33l-.26.512zm7.05-.952c.488 0 .924.112 1.308.335.384.224.683.538.897.942a2.9 2.9 0 0 1 .32 1.378c0 .508-.106.962-.32 1.363a2.34 2.34 0 0 1-.892.937c-.38.223-.815.335-1.302.335-.481 0-.902-.108-1.263-.325a2.23 2.23 0 0 1-.842-.907v1.212h-.671v-7.435h.671v3.397c.194-.387.473-.69.837-.907a2.408 2.408 0 0 1 1.257-.325zm-.12 4.71c.374 0 .712-.09 1.012-.266.3-.177.535-.423.702-.737.167-.314.25-.671.25-1.072 0-.394-.083-.748-.25-1.062a1.84 1.84 0 0 0-.702-.737 1.957 1.957 0 0 0-1.012-.265c-.38 0-.72.088-1.017.265a1.885 1.885 0 0 0-.701.737 2.19 2.19 0 0 0-.256 1.062c0 .4.084.758.25 1.072.168.314.402.56.702.737.3.177.641.265 1.022.265zm5.31 1.312c-.161.4-.373.704-.637.912-.264.207-.566.31-.907.31-.407 0-.768-.12-1.082-.36l.3-.522c.234.16.485.24.752.24.214 0 .408-.07.581-.21.174-.14.317-.344.431-.61l.22-.542-2.174-5.22h.712l1.803 4.509 1.734-4.51h.691l-2.425 6.003zm12.54-6.022c.622 0 1.106.18 1.454.54.347.362.52.863.52 1.504v3.226h-.68v-3.066c0-.5-.136-.89-.406-1.167s-.643-.416-1.118-.416c-.56.013-1 .207-1.317.581-.318.374-.476.869-.476 1.483v2.585h-.682v-3.066c0-.5-.135-.89-.405-1.167s-.643-.416-1.118-.416c-.56.013-1.002.207-1.322.581-.32.374-.481.869-.481 1.483v2.585h-.672v-5.25h.672v1.232c.174-.414.432-.725.776-.932.344-.207.764-.314 1.258-.32.5 0 .917.123 1.247.37.331.248.55.595.657 1.043.16-.468.419-.819.776-1.053.358-.233.797-.354 1.318-.36zm6.913 5.27l-.01-.882a1.904 1.904 0 0 1-.812.687c-.334.15-.718.225-1.152.225-.354 0-.666-.068-.937-.205a1.517 1.517 0 0 1-.626-.566 1.525 1.525 0 0 1-.22-.812c0-.454.175-.811.526-1.072.35-.26.833-.39 1.447-.39h1.764v-.402c0-.414-.124-.734-.37-.962-.248-.227-.609-.34-1.083-.34-.561 0-1.126.21-1.693.631l-.3-.46c.353-.248.69-.43 1.011-.547.32-.117.688-.175 1.102-.175.635 0 1.126.158 1.473.476.348.317.525.756.531 1.317l.01 3.477h-.661zm-1.854-.53c.468 0 .864-.11 1.188-.326.324-.218.542-.523.656-.917v-.722h-1.693c-.461 0-.812.077-1.052.23-.241.154-.361.385-.361.692 0 .314.115.566.345.757.23.19.537.285.917.285zm7.814-3.528c-.427-.414-.952-.621-1.573-.621-.374 0-.711.087-1.012.26-.3.174-.534.416-.701.727-.167.31-.25.666-.25 1.067 0 .4.083.758.25 1.072.167.314.4.558.701.732.3.173.638.26 1.012.26.34 0 .653-.06.937-.18.284-.12.523-.294.716-.521l.381.4a2.34 2.34 0 0 1-.882.652 2.94 2.94 0 0 1-1.182.23 2.68 2.68 0 0 1-1.343-.335 2.394 2.394 0 0 1-.926-.942 2.775 2.775 0 0 1-.336-1.368c0-.508.112-.964.336-1.368a2.39 2.39 0 0 1 .926-.942 2.671 2.671 0 0 1 1.343-.335c.408 0 .78.067 1.117.2.338.134.627.32.867.561l-.38.451zm4.618-1.212c.628 0 1.12.182 1.478.546.357.364.536.863.536 1.498v3.226h-.682v-3.066c0-.494-.136-.882-.41-1.162-.274-.28-.655-.421-1.143-.421-.58.007-1.037.199-1.367.576-.331.378-.496.877-.496 1.498v2.575h-.672v-7.435h.672v3.427c.354-.828 1.048-1.249 2.084-1.262zm3.655.02h.672v5.25h-.672v-5.25zm.341-1.984a.44.44 0 0 1 .33.135.46.46 0 0 1 .131.336.473.473 0 0 1-.135.34.436.436 0 0 1-.326.14.473.473 0 0 1-.47-.481c0-.133.044-.245.134-.335a.456.456 0 0 1 .336-.135zm4.878 1.964c.628 0 1.12.182 1.478.546.358.364.536.863.536 1.498v3.226h-.681v-3.066c0-.494-.137-.882-.411-1.162-.274-.28-.655-.421-1.142-.421-.541.007-.974.174-1.298.501-.324.327-.51.768-.556 1.323v2.825h-.671v-5.25h.671v1.222a1.95 1.95 0 0 1 .797-.922c.35-.207.776-.314 1.277-.32zm5.7 0c.815 0 1.436.259 1.864.776.427.518.624 1.214.59 2.09h-4.378c.047.56.254 1.013.621 1.357.368.344.822.516 1.363.516.334 0 .645-.06.932-.18.287-.12.534-.29.741-.511l.381.38c-.254.274-.56.487-.917.637a3.01 3.01 0 0 1-1.177.225c-.508 0-.959-.112-1.353-.335a2.403 2.403 0 0 1-.927-.937 2.768 2.768 0 0 1-.335-1.373c0-.508.112-.964.335-1.368a2.4 2.4 0 0 1 .927-.942 2.651 2.651 0 0 1 1.333-.335zm1.854 2.344c-.034-.547-.216-.983-.547-1.307-.33-.324-.763-.486-1.297-.486-.528 0-.969.163-1.323.49-.354.328-.558.762-.611 1.303h3.778zm4.567-1.392a2.545 2.545 0 0 0-.671-.296 2.67 2.67 0 0 0-.732-.105c-.334 0-.603.065-.806.195-.204.13-.306.326-.306.586 0 .18.055.328.165.441.11.114.247.206.411.276.164.07.393.148.687.235.36.107.654.212.881.316.227.103.421.254.581.45.16.198.24.457.24.777 0 .475-.18.837-.54 1.088-.36.25-.812.375-1.353.375-.38 0-.748-.063-1.102-.19a2.44 2.44 0 0 1-.892-.541l.27-.481c.228.207.497.37.807.49.31.121.627.181.947.181.354 0 .643-.073.867-.22a.72.72 0 0 0 .336-.642.676.676 0 0 0-.17-.475 1.177 1.177 0 0 0-.427-.291 8.866 8.866 0 0 0-.706-.246 7.096 7.096 0 0 1-.862-.31 1.52 1.52 0 0 1-.56-.436c-.154-.19-.231-.44-.231-.747 0-.46.172-.808.516-1.042.344-.233.773-.35 1.287-.35.3 0 .591.04.872.12.28.08.531.19.752.33l-.261.512zm1.632 3.497c.12 0 .222.041.305.125a.44.44 0 0 1 .125.325c0 .094-.036.22-.11.381l-.5 1.143h-.402l.391-1.133a.379.379 0 0 1-.185-.16.447.447 0 0 1-.065-.23c0-.127.041-.234.125-.321a.42.42 0 0 1 .316-.13zm-202.628 9.04c.815 0 1.436.26 1.864.777.427.518.624 1.214.59 2.09h-4.378c.047.56.254 1.013.621 1.357.368.344.822.516 1.363.516.334 0 .645-.06.932-.18.287-.12.534-.29.741-.511l.381.38c-.254.274-.56.487-.917.637a3.01 3.01 0 0 1-1.177.225c-.508 0-.959-.112-1.353-.335a2.403 2.403 0 0 1-.927-.937 2.768 2.768 0 0 1-.335-1.373c0-.508.112-.964.335-1.368a2.4 2.4 0 0 1 .927-.942 2.651 2.651 0 0 1 1.333-.335zm1.854 2.345c-.034-.547-.216-.983-.547-1.307-.33-.324-.763-.486-1.297-.486-.528 0-.969.163-1.323.49-.354.328-.558.762-.611 1.303h3.778zm4.567-1.392a2.545 2.545 0 0 0-.671-.296 2.67 2.67 0 0 0-.732-.105c-.334 0-.603.065-.806.195-.204.13-.306.326-.306.586 0 .18.055.328.165.441.11.114.247.206.411.276a6.7 6.7 0 0 0 .686.235c.361.107.655.212.882.316.227.103.421.254.581.45.16.198.24.457.24.777 0 .475-.18.837-.54 1.088-.36.25-.812.375-1.353.375-.38 0-.748-.063-1.102-.19a2.44 2.44 0 0 1-.892-.541l.27-.481c.228.207.497.37.807.49.31.121.627.181.947.181.354 0 .643-.073.867-.22a.72.72 0 0 0 .336-.642.676.676 0 0 0-.17-.475 1.177 1.177 0 0 0-.427-.291 8.866 8.866 0 0 0-.706-.246 7.096 7.096 0 0 1-.862-.31 1.52 1.52 0 0 1-.56-.436c-.155-.19-.231-.44-.231-.747 0-.46.172-.808.516-1.042.344-.233.773-.35 1.287-.35.3 0 .591.04.872.12.28.08.531.19.752.33l-.261.512zm4.447-.952c.488 0 .924.112 1.308.335.384.224.683.538.897.942.213.404.32.864.32 1.378 0 .508-.107.962-.32 1.363a2.34 2.34 0 0 1-.892.937c-.38.223-.815.335-1.303.335-.48 0-.902-.108-1.262-.325a2.23 2.23 0 0 1-.842-.907v3.156h-.671v-7.194h.671v1.212c.194-.387.473-.69.837-.907a2.408 2.408 0 0 1 1.257-.325zm-.12 4.71c.374 0 .711-.09 1.012-.266.3-.177.534-.423.701-.737.167-.314.25-.671.25-1.072 0-.394-.083-.748-.25-1.062a1.84 1.84 0 0 0-.701-.737 1.957 1.957 0 0 0-1.012-.265c-.38 0-.72.088-1.017.265a1.885 1.885 0 0 0-.701.737 2.19 2.19 0 0 0-.256 1.062c0 .4.084.758.25 1.072.168.314.401.56.702.737.3.177.641.265 1.022.265zm5.96-4.71c.815 0 1.436.259 1.864.776.427.518.624 1.214.591 2.09h-4.379c.047.56.254 1.013.622 1.357.367.344.821.516 1.362.516.334 0 .645-.06.932-.18.287-.12.535-.29.742-.511l.38.38a2.604 2.604 0 0 1-.916.637c-.358.15-.75.225-1.178.225-.507 0-.958-.112-1.352-.335a2.403 2.403 0 0 1-.927-.937 2.768 2.768 0 0 1-.336-1.373c0-.508.112-.964.336-1.368.223-.404.532-.718.927-.942a2.651 2.651 0 0 1 1.332-.335zm1.854 2.344c-.034-.547-.216-.983-.546-1.307-.33-.324-.763-.486-1.298-.486-.528 0-.968.163-1.322.49-.354.328-.558.762-.612 1.303h3.778zm5.51-1.132c-.428-.414-.953-.621-1.574-.621-.374 0-.711.087-1.012.26-.3.174-.534.416-.701.727-.167.31-.25.666-.25 1.067 0 .4.083.758.25 1.072.167.314.4.558.701.732.3.173.638.26 1.012.26.34 0 .653-.06.937-.18.284-.12.523-.294.716-.521l.381.4a2.34 2.34 0 0 1-.882.652 2.94 2.94 0 0 1-1.182.23 2.68 2.68 0 0 1-1.343-.335 2.394 2.394 0 0 1-.927-.942 2.775 2.775 0 0 1-.335-1.368c0-.508.112-.964.335-1.368a2.4 2.4 0 0 1 .927-.942 2.671 2.671 0 0 1 1.343-.335c.408 0 .78.067 1.117.2.338.134.626.32.867.561l-.38.451zm1.811-1.192h.672v5.25h-.672v-5.25zm.34-1.984a.44.44 0 0 1 .332.135c.086.09.13.202.13.336a.473.473 0 0 1-.136.34.436.436 0 0 1-.325.14.473.473 0 0 1-.47-.481.45.45 0 0 1 .134-.335.456.456 0 0 1 .336-.135zm5.43 7.234l-.01-.882a1.904 1.904 0 0 1-.812.687c-.334.15-.718.225-1.152.225-.354 0-.666-.068-.937-.205a1.517 1.517 0 0 1-.626-.566 1.525 1.525 0 0 1-.22-.812c0-.454.175-.811.526-1.072.35-.26.833-.39 1.447-.39h1.764v-.402c0-.414-.124-.734-.37-.962-.248-.227-.609-.34-1.083-.34-.561 0-1.125.21-1.693.631l-.3-.46c.353-.248.69-.43 1.011-.547.32-.117.688-.175 1.102-.175.635 0 1.126.158 1.473.476.348.317.525.756.531 1.317l.01 3.477h-.661zm-1.854-.53c.468 0 .864-.11 1.188-.326.324-.218.542-.523.656-.917v-.722h-1.693c-.461 0-.812.077-1.052.23-.241.154-.361.385-.361.692 0 .314.115.566.345.757.231.19.537.285.917.285zm4.207-6.905h.671v7.435h-.671v-7.435zm2.584 0h.67v7.435h-.67v-7.435zm4.096 8.187c-.16.4-.372.704-.636.912-.264.207-.566.31-.907.31-.408 0-.768-.12-1.082-.36l.3-.522c.234.16.485.24.752.24.214 0 .407-.07.581-.21.174-.14.317-.344.43-.61l.221-.542-2.174-5.22h.711l1.804 4.509 1.734-4.51h.69l-2.424 6.003zm9.496-4.81c-.428-.414-.952-.621-1.573-.621-.375 0-.712.087-1.012.26a1.813 1.813 0 0 0-.702.727c-.167.31-.25.666-.25 1.067 0 .4.083.758.25 1.072.167.314.4.558.702.732.3.173.637.26 1.012.26.34 0 .652-.06.936-.18.284-.12.523-.294.717-.521l.38.4a2.34 2.34 0 0 1-.881.652 2.94 2.94 0 0 1-1.183.23c-.5 0-.948-.112-1.342-.335a2.394 2.394 0 0 1-.927-.942 2.775 2.775 0 0 1-.336-1.368c0-.508.112-.964.336-1.368a2.4 2.4 0 0 1 .927-.942 2.671 2.671 0 0 1 1.342-.335c.408 0 .78.067 1.118.2.337.134.626.32.866.561l-.38.451zm3.655-1.212c.508 0 .962.112 1.363.335.4.224.715.536.942.937.227.401.34.855.34 1.363 0 .514-.113.974-.34 1.378a2.41 2.41 0 0 1-.942.942c-.4.223-.855.335-1.363.335-.507 0-.962-.112-1.362-.335a2.41 2.41 0 0 1-.942-.942 2.763 2.763 0 0 1-.341-1.378c0-.508.114-.962.34-1.363.228-.4.542-.713.943-.937.4-.223.855-.335 1.362-.335zm0 .58c-.38 0-.721.088-1.022.261-.3.174-.534.418-.701.732-.167.314-.25.671-.25 1.072 0 .407.083.768.25 1.082.167.314.4.558.701.732.3.173.642.26 1.022.26a2.01 2.01 0 0 0 1.022-.26c.3-.174.535-.418.702-.732a2.27 2.27 0 0 0 .25-1.082c0-.4-.083-.758-.25-1.072a1.805 1.805 0 0 0-.702-.732c-.3-.173-.64-.26-1.022-.26zm10.62-.58c.621 0 1.105.18 1.453.54.347.362.52.863.52 1.504v3.226h-.68v-3.066c0-.5-.136-.89-.406-1.167s-.643-.416-1.118-.416c-.56.013-1 .207-1.317.581-.318.374-.476.869-.476 1.483v2.585h-.682v-3.066c0-.5-.135-.89-.405-1.167s-.643-.416-1.118-.416c-.56.013-1.002.207-1.322.581-.32.374-.481.869-.481 1.483v2.585h-.672v-5.25h.672v1.232c.173-.414.432-.725.776-.932.344-.207.764-.314 1.258-.32.5 0 .917.123 1.247.37.331.248.55.595.657 1.043.16-.468.419-.819.776-1.053.358-.233.797-.354 1.318-.36zm6.431 0c.488 0 .924.112 1.308.335.384.224.683.538.896.942a2.9 2.9 0 0 1 .321 1.378c0 .508-.107.962-.32 1.363a2.34 2.34 0 0 1-.892.937 2.53 2.53 0 0 1-1.303.335c-.48 0-.902-.108-1.263-.325a2.23 2.23 0 0 1-.841-.907v3.156h-.672v-7.194h.672v1.212c.194-.387.472-.69.836-.907a2.408 2.408 0 0 1 1.258-.325zm-.12 4.71c.374 0 .711-.09 1.012-.266.3-.177.534-.423.701-.737.167-.314.25-.671.25-1.072 0-.394-.083-.748-.25-1.062a1.84 1.84 0 0 0-.701-.737 1.957 1.957 0 0 0-1.012-.265c-.381 0-.72.088-1.017.265a1.885 1.885 0 0 0-.702.737 2.19 2.19 0 0 0-.255 1.062c0 .4.083.758.25 1.072.167.314.401.56.702.737.3.177.641.265 1.022.265zm8.425-4.69v5.25h-.681v-1.252a1.966 1.966 0 0 1-.777.942c-.344.213-.76.324-1.247.33-.622 0-1.108-.182-1.458-.546-.351-.364-.526-.863-.526-1.498v-3.226h.68v3.066c0 .494.136.88.407 1.157.27.277.643.416 1.117.416.561-.007 1.002-.199 1.323-.576.32-.378.48-.874.48-1.488v-2.575h.682zm4.447 4.89a2.14 2.14 0 0 1-1.162.39c-.401 0-.718-.123-.952-.37-.234-.248-.35-.618-.35-1.113v-3.126h-.752l-.01-.52h.761v-1.354h.672v1.353l1.703-.01v.531h-1.703v3.016c0 .648.24.972.721.972.267 0 .558-.093.872-.28l.2.51zm3.024-4.91c.815 0 1.437.259 1.864.776.428.518.625 1.214.591 2.09h-4.378c.046.56.253 1.013.62 1.357.368.344.823.516 1.364.516.334 0 .644-.06.931-.18.288-.12.535-.29.742-.511l.38.38a2.604 2.604 0 0 1-.916.637c-.358.15-.75.225-1.177.225-.508 0-.959-.112-1.353-.335a2.403 2.403 0 0 1-.927-.937 2.768 2.768 0 0 1-.336-1.373c0-.508.112-.964.336-1.368a2.4 2.4 0 0 1 .927-.942 2.651 2.651 0 0 1 1.332-.335zm1.854 2.344c-.033-.547-.215-.983-.546-1.307-.33-.324-.763-.486-1.297-.486-.528 0-.97.163-1.323.49-.354.328-.558.762-.611 1.303h3.777zm2.524-1.102c.173-.4.422-.706.746-.917.324-.21.713-.319 1.167-.325v.631c-.554-.007-1 .155-1.337.486-.338.33-.53.78-.576 1.348v2.805h-.672v-5.25h.672v1.222zm8.163-.29a2.545 2.545 0 0 0-.672-.296 2.67 2.67 0 0 0-.731-.105c-.334 0-.603.065-.807.195-.204.13-.306.326-.306.586 0 .18.056.328.166.441.11.114.247.206.41.276.164.07.393.148.687.235.36.107.655.212.882.316.227.103.42.254.58.45.161.198.241.457.241.777 0 .475-.18.837-.54 1.088-.361.25-.812.375-1.353.375-.381 0-.749-.063-1.103-.19a2.44 2.44 0 0 1-.891-.541l.27-.481c.227.207.496.37.807.49.31.121.626.181.947.181.354 0 .643-.073.866-.22a.72.72 0 0 0 .336-.642.676.676 0 0 0-.17-.475 1.177 1.177 0 0 0-.426-.291 8.866 8.866 0 0 0-.707-.246 7.096 7.096 0 0 1-.861-.31 1.52 1.52 0 0 1-.561-.436c-.154-.19-.23-.44-.23-.747 0-.46.171-.808.515-1.042.344-.233.773-.35 1.288-.35.3 0 .591.04.872.12.28.08.53.19.751.33l-.26.512zm3.164 5.07c-.16.4-.372.704-.636.912-.264.207-.566.31-.907.31-.407 0-.768-.12-1.082-.36l.3-.522c.234.16.485.24.752.24.214 0 .408-.07.581-.21.174-.14.317-.344.431-.61l.22-.542-2.174-5.22h.712l1.803 4.509 1.734-4.51h.691l-2.425 6.003zm5.92-5.07a2.545 2.545 0 0 0-.671-.296 2.67 2.67 0 0 0-.731-.105c-.334 0-.603.065-.807.195-.204.13-.306.326-.306.586 0 .18.055.328.166.441.11.114.247.206.41.276.164.07.393.148.687.235.36.107.654.212.882.316.227.103.42.254.58.45.161.198.241.457.241.777 0 .475-.18.837-.54 1.088-.362.25-.812.375-1.354.375-.38 0-.748-.063-1.102-.19a2.44 2.44 0 0 1-.892-.541l.271-.481c.227.207.496.37.807.49.31.121.626.181.946.181.355 0 .643-.073.867-.22a.72.72 0 0 0 .336-.642.676.676 0 0 0-.17-.475 1.177 1.177 0 0 0-.426-.291 8.866 8.866 0 0 0-.707-.246 7.096 7.096 0 0 1-.861-.31 1.52 1.52 0 0 1-.562-.436c-.153-.19-.23-.44-.23-.747 0-.46.172-.808.516-1.042.344-.233.773-.35 1.288-.35.3 0 .59.04.871.12.28.08.531.19.752.33l-.26.512zm4.277 3.958a2.14 2.14 0 0 1-1.162.39c-.4 0-.718-.123-.952-.37-.234-.248-.35-.618-.35-1.113v-3.126h-.752l-.01-.52h.761v-1.354h.672v1.353l1.703-.01v.531h-1.703v3.016c0 .648.24.972.721.972.267 0 .558-.093.872-.28l.2.51zm3.025-4.91c.815 0 1.436.259 1.863.776.428.518.625 1.214.591 2.09h-4.378c.046.56.254 1.013.621 1.357.367.344.822.516 1.363.516.334 0 .644-.06.932-.18.287-.12.534-.29.741-.511l.38.38a2.604 2.604 0 0 1-.916.637 3.01 3.01 0 0 1-1.177.225c-.508 0-.959-.112-1.353-.335a2.403 2.403 0 0 1-.927-.937 2.768 2.768 0 0 1-.336-1.373c0-.508.112-.964.336-1.368a2.4 2.4 0 0 1 .927-.942 2.651 2.651 0 0 1 1.333-.335zm1.853 2.344c-.033-.547-.215-.983-.546-1.307-.33-.324-.763-.486-1.297-.486-.528 0-.969.163-1.323.49-.354.328-.558.762-.611 1.303h3.777zm8.556-2.344c.62 0 1.105.18 1.453.54.347.362.52.863.52 1.504v3.226h-.68v-3.066c0-.5-.136-.89-.407-1.167-.27-.277-.643-.416-1.117-.416-.56.013-1 .207-1.317.581-.318.374-.476.869-.476 1.483v2.585h-.682v-3.066c0-.5-.135-.89-.406-1.167-.27-.277-.642-.416-1.117-.416-.56.013-1.002.207-1.322.581-.321.374-.481.869-.481 1.483v2.585h-.672v-5.25h.672v1.232c.173-.414.432-.725.776-.932.344-.207.763-.314 1.258-.32.5 0 .917.123 1.247.37.33.248.55.595.656 1.043.16-.468.42-.819.777-1.053.357-.233.797-.354 1.318-.36zm6.33.952a2.545 2.545 0 0 0-.67-.296 2.67 2.67 0 0 0-.732-.105c-.334 0-.603.065-.807.195-.204.13-.305.326-.305.586 0 .18.055.328.165.441.11.114.247.206.41.276.164.07.393.148.687.235.36.107.655.212.882.316.227.103.42.254.581.45.16.198.24.457.24.777 0 .475-.18.837-.54 1.088-.361.25-.812.375-1.353.375-.381 0-.748-.063-1.102-.19a2.44 2.44 0 0 1-.892-.541l.27-.481c.227.207.496.37.807.49.31.121.626.181.947.181.354 0 .643-.073.867-.22a.72.72 0 0 0 .335-.642.676.676 0 0 0-.17-.475 1.177 1.177 0 0 0-.426-.291 8.866 8.866 0 0 0-.706-.246 7.096 7.096 0 0 1-.862-.31 1.52 1.52 0 0 1-.561-.436c-.154-.19-.23-.44-.23-.747 0-.46.171-.808.515-1.042.344-.233.774-.35 1.288-.35.3 0 .591.04.872.12.28.08.53.19.751.33l-.26.512zm1.622 3.487c.127 0 .234.043.32.13a.432.432 0 0 1 .131.32.453.453 0 0 1-.13.326.428.428 0 0 1-.32.135.42.42 0 0 1-.316-.13.458.458 0 0 1-.126-.33c0-.127.042-.234.126-.321a.42.42 0 0 1 .315-.13zm3.534-6.183h5.32v.631h-2.314v6.383h-.691v-6.383h-2.315v-.63zm8.455 1.744c.628 0 1.12.182 1.478.546.357.364.536.863.536 1.498v3.226h-.681v-3.066c0-.494-.137-.882-.411-1.162-.274-.28-.655-.421-1.142-.421-.581.007-1.037.199-1.368.576-.33.378-.496.877-.496 1.498v2.575h-.671v-7.435h.671v3.427c.354-.828 1.049-1.249 2.084-1.262zm5.7 0c.815 0 1.436.259 1.864.776.427.518.624 1.214.59 2.09h-4.378c.047.56.254 1.013.621 1.357.368.344.822.516 1.363.516.334 0 .645-.06.932-.18.287-.12.534-.29.741-.511l.381.38c-.254.274-.56.487-.917.637a3.01 3.01 0 0 1-1.177.225c-.508 0-.959-.112-1.353-.335a2.403 2.403 0 0 1-.927-.937 2.768 2.768 0 0 1-.335-1.373c0-.508.112-.964.335-1.368a2.4 2.4 0 0 1 .927-.942 2.651 2.651 0 0 1 1.333-.335zm1.854 2.344c-.034-.547-.216-.983-.547-1.307-.33-.324-.763-.486-1.297-.486-.528 0-.969.163-1.323.49-.354.328-.558.762-.611 1.303h3.778zm4.567-1.392a2.545 2.545 0 0 0-.671-.296 2.67 2.67 0 0 0-.732-.105c-.334 0-.603.065-.806.195-.204.13-.306.326-.306.586 0 .18.055.328.165.441.11.114.247.206.411.276a6.7 6.7 0 0 0 .686.235c.361.107.655.212.882.316.227.103.421.254.581.45.16.198.24.457.24.777 0 .475-.18.837-.54 1.088-.36.25-.812.375-1.353.375-.38 0-.748-.063-1.102-.19a2.44 2.44 0 0 1-.892-.541l.27-.481c.228.207.497.37.807.49.31.121.627.181.947.181.354 0 .643-.073.867-.22a.72.72 0 0 0 .336-.642.676.676 0 0 0-.17-.475 1.177 1.177 0 0 0-.427-.291 8.866 8.866 0 0 0-.706-.246 7.096 7.096 0 0 1-.862-.31 1.52 1.52 0 0 1-.56-.436c-.155-.19-.231-.44-.231-.747 0-.46.172-.808.516-1.042.344-.233.773-.35 1.287-.35.3 0 .591.04.872.12.28.08.531.19.752.33l-.261.512zm3.676-.952c.815 0 1.436.259 1.863.776.428.518.625 1.214.592 2.09h-4.38c.048.56.255 1.013.622 1.357.367.344.822.516 1.363.516.334 0 .644-.06.932-.18.287-.12.534-.29.741-.511l.38.38a2.604 2.604 0 0 1-.916.637 3.01 3.01 0 0 1-1.177.225c-.508 0-.959-.112-1.353-.335a2.403 2.403 0 0 1-.927-.937 2.768 2.768 0 0 1-.336-1.373c0-.508.112-.964.336-1.368a2.4 2.4 0 0 1 .927-.942 2.651 2.651 0 0 1 1.333-.335zm1.853 2.344c-.033-.547-.215-.983-.546-1.307-.33-.324-.763-.486-1.297-.486-.528 0-.969.163-1.323.49-.354.328-.558.762-.611 1.303h3.777zm7.272-2.344c.487 0 .923.112 1.307.335.384.224.683.538.897.942a2.9 2.9 0 0 1 .32 1.378c0 .508-.106.962-.32 1.363a2.34 2.34 0 0 1-.892.937c-.38.223-.815.335-1.302.335-.481 0-.902-.108-1.263-.325a2.23 2.23 0 0 1-.842-.907v3.156h-.671v-7.194h.671v1.212c.194-.387.473-.69.837-.907a2.408 2.408 0 0 1 1.258-.325zm-.12 4.71c.373 0 .71-.09 1.011-.266.3-.177.535-.423.702-.737.167-.314.25-.671.25-1.072 0-.394-.083-.748-.25-1.062a1.84 1.84 0 0 0-.702-.737 1.957 1.957 0 0 0-1.012-.265c-.38 0-.72.088-1.017.265a1.885 1.885 0 0 0-.701.737 2.19 2.19 0 0 0-.256 1.062c0 .4.084.758.25 1.072.168.314.402.56.702.737.3.177.642.265 1.022.265zm4.587-3.468c.173-.4.422-.706.746-.917.324-.21.713-.319 1.168-.325v.631c-.555-.007-1 .155-1.338.486-.337.33-.53.78-.576 1.348v2.805h-.672v-5.25h.672v1.222zm4.948-1.242c.508 0 .962.112 1.363.335.4.224.714.536.942.937.227.401.34.855.34 1.363 0 .514-.113.974-.34 1.378a2.41 2.41 0 0 1-.942.942c-.401.223-.855.335-1.363.335s-.962-.112-1.363-.335a2.41 2.41 0 0 1-.942-.942 2.763 2.763 0 0 1-.34-1.378c0-.508.113-.962.34-1.363.228-.4.541-.713.942-.937a2.756 2.756 0 0 1 1.363-.335zm0 .58c-.38 0-.721.088-1.022.261-.3.174-.534.418-.701.732-.167.314-.25.671-.25 1.072 0 .407.083.768.25 1.082.167.314.4.558.701.732.3.173.641.26 1.022.26.38 0 .721-.087 1.022-.26.3-.174.534-.418.701-.732a2.27 2.27 0 0 0 .25-1.082c0-.4-.083-.758-.25-1.072a1.805 1.805 0 0 0-.701-.732 2.01 2.01 0 0 0-1.022-.26zm7.573.632c-.427-.414-.951-.621-1.573-.621-.374 0-.711.087-1.012.26-.3.174-.534.416-.701.727-.167.31-.25.666-.25 1.067 0 .4.083.758.25 1.072.167.314.4.558.701.732.3.173.638.26 1.012.26.341 0 .653-.06.937-.18.284-.12.523-.294.717-.521l.38.4a2.34 2.34 0 0 1-.881.652 2.94 2.94 0 0 1-1.183.23c-.5 0-.948-.112-1.342-.335a2.394 2.394 0 0 1-.927-.942 2.775 2.775 0 0 1-.336-1.368c0-.508.112-.964.336-1.368.224-.404.532-.718.927-.942a2.671 2.671 0 0 1 1.342-.335c.408 0 .78.067 1.117.2.338.134.627.32.867.561l-.38.451zm3.596-1.212c.815 0 1.436.259 1.864.776.427.518.624 1.214.59 2.09H285c.047.56.254 1.013.621 1.357.368.344.822.516 1.363.516.334 0 .645-.06.932-.18.287-.12.534-.29.741-.511l.381.38c-.254.274-.56.487-.917.637a3.01 3.01 0 0 1-1.177.225c-.508 0-.959-.112-1.353-.335a2.403 2.403 0 0 1-.927-.937 2.768 2.768 0 0 1-.335-1.373c0-.508.112-.964.335-1.368a2.4 2.4 0 0 1 .927-.942 2.651 2.651 0 0 1 1.333-.335zm1.854 2.344c-.034-.547-.216-.983-.546-1.307-.331-.324-.764-.486-1.298-.486-.528 0-.969.163-1.323.49-.354.328-.557.762-.61 1.303h3.777zm4.567-1.392a2.545 2.545 0 0 0-.671-.296 2.67 2.67 0 0 0-.732-.105c-.334 0-.603.065-.806.195-.204.13-.306.326-.306.586 0 .18.055.328.165.441.11.114.248.206.411.276.164.07.393.148.687.235.36.107.654.212.881.316.228.103.421.254.582.45.16.198.24.457.24.777 0 .475-.18.837-.541 1.088-.36.25-.812.375-1.353.375-.38 0-.748-.063-1.102-.19a2.44 2.44 0 0 1-.892-.541l.27-.481c.228.207.497.37.807.49.311.121.627.181.947.181.354 0 .643-.073.867-.22a.72.72 0 0 0 .336-.642.676.676 0 0 0-.17-.475 1.177 1.177 0 0 0-.426-.291 8.866 8.866 0 0 0-.707-.246 7.096 7.096 0 0 1-.862-.31 1.52 1.52 0 0 1-.56-.436c-.154-.19-.231-.44-.231-.747 0-.46.172-.808.516-1.042.344-.233.773-.35 1.287-.35.301 0 .592.04.872.12.28.08.531.19.752.33l-.26.512zm4.347 0a2.545 2.545 0 0 0-.671-.296 2.67 2.67 0 0 0-.732-.105c-.334 0-.603.065-.806.195-.204.13-.306.326-.306.586 0 .18.055.328.165.441.11.114.248.206.411.276.164.07.393.148.687.235.36.107.654.212.881.316.228.103.421.254.582.45.16.198.24.457.24.777 0 .475-.18.837-.541 1.088-.36.25-.812.375-1.353.375-.38 0-.748-.063-1.102-.19a2.44 2.44 0 0 1-.892-.541l.27-.481c.228.207.497.37.807.49.311.121.627.181.947.181.354 0 .643-.073.867-.22a.72.72 0 0 0 .336-.642.676.676 0 0 0-.17-.475 1.177 1.177 0 0 0-.426-.291 8.866 8.866 0 0 0-.707-.246 7.096 7.096 0 0 1-.862-.31 1.52 1.52 0 0 1-.56-.436c-.154-.19-.231-.44-.231-.747 0-.46.172-.808.516-1.042.344-.233.773-.35 1.287-.35.301 0 .592.04.872.12.28.08.531.19.752.33l-.26.512zm3.676-.952c.815 0 1.436.259 1.864.776.427.518.624 1.214.59 2.09h-4.378c.047.56.254 1.013.621 1.357.368.344.822.516 1.363.516.334 0 .645-.06.932-.18.287-.12.534-.29.741-.511l.381.38c-.254.274-.56.487-.917.637a3.01 3.01 0 0 1-1.177.225c-.508 0-.959-.112-1.353-.335a2.403 2.403 0 0 1-.927-.937 2.768 2.768 0 0 1-.335-1.373c0-.508.112-.964.335-1.368a2.4 2.4 0 0 1 .927-.942 2.651 2.651 0 0 1 1.333-.335zm1.853 2.344c-.033-.547-.215-.983-.546-1.307-.33-.324-.763-.486-1.297-.486-.528 0-.969.163-1.323.49-.354.328-.558.762-.611 1.303h3.777zm4.568-1.392a2.545 2.545 0 0 0-.671-.296 2.67 2.67 0 0 0-.732-.105c-.334 0-.603.065-.806.195-.204.13-.306.326-.306.586 0 .18.055.328.165.441.11.114.247.206.411.276a6.7 6.7 0 0 0 .686.235c.361.107.655.212.882.316.227.103.421.254.581.45.16.198.24.457.24.777 0 .475-.18.837-.54 1.088-.361.25-.812.375-1.353.375-.38 0-.748-.063-1.102-.19a2.44 2.44 0 0 1-.892-.541l.27-.481c.228.207.497.37.807.49.31.121.626.181.947.181.354 0 .643-.073.867-.22a.72.72 0 0 0 .336-.642.676.676 0 0 0-.17-.475 1.177 1.177 0 0 0-.427-.291 8.866 8.866 0 0 0-.706-.246 7.096 7.096 0 0 1-.862-.31 1.52 1.52 0 0 1-.56-.436c-.155-.19-.231-.44-.231-.747 0-.46.172-.808.516-1.042.344-.233.773-.35 1.287-.35.3 0 .591.04.872.12.28.08.531.19.751.33l-.26.512zM93.432 173.077h.671v5.25h-.671v-5.25zm.34-1.984a.44.44 0 0 1 .331.135c.087.09.13.202.13.336a.473.473 0 0 1-.135.34.436.436 0 0 1-.326.14.473.473 0 0 1-.47-.481c0-.133.045-.245.135-.335a.456.456 0 0 1 .335-.135zm4.879 1.964c.627 0 1.12.182 1.477.546.358.364.537.863.537 1.498v3.226h-.682v-3.066c0-.494-.137-.882-.41-1.162-.275-.28-.655-.421-1.143-.421-.541.007-.974.174-1.298.501-.324.327-.509.768-.556 1.323v2.825h-.671v-5.25h.671v1.222a1.95 1.95 0 0 1 .797-.922c.35-.207.777-.314 1.278-.32zm7.312 1.212c-.427-.414-.951-.621-1.573-.621-.374 0-.711.087-1.012.26-.3.174-.534.416-.701.727-.167.31-.25.666-.25 1.067 0 .4.083.758.25 1.072.167.314.4.558.701.732.3.173.638.26 1.012.26.341 0 .653-.06.937-.18.284-.12.523-.294.717-.521l.38.4a2.34 2.34 0 0 1-.881.652 2.94 2.94 0 0 1-1.183.23c-.5 0-.948-.112-1.342-.335a2.394 2.394 0 0 1-.927-.942 2.775 2.775 0 0 1-.336-1.368c0-.508.112-.964.336-1.368.223-.404.532-.718.927-.942a2.671 2.671 0 0 1 1.342-.335c.408 0 .78.067 1.117.2.338.134.627.32.867.561l-.38.451zm1.862-3.377h.672v7.435h-.672v-7.435zm7.043 2.185v5.25h-.681v-1.252a1.966 1.966 0 0 1-.777.942c-.344.213-.76.324-1.248.33-.62 0-1.107-.182-1.457-.546-.351-.364-.526-.863-.526-1.498v-3.226h.68v3.066c0 .494.136.88.407 1.157.27.277.643.416 1.117.416.561-.007 1.002-.199 1.323-.576.32-.378.48-.874.48-1.488v-2.575h.682zm6.581-2.185v7.435h-.671v-1.202c-.2.394-.48.7-.842.917-.36.217-.781.325-1.262.325-.495 0-.935-.113-1.323-.34a2.338 2.338 0 0 1-.902-.952 2.931 2.931 0 0 1-.32-1.383c0-.514.108-.972.325-1.373a2.4 2.4 0 0 1 .902-.942 2.52 2.52 0 0 1 1.308-.34c.48 0 .903.11 1.267.33.364.22.647.528.847.922v-3.397h.671zm-2.655 6.894c.38 0 .721-.088 1.022-.265.3-.177.536-.423.706-.737.17-.314.256-.671.256-1.072 0-.4-.085-.76-.256-1.077a1.9 1.9 0 0 0-1.728-1.017c-.38 0-.721.09-1.022.27-.3.18-.538.43-.711.747a2.2 2.2 0 0 0-.26 1.077c0 .4.084.758.255 1.072.17.314.407.56.711.737.304.177.646.265 1.027.265zm6.561-4.73c.815 0 1.437.26 1.864.777.428.518.625 1.214.591 2.09h-4.378c.046.56.253 1.013.62 1.357.368.344.823.516 1.364.516.334 0 .644-.06.931-.18.288-.12.535-.29.742-.511l.38.38a2.604 2.604 0 0 1-.916.637c-.358.15-.75.225-1.177.225-.508 0-.96-.112-1.353-.335a2.403 2.403 0 0 1-.927-.937 2.768 2.768 0 0 1-.336-1.373c0-.508.112-.964.336-1.368a2.4 2.4 0 0 1 .927-.942 2.651 2.651 0 0 1 1.332-.335zm1.854 2.345c-.033-.547-.215-.983-.546-1.307-.33-.324-.763-.486-1.298-.486-.527 0-.968.163-1.322.49-.354.328-.558.762-.611 1.303h3.777zm4.506-4.509h.671v7.435h-.671v-7.435zm4.577 2.165c.815 0 1.437.259 1.864.776.428.518.625 1.214.591 2.09h-4.379c.047.56.254 1.013.622 1.357.367.344.821.516 1.362.516.334 0 .645-.06.932-.18.288-.12.535-.29.742-.511l.38.38a2.604 2.604 0 0 1-.916.637c-.358.15-.75.225-1.178.225-.507 0-.958-.112-1.352-.335a2.403 2.403 0 0 1-.927-.937 2.768 2.768 0 0 1-.336-1.373c0-.508.112-.964.336-1.368a2.4 2.4 0 0 1 .927-.942 2.651 2.651 0 0 1 1.332-.335zm1.854 2.344c-.033-.547-.215-.983-.546-1.307-.33-.324-.763-.486-1.298-.486-.527 0-.968.163-1.322.49-.354.328-.558.762-.612 1.303h3.778zm5.149 2.926l-.01-.882a1.904 1.904 0 0 1-.812.687c-.334.15-.718.225-1.152.225-.354 0-.667-.068-.937-.205a1.517 1.517 0 0 1-.626-.566 1.525 1.525 0 0 1-.22-.812c0-.454.174-.811.525-1.072.35-.26.833-.39 1.448-.39h1.764v-.402c0-.414-.124-.734-.371-.962-.247-.227-.608-.34-1.082-.34-.561 0-1.126.21-1.694.631l-.3-.46c.354-.248.691-.43 1.012-.547.32-.117.688-.175 1.102-.175.635 0 1.125.158 1.473.476.347.317.524.756.53 1.317l.01 3.477h-.66zm-1.854-.53c.468 0 .863-.11 1.187-.326.324-.218.543-.523.657-.917v-.722h-1.694c-.46 0-.811.077-1.052.23-.24.154-.36.385-.36.692 0 .314.115.566.345.757.23.19.536.285.917.285zm4.828-3.498c.174-.4.422-.706.746-.917.324-.21.713-.319 1.168-.325v.631c-.555-.007-1 .155-1.338.486-.337.33-.53.78-.576 1.348v2.805h-.671v-5.25h.67v1.222zm5.59-1.242c.627 0 1.12.182 1.477.546.358.364.536.863.536 1.498v3.226h-.681v-3.066c0-.494-.137-.882-.41-1.162-.275-.28-.655-.421-1.143-.421-.541.007-.974.174-1.298.501-.324.327-.509.768-.556 1.323v2.825h-.671v-5.25h.671v1.222a1.95 1.95 0 0 1 .797-.922c.35-.207.776-.314 1.277-.32zm3.655.02h.671v5.25h-.671v-5.25zm.34-1.984a.44.44 0 0 1 .331.135c.087.09.13.202.13.336a.473.473 0 0 1-.135.34.436.436 0 0 1-.325.14.473.473 0 0 1-.47-.481.45.45 0 0 1 .134-.335.456.456 0 0 1 .336-.135zm4.879 1.964c.628 0 1.12.182 1.478.546.357.364.536.863.536 1.498v3.226h-.682v-3.066c0-.494-.137-.882-.41-1.162-.274-.28-.655-.421-1.143-.421-.54.007-.973.174-1.297.501-.324.327-.51.768-.556 1.323v2.825h-.672v-5.25h.672v1.222c.18-.407.446-.715.796-.922.35-.207.777-.314 1.278-.32zm8.194.02v4.7c0 .507-.106.951-.32 1.332-.214.38-.52.673-.917.877-.397.203-.857.305-1.378.305-.775 0-1.493-.267-2.154-.801l.32-.481c.268.233.548.41.842.53.294.12.615.181.962.181.601 0 1.08-.175 1.438-.526.357-.35.536-.82.536-1.408v-.852a2.08 2.08 0 0 1-.801.862c-.348.207-.749.31-1.203.31-.467 0-.883-.108-1.247-.325a2.261 2.261 0 0 1-.852-.902 2.747 2.747 0 0 1-.306-1.307c0-.488.102-.922.306-1.303.204-.38.49-.678.857-.892a2.45 2.45 0 0 1 1.252-.32c.454 0 .852.102 1.193.305.34.204.607.493.801.867v-1.152h.671zm-2.555 4.489c.361 0 .685-.085.972-.256.288-.17.511-.406.672-.706.16-.3.24-.638.24-1.012 0-.381-.08-.722-.24-1.022a1.78 1.78 0 0 0-.672-.707 1.869 1.869 0 0 0-.972-.255c-.36 0-.684.085-.972.255-.287.17-.512.406-.676.707-.164.3-.245.641-.245 1.022 0 .38.081.72.245 1.017.164.297.387.53.671.701.284.17.61.256.977.256z" opacity=".489"/></g><g fill-rule="nonzero" transform="translate(92 49.861)"><use fill="#000" filter="url(#g)" xlink:href="#h"/><use fill="#FFF" xlink:href="#h"/></g><path fill="#FFF" fill-rule="nonzero" d="M92 49.861h23.614v31.265H92z"/><path fill-rule="nonzero" d="M97.51 59.774h12.594V71.4H97.51z"/><path fill="#FFF" fill-opacity=".01" fill-rule="nonzero" d="M97.51 59.774h1v1h-1zm11.807 10.899h1v1h-1z"/><path fill="#2C0549" d="M101.358 69.22v-7.232h2.744c.951 0 1.672.168 2.164.504.491.337.737.83.737 1.478 0 .354-.099.666-.296.936a1.7 1.7 0 0 1-.824.594c.402.093.719.28.95.561.232.282.347.626.347 1.033 0 .696-.24 1.222-.72 1.58-.481.357-1.167.54-2.056.546h-3.046zm1.614-3.149v1.952h1.383c.38 0 .677-.083.89-.25.214-.168.321-.399.321-.694 0-.662-.371-.998-1.114-1.008h-1.48zm0-1.053h1.195c.814-.013 1.221-.313 1.221-.899 0-.328-.103-.564-.309-.708-.206-.144-.532-.216-.977-.216h-1.13v1.823z"/><path fill="#FFF" fill-rule="nonzero" d="M115.614 49.861h23.614v31.265h-23.614z"/><path fill-rule="nonzero" d="M121.124 59.774h12.594V71.4h-12.594z"/><path fill="#FFF" fill-opacity=".01" fill-rule="nonzero" d="M121.124 59.774h1v1h-1zm11.807 10.899h1v1h-1z"/><path fill="#2C0549" d="M127.246 69.22h-1.006l1.362-7.232h1.006z"/><path fill="#FFF" fill-rule="nonzero" d="M139.229 49.861h23.614v31.265h-23.614z"/><path fill-rule="nonzero" d="M144.739 59.774h12.594V71.4h-12.594z"/><path fill="#FFF" fill-opacity=".01" fill-rule="nonzero" d="M144.739 59.774h1v1h-1zm11.807 10.899h1v1h-1z"/><path fill="#2C0549" d="M153.525 61.988v4.918c-.003.682-.236 1.24-.697 1.673-.46.434-1.086.678-1.875.73l-.274.01c-.858 0-1.541-.213-2.05-.64-.51-.427-.768-1.015-.775-1.763v-4.928h1.022v4.898c0 .523.156.93.468 1.22.312.289.757.434 1.335.434.584 0 1.032-.144 1.342-.432.31-.289.466-.694.466-1.217v-4.903h1.038z"/><path fill-rule="nonzero" stroke="#2C0549" stroke-width=".787" d="M146.707 70.34h8.659v1h-8.659z"/><path fill="#FFF" fill-rule="nonzero" d="M163.63 49.861h23.615v31.265H163.63z"/><path fill-rule="nonzero" d="M169.14 59.774h12.595V71.4H169.14z"/><path fill="#FFF" fill-opacity=".01" fill-rule="nonzero" d="M169.14 59.774h1v1h-1zm11.808 10.899h1v1h-1z"/><path fill="#2C0549" d="M176.985 67.333h-3.282l-.738 1.887H171.9l2.992-7.232h.904l2.997 7.232h-1.06l-.748-1.887zm-2.97-.785h2.663l-1.334-3.383-1.33 3.383z"/><path fill-rule="nonzero" stroke="#2C0549" stroke-width=".787" d="M171.109 65.98h8.659v1h-8.66z"/><path fill="#FFF" fill-rule="nonzero" d="M187.245 49.861h23.614v31.265h-23.614z"/><path fill-rule="nonzero" d="M192.755 59.774h12.594V71.4h-12.594z"/><path fill="#FFF" fill-opacity=".01" fill-rule="nonzero" d="M192.755 59.774h1v1h-1zm11.807 10.899h1v1h-1z"/><path fill="#2C0549" d="M197.904 66.876h-2.813l-.632 1.618h-.913l2.564-6.2h.775l2.57 6.2h-.91l-.64-1.618zm-2.545-.673h2.283l-1.144-2.9-1.14 2.9zm7.852 2.29c-.05-.09-.09-.252-.12-.485-.397.38-.87.57-1.42.57-.493 0-.896-.128-1.211-.385a1.207 1.207 0 0 1-.473-.977c0-.48.198-.852.593-1.117.395-.266.95-.398 1.667-.398h.83v-.362c0-.275-.089-.495-.267-.658-.179-.163-.442-.245-.79-.245-.303 0-.559.071-.765.213-.206.142-.309.314-.309.515h-.858c0-.23.089-.452.266-.666a1.8 1.8 0 0 1 .72-.509c.302-.125.635-.187.998-.187.575 0 1.025.133 1.351.398.326.265.495.63.507 1.096v2.12c0 .423.059.76.176 1.01v.068h-.895zm-1.416-.6c.267 0 .521-.064.76-.191.24-.128.415-.294.522-.498v-.946h-.669c-1.045 0-1.568.283-1.568.848 0 .247.09.44.268.579.178.139.407.208.687.208z"/><path fill="#FFF" fill-rule="nonzero" d="M211.647 49.861h23.614v31.265h-23.614z"/><path fill-rule="nonzero" d="M217.157 59.774h12.594V71.4h-12.594z"/><path fill="#FFF" fill-opacity=".01" fill-rule="nonzero" d="M223.454 65.587h1v1h-1z"/><path fill="#FFF" fill-opacity=".01" fill-rule="nonzero" d="M223.454 65.587h1v1h-1z"/><path fill="#2C0549" fill-rule="nonzero" d="M218.73 69.22h9.447v1.453h-9.446z"/><path fill="#2C0549" d="M224.793 66.15h-2.814l-.631 1.617h-.914L223 61.568h.775l2.569 6.199h-.909l-.641-1.618zm-2.546-.673h2.283l-1.144-2.9-1.139 2.9z"/><path fill="#FFF" fill-rule="nonzero" d="M236.048 49.861h23.614v31.265h-23.614z"/><path fill-rule="nonzero" d="M241.558 59.774h12.594V71.4h-12.594z"/><path fill="#FFF" fill-opacity=".01" fill-rule="nonzero" d="M241.558 59.774h1v1h-1zm11.807 10.899h1v1h-1z"/><path d="M242.907 64.408c-.375 0-.693.115-.956.346-.262.23-.393.51-.393.84 0 .33.131.61.394.84.262.23.58.346.955.346.374 0 .693-.115.955-.346.262-.23.393-.51.393-.84 0-.33-.131-.61-.393-.84a1.396 1.396 0 0 0-.955-.346zm0-3.163c-.375 0-.693.116-.955.346-.263.23-.394.51-.394.84 0 .33.131.61.394.84.262.23.58.346.955.346.374 0 .693-.115.955-.346.262-.23.393-.51.393-.84 0-.33-.131-.61-.393-.84a1.396 1.396 0 0 0-.955-.346zm0 6.325c-.375 0-.693.116-.955.347a1.08 1.08 0 0 0-.394.84c0 .33.131.61.394.84.262.23.58.346.955.346a1.4 1.4 0 0 0 .955-.346c.262-.23.393-.51.393-.84 0-.33-.131-.61-.393-.84a1.396 1.396 0 0 0-.955-.346zm11.17-5.87a.232.232 0 0 0-.158-.06h-8.54a.227.227 0 0 0-.158.06.18.18 0 0 0-.067.138v1.186c0 .054.022.1.067.14a.235.235 0 0 0 .158.058h8.54c.06 0 .113-.02.158-.059a.18.18 0 0 0 .066-.139v-1.186a.18.18 0 0 0-.066-.139zm-.158 3.103h-8.54a.231.231 0 0 0-.158.059.18.18 0 0 0-.067.139v1.186c0 .054.022.1.067.139.044.04.097.059.158.059h8.54c.06 0 .113-.02.158-.059a.18.18 0 0 0 .066-.139v-1.186a.18.18 0 0 0-.066-.139.232.232 0 0 0-.158-.059zm0 3.163h-8.54a.231.231 0 0 0-.158.059.18.18 0 0 0-.067.139v1.186c0 .053.022.1.067.139a.23.23 0 0 0 .158.058h8.54c.06 0 .113-.02.158-.058a.18.18 0 0 0 .066-.14v-1.185a.18.18 0 0 0-.066-.14.232.232 0 0 0-.158-.058z" fill="#2C0549"/><path fill="#FFF" fill-rule="nonzero" d="M259.663 49.861h23.614v31.265h-23.614z"/><path fill-rule="nonzero" d="M265.173 59.774h12.594V71.4h-12.594z"/><path fill="#FFF" fill-opacity=".01" fill-rule="nonzero" d="M265.173 59.774h1v1h-1zm11.807 10.899h1v1h-1z"/><path fill="#2C0549" d="M277.691 61.746c.045.024.067.054.067.088v.75c0 .034-.022.063-.067.088a.32.32 0 0 1-.158.037h-8.54a.32.32 0 0 1-.158-.037c-.044-.025-.067-.054-.067-.088v-.75c0-.034.023-.063.067-.088a.32.32 0 0 1 .158-.037h8.54c.061 0 .114.012.158.037zm-.158 3.389a.32.32 0 0 1 .158.037c.045.025.067.054.067.088v.75c0 .034-.022.063-.067.088a.32.32 0 0 1-.158.037h-8.54a.32.32 0 0 1-.158-.037c-.044-.025-.067-.054-.067-.088v-.75c0-.034.023-.063.067-.088a.32.32 0 0 1 .158-.037h8.54zm0 3.426c.061 0 .114.013.158.037.045.025.067.054.067.088v.75c0 .034-.022.063-.067.088a.32.32 0 0 1-.158.037h-8.54a.32.32 0 0 1-.158-.037c-.044-.025-.067-.054-.067-.088v-.75c0-.034.023-.063.067-.088a.32.32 0 0 1 .158-.037h8.54zm-10.754-5.125h-.65v-1.93l-.637.174v-.459l1.228-.396h.06v2.611zm.517 3.674h-1.952v-.395l.9-.882c.22-.236.332-.423.332-.562 0-.112-.027-.198-.08-.256-.052-.059-.128-.088-.228-.088a.291.291 0 0 0-.24.117.46.46 0 0 0-.092.294h-.65c0-.16.043-.308.129-.444a.88.88 0 0 1 .357-.319c.153-.076.323-.114.511-.114.303 0 .536.065.699.195.163.13.245.318.245.562 0 .102-.02.203-.061.3a1.3 1.3 0 0 1-.192.307 4.62 4.62 0 0 1-.418.43l-.36.389h1.1v.466zm-1.36 2.115h.305c.242 0 .363-.11.363-.332a.277.277 0 0 0-.086-.21.342.342 0 0 0-.244-.082.368.368 0 0 0-.224.07.21.21 0 0 0-.095.174h-.648a.59.59 0 0 1 .123-.368.805.805 0 0 1 .341-.252c.146-.06.306-.09.48-.09.311 0 .556.066.734.198a.645.645 0 0 1 .267.547.527.527 0 0 1-.11.319.779.779 0 0 1-.322.243c.148.05.265.126.35.229a.575.575 0 0 1 .126.379.66.66 0 0 1-.288.56c-.192.14-.445.21-.757.21a1.32 1.32 0 0 1-.51-.098.79.79 0 0 1-.357-.271.67.67 0 0 1-.121-.394h.651c0 .08.035.15.104.208.07.059.155.088.256.088a.4.4 0 0 0 .273-.089.288.288 0 0 0 .102-.227c0-.131-.036-.224-.106-.28a.464.464 0 0 0-.292-.082h-.315v-.45z"/><g fill-rule="nonzero"><path fill="#FFF" d="M283.277 49.861h23.614v31.265h-23.614z"/><path d="M288.787 59.774h12.594V71.4h-12.594z"/><path fill="#FFF" fill-opacity=".01" d="M288.787 59.774h1v1h-1zm11.807 10.899h1v1h-1z"/><path fill="#2C0549" d="M289.574 61.228h10.233v1.245h-10.233v-1.245zm0 1.868h6.396v1.246h-6.396v-1.246zm0 3.737h6.396v1.245h-6.396v-1.245zm0-1.869h10.233v1.246h-10.233v-1.246zm0 3.737h10.233v1.246h-10.233V68.7z"/></g><path fill="#FFF" fill-rule="nonzero" d="M308.466 49.861h23.614v31.265h-23.614z"/><g fill="#2C0549"><path d="M321.783 64.903a2.294 2.294 0 0 0-.4-.297 2.53 2.53 0 0 0-1.285-.347 2.477 2.477 0 0 0-1.686.644l-2.165 2c-.445.412-.696.97-.696 1.553 0 1.214 1.065 2.2 2.381 2.2a2.472 2.472 0 0 0 1.684-.64l1.787-1.65a.15.15 0 0 0 .05-.113c0-.086-.077-.156-.17-.156h-.069a3.075 3.075 0 0 1-1.09-.195.18.18 0 0 0-.185.035l-1.285 1.188a1.084 1.084 0 0 1-1.445 0 .893.893 0 0 1 0-1.334l2.174-2.005a1.082 1.082 0 0 1 1.443 0 .74.74 0 0 0 .957 0 .608.608 0 0 0 .197-.4.602.602 0 0 0-.197-.483z"/><path d="M325.066 61.872c-.93-.86-2.44-.86-3.37 0l-1.786 1.647a.148.148 0 0 0-.035.172.17.17 0 0 0 .16.096h.063c.373 0 .742.066 1.087.197a.18.18 0 0 0 .186-.035l1.282-1.181a1.083 1.083 0 0 1 1.445 0 .892.892 0 0 1 0 1.333l-1.597 1.473-.014.014-.558.512a1.082 1.082 0 0 1-1.443 0 .74.74 0 0 0-.957 0 .608.608 0 0 0-.197.402c-.013.18.06.357.197.484.197.183.428.332.68.44.037.016.072.028.108.043.036.014.073.025.11.037.035.013.072.024.108.033l.1.025c.069.016.137.029.206.04.084.011.17.019.254.022h.13l.102-.011c.037-.002.076-.01.12-.01h.058l.118-.015.054-.01.099-.019h.019a2.44 2.44 0 0 0 1.104-.578l2.167-2c.93-.86.93-2.252 0-3.111z"/></g><path fill-rule="nonzero" d="M313.976 59.774h12.594V71.4h-12.594z"/><path fill="#FFF" fill-opacity=".01" fill-rule="nonzero" d="M313.976 59.774h1v1h-1zm11.807 10.899h1v1h-1z"/><path fill-rule="nonzero" stroke="#EBECF4" stroke-linecap="square" stroke-width=".787" d="M163.237 50.243v30.502m48.016-30.502v30.502m24.402-30.502v30.502m71.63-30.502v30.502"/></g></svg>