<svg xmlns="http://www.w3.org/2000/svg" width="202" height="69" viewBox="0 0 202 69"><defs><filter id="a" width="129.3%" height="243.9%" x="-14.6%" y="-71.9%" filterUnits="objectBoundingBox"><feGaussianBlur in="SourceGraphic" stdDeviation="8"/></filter></defs><g fill="none" fill-rule="evenodd" transform="translate(0 6.861)"><path fill="#2F248C" fill-opacity=".184" fill-rule="nonzero" d="M19 11h164.081v33.366H19z" filter="url(#a)"/><rect width="202" height="40" fill="#FFF" fill-rule="nonzero" rx="4"/><path fill="#2C0549" fill-rule="nonzero" d="M49.563 25h-1.312v-9.953h1.312V25zm3.246-7.396l.041.93c.565-.712 1.304-1.067 2.215-1.067 1.563 0 2.352.882 2.365 2.645V25h-1.264v-4.895c-.005-.533-.127-.927-.366-1.182-.24-.255-.612-.383-1.118-.383-.41 0-.77.11-1.08.328-.31.219-.551.506-.724.861V25h-1.265v-7.396h1.196zm9.344 6.5c.45 0 .845-.136 1.182-.41.338-.273.524-.615.56-1.025h1.197a2.293 2.293 0 0 1-.437 1.21 2.881 2.881 0 0 1-1.077.916 3.107 3.107 0 0 1-1.425.342c-1.007 0-1.808-.336-2.403-1.009-.595-.672-.892-1.591-.892-2.758v-.212c0-.72.132-1.36.396-1.92a3.02 3.02 0 0 1 1.138-1.306c.495-.31 1.08-.465 1.754-.465.83 0 1.519.248 2.068.745.549.497.842 1.142.878 1.934h-1.196c-.037-.478-.218-.871-.544-1.179-.325-.307-.728-.461-1.206-.461-.643 0-1.14.231-1.494.694-.353.462-.53 1.131-.53 2.006v.24c0 .852.176 1.508.527 1.968.35.46.852.69 1.504.69zm7.785-5.366a3.79 3.79 0 0 0-.622-.048c-.83 0-1.393.354-1.689 1.06V25h-1.265v-7.396h1.23l.021.854c.415-.66 1.003-.991 1.764-.991.246 0 .433.032.56.096v1.175zm3.95 6.399c-1.003 0-1.819-.33-2.448-.988-.629-.659-.943-1.54-.943-2.642v-.233c0-.733.14-1.388.42-1.965a3.28 3.28 0 0 1 1.176-1.353 2.956 2.956 0 0 1 1.637-.49c.962 0 1.71.318 2.242.951.534.633.8 1.54.8 2.72v.527h-5.01c.018.73.23 1.318.639 1.767.408.449.926.673 1.555.673.446 0 .825-.09 1.135-.273.31-.182.58-.424.813-.725l.773.602c-.62.952-1.55 1.429-2.79 1.429zm-.158-6.631c-.51 0-.939.186-1.285.557-.346.371-.56.892-.642 1.562h3.705v-.096c-.037-.642-.21-1.14-.52-1.493-.31-.354-.73-.53-1.258-.53zM82.65 25c-.073-.146-.132-.406-.178-.78-.588.611-1.29.917-2.105.917-.73 0-1.328-.206-1.795-.619a2.002 2.002 0 0 1-.7-1.569c0-.77.292-1.368.878-1.794.586-.426 1.41-.64 2.471-.64h1.23v-.58c0-.442-.132-.795-.396-1.057-.264-.262-.654-.393-1.169-.393-.451 0-.83.114-1.135.342-.305.228-.458.504-.458.827h-1.271c0-.369.131-.725.393-1.07a2.683 2.683 0 0 1 1.066-.816c.45-.2.943-.301 1.48-.301.853 0 1.52.213 2.003.639.483.426.734 1.013.752 1.76v3.405c0 .679.087 1.219.26 1.62V25H82.65zm-2.099-.964a2.22 2.22 0 0 0 1.128-.307 1.86 1.86 0 0 0 .773-.8V21.41h-.992c-1.55 0-2.324.454-2.324 1.36 0 .397.132.707.397.93.264.223.604.335 1.018.335zm9.303-.998c0-.342-.13-.607-.387-.796-.257-.19-.706-.352-1.346-.49-.64-.136-1.149-.3-1.525-.491-.376-.192-.654-.42-.834-.684a1.635 1.635 0 0 1-.27-.943c0-.606.257-1.119.77-1.538.512-.42 1.167-.63 1.965-.63.838 0 1.518.217 2.04.65.522.433.783.987.783 1.661h-1.272c0-.346-.146-.645-.44-.895-.294-.25-.665-.376-1.111-.376-.46 0-.82.1-1.08.3a.948.948 0 0 0-.39.787c0 .305.12.535.362.69.242.155.678.303 1.31.445.63.14 1.142.31 1.534.505.392.196.683.432.872.708.189.276.283.612.283 1.008 0 .661-.264 1.19-.793 1.59-.528.398-1.214.598-2.057.598-.593 0-1.117-.105-1.573-.315a2.557 2.557 0 0 1-1.07-.878 2.117 2.117 0 0 1-.386-1.22h1.265c.023.423.193.76.51 1.008.316.248.734.372 1.254.372.478 0 .862-.096 1.152-.29.289-.194.434-.452.434-.776zm5.83 2.099c-1.003 0-1.819-.33-2.448-.988-.629-.659-.943-1.54-.943-2.642v-.233c0-.733.14-1.388.42-1.965a3.28 3.28 0 0 1 1.176-1.353 2.956 2.956 0 0 1 1.637-.49c.962 0 1.71.318 2.242.951.534.633.8 1.54.8 2.72v.527h-5.01c.018.73.23 1.318.639 1.767.408.449.926.673 1.555.673.446 0 .825-.09 1.135-.273.31-.182.58-.424.813-.725l.773.602c-.62.952-1.55 1.429-2.79 1.429zm-.158-6.631c-.51 0-.939.186-1.285.557-.346.371-.56.892-.643 1.562h3.706v-.096c-.037-.642-.21-1.14-.52-1.493-.31-.354-.73-.53-1.258-.53zm11.974 4.532c0-.342-.129-.607-.386-.796-.257-.19-.706-.352-1.347-.49-.64-.136-1.148-.3-1.524-.491-.376-.192-.654-.42-.834-.684a1.635 1.635 0 0 1-.27-.943c0-.606.256-1.119.769-1.538.513-.42 1.168-.63 1.965-.63.839 0 1.519.217 2.04.65.523.433.784.987.784 1.661h-1.272c0-.346-.147-.645-.44-.895-.295-.25-.665-.376-1.112-.376-.46 0-.82.1-1.08.3a.948.948 0 0 0-.39.787c0 .305.121.535.363.69.241.155.678.303 1.309.445.631.14 1.143.31 1.535.505.392.196.682.432.871.708.19.276.284.612.284 1.008 0 .661-.264 1.19-.793 1.59-.529.398-1.215.598-2.058.598-.592 0-1.116-.105-1.572-.315a2.557 2.557 0 0 1-1.07-.878 2.117 2.117 0 0 1-.386-1.22h1.265c.022.423.192.76.509 1.008s.735.372 1.254.372c.479 0 .863-.096 1.152-.29.29-.194.434-.452.434-.776zM111.635 25h-1.265v-7.396h1.265V25zm-1.367-9.358c0-.205.062-.379.188-.52.125-.141.31-.212.557-.212.246 0 .433.07.56.212a.747.747 0 0 1 .192.52.722.722 0 0 1-.192.512c-.127.137-.314.205-.56.205-.246 0-.432-.068-.557-.205a.73.73 0 0 1-.188-.512zm4.428 8.326h4.327V25h-5.872v-.93l4.081-5.42h-4.02v-1.046h5.606v.895l-4.122 5.469zm8.557 1.169c-1.002 0-1.818-.33-2.447-.988-.629-.659-.943-1.54-.943-2.642v-.233c0-.733.14-1.388.42-1.965a3.28 3.28 0 0 1 1.176-1.353 2.956 2.956 0 0 1 1.637-.49c.962 0 1.709.318 2.242.951.533.633.8 1.54.8 2.72v.527h-5.01c.017.73.23 1.318.638 1.767.408.449.927.673 1.556.673.446 0 .824-.09 1.134-.273.31-.182.581-.424.814-.725l.772.602c-.62.952-1.55 1.429-2.789 1.429zm-.157-6.631c-.51 0-.939.186-1.285.557-.346.371-.56.892-.643 1.562h3.705v-.096c-.036-.642-.21-1.14-.52-1.493-.31-.354-.728-.53-1.257-.53zm4.312 5.83c0-.218.065-.4.195-.546.13-.146.325-.219.585-.219.26 0 .456.073.59.219a.776.776 0 0 1 .202.547c0 .21-.067.385-.201.526-.135.142-.332.212-.591.212-.26 0-.455-.07-.585-.212a.748.748 0 0 1-.195-.526zm.007-6.035c0-.219.065-.401.195-.547.13-.146.325-.219.584-.219.26 0 .457.073.592.219a.776.776 0 0 1 .201.547c0 .21-.067.385-.201.526-.135.141-.332.212-.592.212-.26 0-.454-.07-.584-.212a.748.748 0 0 1-.195-.526zM138.03 25h-1.272v-8.429l-2.55.937v-1.149L137.83 15h.199v10zm10.075 0h-6.522v-.91l3.445-3.827c.51-.58.863-1.05 1.057-1.412.193-.362.29-.737.29-1.124 0-.52-.157-.946-.472-1.279-.314-.332-.733-.499-1.257-.499-.63 0-1.118.18-1.467.537-.348.358-.523.855-.523 1.493h-1.264c0-.916.295-1.656.885-2.221.59-.565 1.38-.848 2.369-.848.925 0 1.656.243 2.194.728.538.486.807 1.132.807 1.938 0 .98-.625 2.147-1.873 3.5l-2.666 2.892h4.997V25zm7.429-4.245c0 1.481-.253 2.582-.759 3.302-.506.72-1.296 1.08-2.372 1.08-1.062 0-1.848-.352-2.358-1.056-.51-.705-.775-1.756-.793-3.155v-1.689c0-1.463.253-2.55.759-3.26.505-.711 1.298-1.067 2.378-1.067 1.071 0 1.86.343 2.366 1.029.506.686.765 1.744.779 3.175v1.64zm-1.265-1.73c0-1.07-.15-1.851-.45-2.34-.302-.49-.778-.736-1.43-.736-.647 0-1.118.244-1.415.732-.296.487-.448 1.237-.458 2.249v2.023c0 1.076.157 1.87.469 2.382.312.513.785.77 1.418.77.624 0 1.088-.242 1.391-.725.303-.483.462-1.244.475-2.283v-2.072zm2.624-2.064c0-.597.19-1.09.57-1.477.381-.387.87-.58 1.467-.58.606 0 1.097.194 1.473.584.376.39.564.894.564 1.514v.485c0 .602-.19 1.093-.57 1.473-.381.381-.865.571-1.453.571-.593 0-1.083-.19-1.47-.57-.387-.381-.58-.888-.58-1.522v-.478zm.943.526c0 .356.1.649.301.879.2.23.47.345.807.345a1 1 0 0 0 .783-.335c.198-.223.297-.529.297-.916v-.5c0-.355-.098-.648-.294-.88-.196-.233-.463-.35-.8-.35s-.604.117-.8.35c-.196.232-.294.535-.294.908v.5zm3.904 5.073c0-.597.19-1.088.57-1.474.381-.385.87-.577 1.467-.577.597 0 1.087.191 1.47.574.382.383.574.891.574 1.524v.486c0 .597-.19 1.088-.571 1.473-.38.385-.867.578-1.46.578-.592 0-1.082-.19-1.47-.571-.387-.38-.58-.888-.58-1.521v-.492zm.943.533c0 .36.1.655.3.885.201.23.47.345.808.345.328 0 .59-.113.786-.338.196-.226.294-.532.294-.92v-.505c0-.36-.1-.654-.298-.882-.198-.228-.463-.342-.796-.342-.324 0-.587.113-.79.338-.202.226-.304.53-.304.913v.506zm-3.452 1.155l-.718-.451 4.86-7.78.718.452-4.86 7.779z"/><path fill-rule="nonzero" d="M20 10h18v18H20z"/><path fill="#FFF" fill-opacity=".01" fill-rule="nonzero" d="M20 10h1v1h-1zm17 17h1v1h-1z"/><g fill="#2C0549"><path d="M25.968 13.74l1.9 1.066-1.064-1.903L27.868 11l-1.9 1.066-1.9-1.066 1.065 1.903-1.064 1.903zm9.118 7.46l-1.9-1.066 1.064 1.903-1.064 1.903 1.9-1.065 1.9 1.065-1.065-1.903 1.064-1.903zM36.985 11l-1.9 1.066L33.187 11l1.064 1.903-1.064 1.903 1.9-1.066 1.9 1.066-1.065-1.903z"/><path fill-rule="nonzero" d="M31.21 15.034a.734.734 0 0 0-1.063 0l-8.89 8.906a.737.737 0 0 0 0 1.066l1.748 1.75a.734.734 0 0 0 1.064 0l8.89-8.905a.737.737 0 0 0 0-1.066l-1.748-1.75zm-.835 4.187l-1.595-1.599 1.823-1.826 1.596 1.598-1.824 1.827z"/></g><path d="M181.144 22.667l5.515-5.516m.151 5.516l-5.515-5.516" fill-rule="nonzero" stroke-width=".6" stroke="#A7A1C3" stroke-linecap="round"/></g></svg>