<svg width="56" height="58" viewBox="0 0 56 58" xmlns="http://www.w3.org/2000/svg"><g id="Landing-UI" stroke="none" stroke-width="1" fill="none" fill-rule="evenodd"><g id="Landing-Page-Final" transform="translate(-660 -2437)" fill="#2C0548" fill-rule="nonzero"><g id="Create" transform="translate(592 2150)"><path d="M124.552 299.505l-6.577 3.881-.508-.861 7.905-4.665.765-.452-.011.89-.119 9.177-1-.013.099-7.636-.554-.321zm-68.195 14.14l.914-.406c.268.604.554 1.193.86 1.767l-.884.47a28.838 28.838 0 0 1-.89-1.83zm1.911 3.594l.847-.532c.35.556.718 1.097 1.105 1.622l-.805.593a27.546 27.546 0 0 1-1.147-1.683zm2.432 3.296l.758-.652c.427.497.872.976 1.335 1.44l-.708.706c-.48-.48-.942-.978-1.385-1.494zm2.875 2.879l.653-.757c.495.427 1.006.837 1.532 1.23l-.597.801a28.213 28.213 0 0 1-1.588-1.274zm3.288 2.448l.539-.842c.55.352 1.115.686 1.692 1.002l-.48.877a29.827 29.827 0 0 1-1.75-1.037zm3.569 1.955l.421-.908a31.25 31.25 0 0 0 1.811.772l-.362.932a31.903 31.903 0 0 1-1.87-.796zm3.767 1.467l.305-.952c.622.199 1.254.38 1.893.544l-.248.969a34.08 34.08 0 0 1-1.95-.561zm3.954 1.01l.19-.981a35.01 35.01 0 0 0 1.946.32l-.135.992a36.01 36.01 0 0 1-2-.33zm4.044.55l.08-.996a36.3 36.3 0 0 0 1.97.103l-.025 1a37.302 37.302 0 0 1-2.025-.106zm4.09.102l-.03-1c.658-.02 1.315-.056 1.97-.111l.084.996c-.673.057-1.348.095-2.024.115zm4.033-.338l-.137-.99a36.04 36.04 0 0 0 1.946-.324l.19.981c-.66.129-1.328.24-2 .333zm3.968-.774l-.246-.969c.64-.162 1.273-.342 1.896-.539l.302.954c-.642.203-1.293.388-1.952.554zm3.887-1.224l-.351-.936a37.87 37.87 0 0 0 1.83-.74l.399.917a38.87 38.87 0 0 1-1.878.76zm3.718-1.621l-.45-.894c.592-.297 1.17-.608 1.737-.935l.5.867c-.584.335-1.179.656-1.787.962zm3.532-2.038l-.55-.835c.55-.36 1.088-.737 1.616-1.13l.596.803a35.23 35.23 0 0 1-1.662 1.162zm3.25-2.412l-.64-.768c.501-.418.995-.852 1.481-1.303l.68.733c-.5.464-1.006.91-1.521 1.338zm2.986-2.766l-.715-.699c.454-.465.903-.947 1.349-1.446l.746.666a45.81 45.81 0 0 1-1.38 1.479zm2.713-3.036l-.772-.635a57 57 0 0 0 1.232-1.554l.794.608a58 58 0 0 1-1.254 1.581zm2.445-3.185l-.812-.584a79.53 79.53 0 0 0 1.14-1.628l.826.564a79.267 79.267 0 0 1-1.154 1.648zm2.26-3.307l-.838-.546c.352-.54.708-1.099 1.072-1.678l.847.531c-.366.585-.726 1.148-1.082 1.693zm2.14-3.409l-.854-.52c.267-.438.54-.89.815-1.353l.208-.358.865.502-.21.363c-.281.47-.555.925-.823 1.366zm2.037-3.46l-.865-.501 1.003-1.73.865.501-1.003 1.73z" id="Path-3" transform="scale(1 -1) rotate(60 635.422 0)"/></g></g></g></svg>