<svg xmlns="http://www.w3.org/2000/svg" width="85" height="70" viewBox="0 0 85 70"><defs><filter id="a" width="198%" height="241.2%" x="-49%" y="-70.6%" filterUnits="objectBoundingBox"><feGaussianBlur in="SourceGraphic" stdDeviation="8"/></filter></defs><g fill="none" fill-rule="evenodd" transform="translate(13 7.861)"><path fill="#52499C" fill-opacity=".219" fill-rule="nonzero" d="M5 10h49v34H5z" filter="url(#a)"/><rect width="57" height="38" fill="#FFF" fill-rule="nonzero" rx="3.84"/><path d="M19.95 10.45h17.28v17.28H19.95z"/><path fill="#FFF" fill-opacity=".01" fill-rule="nonzero" d="M19.95 10.45h1v1h-1zm16.32 16.32h1v1h-1z"/><g fill="#E91F54"><path fill-rule="nonzero" d="M36.934 11.43h-16.71a.281.281 0 0 0-.274.287V25.48a.28.28 0 0 0 .273.288h16.71a.28.28 0 0 0 .274-.288V11.717a.28.28 0 0 0-.273-.288zm-1.367 12.04l-3.76-4.101a.108.108 0 0 0-.155-.007l-2.608 2.418-3.334-4.323a.108.108 0 0 0-.09-.044.11.11 0 0 0-.086.047l-3.943 5.574v-9.877h13.976v10.314z"/><path d="M31.437 17.317c.74 0 1.341-.632 1.341-1.413 0-.78-.6-1.413-1.341-1.413s-1.342.633-1.342 1.413.6 1.413 1.342 1.413z"/></g></g></svg>