<svg xmlns="http://www.w3.org/2000/svg" width="195" height="82" viewBox="0 0 195 82"><path fill="#2C0548" d="M189.427 79.02l-.574-.09.207.556.367-.465zm.265-.334l4.502-5.709.785.62-5.684 7.207-.55.698-.311-.833-3.208-8.6.937-.35 2.54 6.812.253-1.609.988.155-.252 1.609zM1.405 31.93l-.81-.586c.396-.547.793-1.086 1.19-1.616l.8.6c-.394.526-.788 1.06-1.18 1.602zm2.391-3.182l-.788-.616a99.33 99.33 0 0 1 1.254-1.572l.775.63c-.415.51-.828 1.03-1.24 1.558zm2.515-3.09l-.762-.647a91.27 91.27 0 0 1 1.317-1.517l.748.664c-.436.49-.87.99-1.303 1.5zm2.643-2.975l-.733-.681c.462-.496.925-.982 1.39-1.458l.715.699c-.46.47-.917.95-1.372 1.44zm2.778-2.844l-.697-.717c.486-.472.973-.934 1.463-1.386l.678.735a76.2 76.2 0 0 0-1.444 1.368zm2.924-2.696L14 16.389a69.27 69.27 0 0 1 1.538-1.302l.635.773c-.507.417-1.013.844-1.516 1.283zm3.072-2.523l-.611-.792a64.357 64.357 0 0 1 1.615-1.207l.586.81c-.533.385-1.063.781-1.59 1.189zm3.229-2.335l-.56-.829a60.11 60.11 0 0 1 1.69-1.1l.532.846c-.557.35-1.111.71-1.662 1.083zm3.341-2.098l-.503-.864a57.73 57.73 0 0 1 1.76-.985l.473.882c-.58.31-1.157.633-1.73.967zm3.5-1.878l-.442-.897a57.95 57.95 0 0 1 1.825-.86l.41.912c-.602.27-1.2.552-1.793.845zm3.626-1.632l-.379-.926a58.85 58.85 0 0 1 1.88-.731l.346.938c-.62.23-1.236.469-1.847.719zm3.73-1.378l-.315-.95a61.712 61.712 0 0 1 1.925-.603l.284.96a60.68 60.68 0 0 0-1.894.593zm3.818-1.13l-.253-.967a66.71 66.71 0 0 1 1.957-.48l.224.975c-.649.149-1.291.306-1.928.473zm3.872-.888l-.195-.98a74.51 74.51 0 0 1 1.98-.367l.169.985c-.658.113-1.31.233-1.954.362zm3.931-.674l-.144-.99a86.178 86.178 0 0 1 1.994-.266l.12.993c-.664.08-1.32.168-1.97.263zm3.935-.48l-.1-.995a99.19 99.19 0 0 1 2.001-.18l.08.996c-.67.054-1.33.114-1.981.179zm3.974-.321l-.062-.998c.657-.041 1.324-.078 2.004-.11l.047.999c-.674.032-1.337.068-1.989.109zm3.962-.19l-.034-.999A196.57 196.57 0 0 1 60.617.56l.023 1c-.68.015-1.343.034-1.994.056zm3.99-.092l-.012-1C63.27.516 63.937.51 64.627.506l.006 1c-.688.004-1.351.01-1.996.018zm3.999-.024v-1h.065c.653 0 1.301.007 1.944.02l-.02 1A95.322 95.322 0 0 0 66.7 1.5h-.065zm3.98.08l.041-.998c.675.028 1.344.064 2.007.106l-.064.998a88.357 88.357 0 0 0-1.985-.105zm3.968.257l.087-.996c.674.06 1.341.126 2.003.2l-.112.994a82.253 82.253 0 0 0-1.978-.198zm3.956.445l.136-.99a76.1 76.1 0 0 1 1.991.3l-.162.987a77.14 77.14 0 0 0-1.965-.297zm3.92.644l.188-.982c.664.127 1.321.262 1.972.406l-.214.976a73.11 73.11 0 0 0-1.946-.4zm3.883.854l.242-.97a70.98 70.98 0 0 1 1.947.514l-.269.963a70.517 70.517 0 0 0-1.92-.507zm3.836 1.072l.297-.955c.644.2 1.282.408 1.914.624l-.323.946a69.847 69.847 0 0 0-1.888-.615zm3.756 1.283l.35-.937c.63.235 1.254.479 1.876.73l-.375.927a72.532 72.532 0 0 0-1.851-.72zm3.677 1.488l.4-.917c.611.266 1.22.541 1.834.826l-.42.907a82.856 82.856 0 0 0-1.814-.816zm3.614 1.675l.44-.898c.581.285 1.17.58 1.795.899l-.454.89a122.92 122.92 0 0 0-1.781-.89zm3.562 1.81l.462-.887.907.472.866.448-.458.89-.87-.45c-.174-.092-.796-.415-.907-.473zm3.574 1.823l.435-.9.277.132c.367.174.887.46 1.521.836l-.51.86a19.425 19.425 0 0 0-1.723-.928zm3.408 1.973l.54-.842c.534.342 1.097.713 1.68 1.106l-.559.83a87.806 87.806 0 0 0-1.66-1.094zm3.3 2.222l.575-.819c.539.378 1.084.768 1.634 1.168l-.588.809c-.545-.397-1.086-.784-1.62-1.158zm3.223 2.344l.602-.798c.533.401 1.065.809 1.594 1.221l-.615.789c-.525-.41-1.052-.814-1.58-1.212zm3.143 2.451l.628-.778c.523.422 1.04.848 1.551 1.276l-.642.767c-.506-.425-1.02-.846-1.537-1.265zm3.05 2.555l.656-.754c.51.443 1.01.888 1.502 1.334l-.671.74a97.586 97.586 0 0 0-1.488-1.32zm2.948 2.675l.688-.725c.493.467.974.934 1.443 1.401l-.706.709a80.877 80.877 0 0 0-1.425-1.385zm2.817 2.81l.725-.69c.471.496.927.99 1.366 1.483l-.746.666c-.432-.485-.88-.971-1.345-1.46zm2.641 2.963l.77-.639c.44.53.86 1.058 1.259 1.581l-.796.606a47.25 47.25 0 0 0-1.233-1.548zm2.396 3.155l.825-.565c.394.575.76 1.144 1.099 1.707l-.858.515a32.653 32.653 0 0 0-1.066-1.657zm2.015 3.375l.893-.45c.317.632.596 1.255.836 1.87l-.932.362a20.782 20.782 0 0 0-.797-1.782zm1.402 3.648l.969-.247c.174.683.294 1.353.359 2.01l.005.05-.996.095-.004-.048a12.526 12.526 0 0 0-.333-1.86zm.404 3.84l1 .035c-.027.755-.116 1.45-.266 2.083l-.973-.23a9.646 9.646 0 0 0 .239-1.888zm-.924 3.611l.852.523a5.02 5.02 0 0 1-1.536 1.601l-.547-.837a4.02 4.02 0 0 0 1.23-1.287zm-2.986 1.924l.138.99a7.24 7.24 0 0 1-2.148-.041l.159-.988a6.246 6.246 0 0 0 1.85.04zm-3.673-.543l-.362.932a12.703 12.703 0 0 1-1.87-.914l.509-.86c.569.336 1.147.618 1.723.842zm-3.353-1.979l-.63.777a15.409 15.409 0 0 1-1.515-1.407l.728-.686c.445.473.92.913 1.417 1.316zm-2.623-2.779l-.812.584a14.64 14.64 0 0 1-1.087-1.763l.886-.463a13.64 13.64 0 0 0 1.013 1.642zm-1.78-3.427l-.946.322a12.913 12.913 0 0 1-.512-2.016l.986-.167c.106.63.265 1.251.472 1.861zm-.632-3.771h-1c0-.69.057-1.382.173-2.076l.986.165c-.106.64-.16 1.277-.16 1.91zm.647-3.842l-.947-.32c.077-.226.16-.45.248-.675.17-.43.346-.839.53-1.24l.91.417c-.178.386-.346.78-.51 1.192-.083.209-.16.417-.23.626zm1.635-3.563l-.87-.494a22.41 22.41 0 0 1 1.09-1.73l.82.572a21.41 21.41 0 0 0-1.04 1.652zm2.248-3.219l-.762-.648a21.06 21.06 0 0 1 1.401-1.494l.696.719a20.06 20.06 0 0 0-1.335 1.423zm2.802-2.71l-.623-.783a21.58 21.58 0 0 1 1.663-1.197l.546.839c-.55.356-1.078.737-1.586 1.141zm3.31-2.15l-.466-.886a23.845 23.845 0 0 1 1.847-.87l.387.921c-.607.255-1.197.533-1.769.834zm3.566-1.509l-.315-.949c.638-.211 1.29-.4 1.956-.567l.244.97c-.643.16-1.271.343-1.885.546zm3.83-.962l-.175-.985a32.192 32.192 0 0 1 2.009-.292l.113.994c-.66.075-1.309.17-1.946.283zm3.942-.45l-.055-.998a37.491 37.491 0 0 1 2.027-.055v1a36.5 36.5 0 0 0-1.972.053zm3.985 0l.051-.999c.668.034 1.34.085 2.017.152l-.098.995a41.84 41.84 0 0 0-1.97-.148zm3.924.386l.143-.99a47.65 47.65 0 0 1 1.993.33l-.185.983a46.65 46.65 0 0 0-1.95-.323zm3.872.724l.223-.975a51.5 51.5 0 0 1 1.96.49l-.263.966c-.64-.174-1.28-.334-1.92-.481zm3.839 1.041l.298-.954c.641.2 1.28.414 1.916.64l-.334.942a53.017 53.017 0 0 0-1.88-.628zm3.717 1.318l.368-.93c.626.248 1.247.507 1.862.778l-.402.915a53.844 53.844 0 0 0-1.828-.763zm3.647 1.604l.437-.9c.607.295 1.207.6 1.8.915l-.47.883c-.582-.31-1.17-.609-1.767-.898zm3.489 1.856l.503-.864c.584.34 1.16.69 1.725 1.049l-.537.844a50.409 50.409 0 0 0-1.691-1.029zm3.358 2.137l.57-.821c.558.387 1.103.783 1.635 1.188l-.605.796a46.332 46.332 0 0 0-1.6-1.163zm3.164 2.409l.64-.768c.524.437 1.031.882 1.523 1.334l-.677.736c-.48-.441-.975-.876-1.486-1.302zm2.923 2.694l.715-.7c.478.49.938.986 1.378 1.488l-.753.659a34.626 34.626 0 0 0-1.34-1.447zm2.614 2.995l.792-.611c.42.544.816 1.094 1.189 1.65l-.831.556a29.557 29.557 0 0 0-1.15-1.595zm2.178 3.253l.868-.495c.342.6.655 1.203.94 1.811l-.906.424a24.4 24.4 0 0 0-.902-1.74zm1.67 3.586l.937-.349c.234.627.453 1.266.657 1.917l-.954.3c-.2-.635-.412-1.258-.64-1.868zm1.187 3.768l.967-.254c.17.644.326 1.3.47 1.966l-.977.212a45.558 45.558 0 0 0-.46-1.924zm.842 3.879l.985-.173a57.3 57.3 0 0 1 .313 1.993l-.99.138a56.3 56.3 0 0 0-.308-1.958zm.553 3.95l.994-.107c.07.657.132 1.325.186 2.005l-.997.079a73.24 73.24 0 0 0-.183-1.978zm.315 3.942l.998-.055c.037.657.066 1.326.09 2.008l-1 .035a95.124 95.124 0 0 0-.088-1.988zm.091 3.96l1 .031c-.02.657-.06 1.329-.117 2.023l-.997-.083a36.43 36.43 0 0 0 .114-1.97zm-.321 3.945l.992.124c-.078.631-.17 1.287-.278 1.994l-.988-.15a76.83 76.83 0 0 0 .274-1.968zm-.59 3.95l.989.155-.31 1.976-.988-.155.31-1.975z"/></svg>