<svg xmlns="http://www.w3.org/2000/svg" width="83" height="29" viewBox="0 0 83 29"><path fill="#4A4A4A" d="M79.505 3.025l-7.183-1.118.154-.988 9.07 1.412.878.136-.573.68-5.916 7.018-.765-.645 4.686-5.558-.615.23-.35-.937.614-.23zM1.19 10.626l-.378-.925c.652-.267 1.3-.49 1.944-.672l.27.963c-.607.17-1.218.382-1.836.634zm3.737-1.039l-.143-.99c.691-.1 1.378-.15 2.063-.154l.005 1c-.639.003-1.28.05-1.925.144zm3.86-.017l.134-.99c.675.09 1.35.228 2.023.41l-.26.965c-.633-.17-1.265-.3-1.897-.385zm3.789 1.017l.369-.93c.618.246 1.238.528 1.864.846l-.454.891a21.12 21.12 0 0 0-1.78-.807zm3.491 1.763l.518-.856c.559.339 1.125.706 1.703 1.103l-.566.824a34.348 34.348 0 0 0-1.655-1.071zm3.248 2.22l.601-.8c.513.385 1.04.795 1.592 1.237l-.626.78a64.652 64.652 0 0 0-1.567-1.218zm3.128 2.496l.64-.768c.46.383.934.784 1.532 1.292l-.647.762a196.55 196.55 0 0 0-1.525-1.286zm3.072 2.603l.648-.762c.588.5 1.066.903 1.526 1.285l-.64.77c-.463-.386-.943-.79-1.534-1.293zm3.06 2.538l.624-.781c.545.435 1.064.838 1.569 1.215l-.599.8a62.957 62.957 0 0 1-1.594-1.234zm3.254 2.42l.562-.827c.565.384 1.118.736 1.661 1.058l-.51.86a33.19 33.19 0 0 1-1.713-1.09zm3.493 2.056l.44-.897a19.9 19.9 0 0 0 1.79.773l-.347.937a20.422 20.422 0 0 1-1.883-.813zm3.862 1.417l.231-.973c.636.15 1.27.257 1.904.316l-.093.996a14.803 14.803 0 0 1-2.042-.34zm4.168.376l-.059-.998c.256-.016.512-.038.768-.069.398-.047.781-.107 1.163-.181l.19.982a17.27 17.27 0 0 1-1.234.192c-.276.033-.552.058-.828.074zm4.06-.778l-.305-.952a17.74 17.74 0 0 0 1.816-.694l.407.913a18.74 18.74 0 0 1-1.919.733zm3.783-1.678l-.495-.87a24.193 24.193 0 0 0 1.662-1.039l.563.827c-.577.393-1.152.753-1.73 1.082zm3.36-2.275l-.616-.788c.5-.392 1.007-.81 1.523-1.258l.655.755a39.35 39.35 0 0 1-1.562 1.29zm3.085-2.668l-.685-.73c.46-.43.931-.888 1.429-1.38l.704.71c-.504.499-.982.962-1.448 1.4zm2.838-2.804l-.716-.698c.41-.42.827-.853 1.388-1.436l.721.693c-.562.585-.981 1.019-1.393 1.441zm2.784-2.888l-.72-.694c.527-.547.97-1.003 1.397-1.438l.713.701c-.425.432-.866.886-1.39 1.43zm2.804-2.844l-.7-.715c.501-.49.984-.95 1.457-1.39l.68.734c-.467.432-.942.886-1.437 1.37zm2.926-2.703l-.652-.758c.526-.452 1.046-.88 1.564-1.284l.616.787a42.2 42.2 0 0 0-1.528 1.255zm3.093-2.41l-.57-.822a30.287 30.287 0 0 1 1.707-1.105l.514.858a28.98 28.98 0 0 0-1.65 1.068zm3.41-1.834l-.35-.937 1.873-.7.35.936-1.873.7z"/></svg>