<svg xmlns="http://www.w3.org/2000/svg" width="53" height="52" viewBox="0 0 53 52"><defs><filter id="a" width="306.9%" height="306.9%" x="-103.4%" y="-103.4%" filterUnits="objectBoundingBox"><feGaussianBlur in="SourceGraphic" stdDeviation="7.143"/></filter></defs><g fill="none" fill-rule="evenodd" transform="translate(9 2)"><circle cx="17.5" cy="23.929" r="10.357" fill="#2C0548" fill-opacity=".478" fill-rule="nonzero" filter="url(#a)"/><circle cx="17.5" cy="17.5" r="17.5" fill="#FFF" fill-rule="nonzero"/><g fill="#1587EA"><path d="M17.28 19.485l-4.021-2.584a.361.361 0 0 0-.421.022l-2.704 2.168a.359.359 0 0 0 .031.582l4.02 2.584c.131.084.3.075.422-.022l2.703-2.168a.359.359 0 0 0-.03-.582zm1.097.582l2.704 2.168a.36.36 0 0 0 .42.022l4.021-2.584a.359.359 0 0 0 .03-.582l-2.702-2.168a.361.361 0 0 0-.421-.022l-4.02 2.584a.359.359 0 0 0-.032.582zM17.31 13.28l-2.703-2.169a.361.361 0 0 0-.421-.022l-4.02 2.585a.359.359 0 0 0-.032.581l2.704 2.169a.36.36 0 0 0 .42.022l4.021-2.585a.359.359 0 0 0 .03-.581zm8.212.394l-4.02-2.585a.361.361 0 0 0-.421.022l-2.704 2.169a.359.359 0 0 0 .031.581l4.02 2.585c.131.084.3.075.422-.022l2.703-2.169a.359.359 0 0 0-.03-.581z"/><path d="M17.647 20.448l-3.027 2.407a.328.328 0 0 1-.381.019l-.746-.48a.327.327 0 0 0-.504.274v.26c0 .113.06.219.157.278l4.507 2.723a.328.328 0 0 0 .338 0l4.507-2.723a.326.326 0 0 0 .158-.279v-.231a.327.327 0 0 0-.504-.274l-.703.451a.328.328 0 0 1-.381-.02l-3.013-2.405a.328.328 0 0 0-.408 0z"/></g></g></svg>