<svg xmlns="http://www.w3.org/2000/svg" width="89" height="58" viewBox="0 0 89 58"><path fill="#2C0548" d="M83.954 2.52l-4.036 7.24-.874-.486 4.47-8.017.432-.777.439.773 4.53 7.983-.869.493-4.092-7.21zM.652 44.194l.696-.717c.477.462.96.912 1.45 1.35l-.667.746a50.24 50.24 0 0 1-1.48-1.379zm3.01 2.693l.635-.772c.511.42 1.03.83 1.554 1.225l-.603.798a48.142 48.142 0 0 1-1.587-1.251zm3.235 2.442l.568-.823a45.81 45.81 0 0 0 1.654 1.09l-.532.846a46.81 46.81 0 0 1-1.69-1.113zm3.44 2.159l.494-.87c.575.327 1.156.64 1.742.94l-.455.89c-.6-.306-1.194-.627-1.781-.96zm3.59 1.836l.416-.91c.601.275 1.207.536 1.818.783l-.375.927a45.676 45.676 0 0 1-1.858-.8zm3.767 1.523l.333-.943c.622.22 1.249.426 1.88.619l-.291.956a45.778 45.778 0 0 1-1.922-.632zm3.893 1.185l.248-.969c.638.164 1.28.314 1.925.45l-.206.978a46.254 46.254 0 0 1-1.967-.46zm3.915.825l.164-.986c.65.108 1.303.202 1.958.283l-.121.992a47.008 47.008 0 0 1-2.001-.289zm4.026.493l.08-.997c.656.052 1.315.09 1.976.115l-.037 1a47.989 47.989 0 0 1-2.019-.118zm4.052.15l-.005-1c.659-.004 1.318-.02 1.978-.051l.046.999c-.673.03-1.346.048-2.019.051zm4.058-.189l-.088-.996a49.26 49.26 0 0 0 1.97-.213l.127.992a50.26 50.26 0 0 1-2.01.217zm4.03-.517l-.167-.986c.65-.11 1.3-.234 1.947-.37l.206.979c-.66.139-1.323.264-1.986.377zm3.983-.838l-.244-.97c.64-.16 1.276-.334 1.91-.52l.281.96c-.646.19-1.295.366-1.947.53zm3.868-1.133l-.317-.948c.625-.21 1.247-.431 1.865-.664l.353.935c-.63.238-1.264.464-1.9.677zm3.767-1.421l-.388-.922a53.069 53.069 0 0 0 1.812-.803l.422.907a54.19 54.19 0 0 1-1.846.818zm3.613-1.68l-.455-.89c.588-.3 1.171-.612 1.749-.934l.487.874c-.588.328-1.182.645-1.781.95zm3.535-1.972l-.52-.854a53.967 53.967 0 0 0 1.676-1.06l.55.835c-.563.37-1.132.73-1.706 1.08zm3.38-2.228l-.58-.814a54.172 54.172 0 0 0 1.592-1.18l.61.793c-.533.41-1.074.81-1.621 1.201zm3.209-2.47l-.639-.769a54.258 54.258 0 0 0 1.501-1.293l.667.745c-.502.449-1.012.888-1.53 1.317zm3.023-2.703l-.693-.72a56.12 56.12 0 0 0 1.403-1.4l.719.694c-.468.485-.944.96-1.429 1.426zm2.813-2.912l-.744-.668c.44-.491.873-.991 1.296-1.499l.768.64a55.258 55.258 0 0 1-1.32 1.527zm2.597-3.118l-.791-.611c.404-.523.798-1.053 1.183-1.59l.813.582a55.29 55.29 0 0 1-1.205 1.619zm2.363-3.302l-.834-.552a54.43 54.43 0 0 0 1.063-1.672l.854.52a53.373 53.373 0 0 1-1.083 1.704zm2.113-3.462l-.872-.49c.323-.575.636-1.157.938-1.745l.89.457c-.309.6-.627 1.192-.956 1.778zm1.846-3.615l-.91-.412c.277-.615.529-1.22.756-1.819l.935.355a32.948 32.948 0 0 1-.78 1.876zm1.44-3.807l-.958-.29c.191-.632.356-1.264.498-1.898l.976.218a27.673 27.673 0 0 1-.517 1.97zm.888-3.974l-.99-.147c.096-.636.17-1.284.228-1.956l.996.085a32.168 32.168 0 0 1-.234 2.018zm.355-4.055l-.999-.036c.022-.62.034-1.27.037-1.984l1 .004a62.8 62.8 0 0 1-.038 2.016zm.028-4.017l-1 .012-.008-.6-.005-1.404 1-.004.005 1.398.008.598zm-.021-3.996l-1 .004-.008-2 1-.004.008 2z"/></svg>