<svg xmlns="http://www.w3.org/2000/svg" width="146" height="82" viewBox="0 0 146 82"><path d="M143.369 22.145l-.424.501.658.126-.234-.627zm-.122-.328l-2.539-6.813.937-.349 3.205 8.601.31.833-.872-.167-9.015-1.727.188-.982 7.14 1.368-1.294-1.095.645-.763 1.295 1.094zM1.479 81.143l-.958-.286c.19-.64.387-1.281.589-1.92l.953.3c-.2.635-.394 1.27-.584 1.906zm1.197-3.794l-.949-.316c.212-.636.429-1.27.65-1.902l.944.33c-.22.628-.435 1.257-.645 1.888zm1.322-3.769l-.939-.345a127.9 127.9 0 0 1 .71-1.88l.933.36a126.9 126.9 0 0 0-.704 1.865zm1.438-3.721l-.927-.375c.25-.62.506-1.237.767-1.853l.92.39c-.258.61-.511 1.223-.76 1.838zm1.552-3.67l-.915-.404c.27-.613.546-1.223.826-1.832l.908.418c-.277.604-.55 1.21-.819 1.818zm1.668-3.625l-.902-.432c.29-.605.584-1.207.883-1.807l.895.446c-.297.596-.589 1.193-.876 1.793zm1.776-3.565l-.888-.46c.308-.594.62-1.186.937-1.776l.881.474a128.5 128.5 0 0 0-.93 1.762zm1.887-3.51l-.874-.486c.326-.584.655-1.164.99-1.742l.865.5c-.331.574-.659 1.15-.981 1.729zm1.995-3.45l-.858-.513c.344-.573.691-1.144 1.043-1.71l.85.527c-.35.562-.694 1.128-1.035 1.697zm2.107-3.394l-.841-.54c.362-.564.73-1.125 1.1-1.682l.832.554c-.367.553-.731 1.109-1.09 1.668zm2.218-3.333l-.823-.567c.38-.552.765-1.101 1.153-1.647l.815.58a132.77 132.77 0 0 0-1.145 1.634zm2.314-3.248l-.805-.593c.398-.54.799-1.075 1.204-1.606l.795.606c-.401.527-.8 1.058-1.194 1.593zm2.393-3.14l-.786-.619c.415-.526.834-1.049 1.256-1.567l.775.631a121.44 121.44 0 0 0-1.245 1.555zm2.524-3.097l-.765-.645c.433-.514.87-1.023 1.31-1.528l.753.657c-.436.501-.869 1.006-1.298 1.516zm2.619-3.005l-.743-.67c.45-.498.903-.992 1.36-1.481l.73.682c-.452.485-.901.975-1.347 1.47zm2.72-2.913l-.72-.695c.467-.483.937-.96 1.41-1.434l.707.708c-.47.469-.935.942-1.398 1.421zm2.824-2.823l-.694-.72c.484-.466.97-.927 1.46-1.383l.682.732c-.486.452-.968.909-1.448 1.371zm2.922-2.717l-.668-.745c.5-.447 1.002-.89 1.507-1.326l.653.757c-.5.432-.997.87-1.492 1.314zm3.024-2.612l-.64-.77c.517-.428 1.035-.851 1.557-1.268l.624.78c-.516.414-1.03.833-1.541 1.258zm3.116-2.491l-.61-.793c.533-.41 1.068-.812 1.606-1.209l.593.805c-.532.393-1.062.792-1.59 1.197zm3.213-2.37l-.577-.816a98.544 98.544 0 0 1 1.652-1.143l.56.829c-.547.37-1.092.747-1.635 1.13zM49.6 14.67l-.543-.84a95.076 95.076 0 0 1 1.7-1.074l.526.851c-.563.348-1.124.702-1.683 1.063zm3.34-2.062l-.507-.862c.58-.34 1.161-.675 1.745-1.001l.488.872a93.43 93.43 0 0 0-1.726.991zm3.474-1.943l-.468-.884c.594-.315 1.19-.623 1.788-.923l.449.894c-.592.297-1.181.601-1.769.913zm3.562-1.786l-.427-.904a85.068 85.068 0 0 1 1.83-.84l.406.914a84.07 84.07 0 0 0-1.809.83zm3.647-1.62l-.384-.923a81.983 81.983 0 0 1 1.87-.75l.36.933a87.67 87.67 0 0 0-1.846.74zm3.71-1.434l-.338-.941a79.122 79.122 0 0 1 1.903-.655l.313.95c-.627.207-1.254.422-1.879.646zm3.787-1.249l-.288-.957a76.506 76.506 0 0 1 1.933-.555l.263.964a77.77 77.77 0 0 0-1.908.548zm3.844-1.048l-.238-.971c.654-.16 1.308-.31 1.963-.451l.21.977c-.645.14-1.29.288-1.935.445zm3.894-.839l-.183-.983a72.21 72.21 0 0 1 1.984-.342l.156.988a71.21 71.21 0 0 0-1.957.337zm3.932-.62l-.128-.992a70.602 70.602 0 0 1 2.003-.23l.1.995a69.6 69.6 0 0 0-1.975.227zm3.965-.397l-.07-.997a69.39 69.39 0 0 1 2.01-.114l.042 1a68.39 68.39 0 0 0-1.982.111zm3.983-.166l-.012-1A68.608 68.608 0 0 1 92.74.51l-.017 1a67.608 67.608 0 0 0-1.986-.005zm3.988.069l.046-1c.671.032 1.341.073 2.011.125l-.076.997a69.02 69.02 0 0 0-1.981-.122zm3.976.304l.106-.994c.667.07 1.334.152 2 .242l-.135.991a65.391 65.391 0 0 0-1.971-.239zm3.93.536l.164-.987c.661.11 1.322.23 1.981.36l-.192.98a68.036 68.036 0 0 0-1.953-.353zm3.88.761l.22-.975a70.14 70.14 0 0 1 1.958.473l-.249.968a69.14 69.14 0 0 0-1.93-.466zm3.835.985l.276-.962c.643.185 1.286.38 1.928.583l-.303.954a70.74 70.74 0 0 0-1.901-.575zm3.797 1.207l.33-.945c.631.22 1.262.45 1.891.69l-.355.934a72.853 72.853 0 0 0-1.866-.68zm3.705 1.405l.38-.925c.618.254 1.236.517 1.852.79l-.404.914a75.451 75.451 0 0 0-1.828-.779zm3.65 1.612l.427-.904c.604.286 1.207.58 1.809.884l-.45.893c-.595-.3-1.19-.59-1.787-.873zm3.54 1.786l.472-.882c.59.316 1.177.64 1.763.972l-.494.87a81.044 81.044 0 0 0-1.74-.96zm3.45 1.956l.514-.858a86.91 86.91 0 0 1 1.714 1.054l-.534.845a86.224 86.224 0 0 0-1.694-1.04zm3.336 2.103l.552-.834a90.31 90.31 0 0 1 1.665 1.128l-.57.822a90.74 90.74 0 0 0-1.647-1.116zm3.273 2.27l.588-.809c.54.392 1.077.791 1.614 1.198l-.604.797a95.772 95.772 0 0 0-1.598-1.186zm3.154 2.405l.645-.763 1.528 1.29-.646.764-1.527-1.29z"/></svg>