<svg xmlns="http://www.w3.org/2000/svg" width="72" height="46" viewBox="0 0 72 46"><path d="M2.995 6.832l-.153-.477-.347.375.5.102zm.5.101l7.123 1.453-.2.98-8.994-1.834-.87-.178.603-.652L7.395-.032l.733.68-4.94 5.333 1.481-.476.307.952-1.482.476zm49.027 38.468l-.597-.802a45.874 45.874 0 0 1 1.65-1.169l.561.828c-.581.394-1.115.771-1.614 1.143zm3.275-2.235l-.539-.842c.484-.31.957-.608 1.695-1.07l.53.847c-.734.46-1.205.758-1.686 1.065zm3.384-2.132l-.535-.844c.626-.397 1.164-.744 1.673-1.08l.55.835c-.514.34-1.056.69-1.688 1.09zm3.354-2.228l-.58-.815a38.12 38.12 0 0 0 1.582-1.182l.62.784c-.508.402-1.046.804-1.622 1.213zm3.183-2.532l-.673-.74c.499-.453.961-.91 1.39-1.375l.735.677c-.449.488-.932.966-1.452 1.438zm2.763-3.023l-.805-.593c.39-.529.74-1.07 1.05-1.627l.874.487a16.317 16.317 0 0 1-1.119 1.733zm2.012-3.63l-.932-.362c.23-.596.422-1.21.572-1.845l.973.23c-.16.68-.365 1.338-.613 1.976zm.959-4.065l-.997-.089c.058-.646.06-1.285.007-1.913l.996-.084c.058.686.056 1.382-.006 2.086zm-.359-4.171l-.965.26a11.126 11.126 0 0 0-.658-1.798l.907-.422c.296.636.535 1.29.716 1.96zm-1.75-3.78l-.828.562a13.439 13.439 0 0 0-1.195-1.513l.738-.674a14.37 14.37 0 0 1 1.285 1.626zm-2.842-3.114l-.642.766c-.49-.41-1.011-.796-1.56-1.156l.548-.836c.58.38 1.134.79 1.654 1.226zm-3.363-2.22l-.458.888a18.652 18.652 0 0 0-1.777-.798l.362-.932c.64.248 1.266.53 1.873.841zm-3.866-1.498l-.261.965c-.63-.17-1.267-.308-1.904-.41l.159-.988c.672.109 1.343.253 2.006.433zm-4.12-.65l-.045.999c-.655-.03-1.304-.02-1.94.029l-.076-.998a17.123 17.123 0 0 1 2.06-.03zm-4.116.323l.209.979c-.64.136-1.257.315-1.85.536l-.35-.936c.64-.24 1.305-.432 1.991-.579zm-3.824 1.428l.473.881c-.603.324-1.174.635-1.75.954l-.485-.875c.58-.32 1.155-.634 1.762-.96zm-3.511 1.947l.499.867c-.59.34-1.162.676-1.714 1.01l-.517-.856a94.51 94.51 0 0 1 1.732-1.021zm-3.442 2.086l.541.84c-.586.378-1.136.746-1.644 1.103l-.575-.818c.52-.366 1.08-.74 1.678-1.125zm-3.31 2.346l.628.779a14.43 14.43 0 0 0-1.431 1.297l-.728-.686c.412-.437.924-.9 1.531-1.39zm-2.73 3.34l.98.199c-.083.413.136.71.87.97l-.334.943c-1.164-.413-1.71-1.154-1.515-2.112zm2.767 3.503a7.08 7.08 0 0 0 1.18.278l-.142.99a8.394 8.394 0 0 1-1.609-.406l-.238-.084-.074-.242-.127-.422.958-.289.052.175zm3.256 1.195l-.227-.974a4.152 4.152 0 0 0 1.614-.769l.611.791a5.152 5.152 0 0 1-1.998.952zm3.488-2.649l-.855-.519c.309-.509.56-1.087.748-1.716l.958.285a8.36 8.36 0 0 1-.851 1.95zm1.234-3.955l-.995-.093c.058-.63.058-1.274 0-1.908l.995-.092c.065.696.065 1.4 0 2.093zm-.423-4.257l-.956.295a7.825 7.825 0 0 0-.757-1.72l.857-.515c.353.588.64 1.24.856 1.94zm-2.183-3.604l-.728.685c-.456-.485-.92-.95-1.392-1.393l.685-.729c.487.459.965.937 1.435 1.437zM39.396 9.04l-.637.771a28.72 28.72 0 0 0-1.558-1.2l.583-.813a29.72 29.72 0 0 1 1.612 1.242zm-3.33-2.381l-.522.852a26.697 26.697 0 0 0-1.71-.963l.458-.888c.601.31 1.192.642 1.774.999zm-3.612-1.863l-.391.92a26.503 26.503 0 0 0-1.834-.7l.322-.946c.643.218 1.278.46 1.903.726zm-3.887-1.32l-.251.968a28.16 28.16 0 0 0-1.919-.427l.184-.983c.67.125 1.332.272 1.986.442zm-4.002-.748l-.118.993c-.645-.077-1.3-.133-1.961-.17l.056-.999a32.62 32.62 0 0 1 2.023.176zM20.536 2.5l.002 1c-.65.001-1.308.02-1.973.057l-.055-.999a37.872 37.872 0 0 1 2.026-.058zm-4.067.223l.105.994c-.647.068-1.301.152-1.962.252l-.149-.989a44.954 44.954 0 0 1 2.006-.257zm-4.021.605l.19.982c-.64.124-1.286.262-1.937.414l-.227-.974a53.845 53.845 0 0 1 1.974-.422zm-3.97.952l.305.952-1.904.612-.306-.952 1.904-.612z"/></svg>